STARTFONT 2.1
COMMENT
COMMENT Converted from OpenType font ".\_Fonts\³ª´®°íµñÄÚµù.ttf" by "otf2bdf.exe 3.0".
COMMENT
FONT -FreeType-NanumGothicCoding-Medium-R-Normal--16-160-72-72-P-132-ISO10646-1
SIZE 16 72 72
FONTBOUNDINGBOX 16 18 0 -4
STARTPROPERTIES 19
FOUNDRY "FreeType"
FAMILY_NAME "NanumGothicCoding"
WEIGHT_NAME "Medium"
SLANT "R"
SETWIDTH_NAME "Normal"
ADD_STYLE_NAME ""
PIXEL_SIZE 16
POINT_SIZE 160
RESOLUTION_X 72
RESOLUTION_Y 72
SPACING "P"
AVERAGE_WIDTH 132
CHARSET_REGISTRY "ISO10646"
CHARSET_ENCODING "1"
FONT_ASCENT 12
FONT_DESCENT 3
COPYRIGHT "Copyright © 2009 NHN Corporation. All rights reserved. Font designed by Sandoll Communications Inc."
_OTF_FONTFILE ".\_Fonts\³ª´®°íµñÄÚµù.ttf"
_OTF_PSNAME "NanumGothicCoding"
ENDPROPERTIES
CHARS 12477
STARTCHAR 0000
ENCODING 0
SWIDTH 1000 0
DWIDTH 16 0
BBX 0 0 0 0
BITMAP
ENDCHAR
STARTCHAR 0001
ENCODING 1
SWIDTH 1000 0
DWIDTH 16 0
BBX 0 0 0 0
BITMAP
ENDCHAR
STARTCHAR 0002
ENCODING 2
SWIDTH 1000 0
DWIDTH 16 0
BBX 0 0 0 0
BITMAP
ENDCHAR
STARTCHAR 0003
ENCODING 3
SWIDTH 1000 0
DWIDTH 16 0
BBX 0 0 0 0
BITMAP
ENDCHAR
STARTCHAR 0004
ENCODING 4
SWIDTH 1000 0
DWIDTH 16 0
BBX 0 0 0 0
BITMAP
ENDCHAR
STARTCHAR 0005
ENCODING 5
SWIDTH 1000 0
DWIDTH 16 0
BBX 0 0 0 0
BITMAP
ENDCHAR
STARTCHAR 0006
ENCODING 6
SWIDTH 1000 0
DWIDTH 16 0
BBX 0 0 0 0
BITMAP
ENDCHAR
STARTCHAR 0007
ENCODING 7
SWIDTH 1000 0
DWIDTH 16 0
BBX 0 0 0 0
BITMAP
ENDCHAR
STARTCHAR 0008
ENCODING 8
SWIDTH 1000 0
DWIDTH 16 0
BBX 0 0 0 0
BITMAP
ENDCHAR
STARTCHAR 0009
ENCODING 9
SWIDTH 1000 0
DWIDTH 16 0
BBX 0 0 0 0
BITMAP
ENDCHAR
STARTCHAR 000A
ENCODING 10
SWIDTH 1000 0
DWIDTH 16 0
BBX 0 0 0 0
BITMAP
ENDCHAR
STARTCHAR 000B
ENCODING 11
SWIDTH 1000 0
DWIDTH 16 0
BBX 0 0 0 0
BITMAP
ENDCHAR
STARTCHAR 000C
ENCODING 12
SWIDTH 1000 0
DWIDTH 16 0
BBX 0 0 0 0
BITMAP
ENDCHAR
STARTCHAR 000D
ENCODING 13
SWIDTH 1000 0
DWIDTH 16 0
BBX 0 0 0 0
BITMAP
ENDCHAR
STARTCHAR 000E
ENCODING 14
SWIDTH 1000 0
DWIDTH 16 0
BBX 0 0 0 0
BITMAP
ENDCHAR
STARTCHAR 000F
ENCODING 15
SWIDTH 1000 0
DWIDTH 16 0
BBX 0 0 0 0
BITMAP
ENDCHAR
STARTCHAR 0010
ENCODING 16
SWIDTH 1000 0
DWIDTH 16 0
BBX 0 0 0 0
BITMAP
ENDCHAR
STARTCHAR 0011
ENCODING 17
SWIDTH 1000 0
DWIDTH 16 0
BBX 0 0 0 0
BITMAP
ENDCHAR
STARTCHAR 0012
ENCODING 18
SWIDTH 1000 0
DWIDTH 16 0
BBX 0 0 0 0
BITMAP
ENDCHAR
STARTCHAR 0013
ENCODING 19
SWIDTH 1000 0
DWIDTH 16 0
BBX 0 0 0 0
BITMAP
ENDCHAR
STARTCHAR 0014
ENCODING 20
SWIDTH 1000 0
DWIDTH 16 0
BBX 0 0 0 0
BITMAP
ENDCHAR
STARTCHAR 0015
ENCODING 21
SWIDTH 1000 0
DWIDTH 16 0
BBX 0 0 0 0
BITMAP
ENDCHAR
STARTCHAR 0016
ENCODING 22
SWIDTH 1000 0
DWIDTH 16 0
BBX 0 0 0 0
BITMAP
ENDCHAR
STARTCHAR 0017
ENCODING 23
SWIDTH 1000 0
DWIDTH 16 0
BBX 0 0 0 0
BITMAP
ENDCHAR
STARTCHAR 0018
ENCODING 24
SWIDTH 1000 0
DWIDTH 16 0
BBX 0 0 0 0
BITMAP
ENDCHAR
STARTCHAR 0019
ENCODING 25
SWIDTH 1000 0
DWIDTH 16 0
BBX 0 0 0 0
BITMAP
ENDCHAR
STARTCHAR 001A
ENCODING 26
SWIDTH 1000 0
DWIDTH 16 0
BBX 0 0 0 0
BITMAP
ENDCHAR
STARTCHAR 001B
ENCODING 27
SWIDTH 1000 0
DWIDTH 16 0
BBX 0 0 0 0
BITMAP
ENDCHAR
STARTCHAR 001C
ENCODING 28
SWIDTH 1000 0
DWIDTH 16 0
BBX 0 0 0 0
BITMAP
ENDCHAR
STARTCHAR 001D
ENCODING 29
SWIDTH 1000 0
DWIDTH 16 0
BBX 0 0 0 0
BITMAP
ENDCHAR
STARTCHAR 001E
ENCODING 30
SWIDTH 1000 0
DWIDTH 16 0
BBX 0 0 0 0
BITMAP
ENDCHAR
STARTCHAR 001F
ENCODING 31
SWIDTH 1000 0
DWIDTH 16 0
BBX 0 0 0 0
BITMAP
ENDCHAR
STARTCHAR 0020
ENCODING 32
SWIDTH 1000 0
DWIDTH 16 0
BBX 0 0 0 0
BITMAP
ENDCHAR
STARTCHAR 0021
ENCODING 33
SWIDTH 1000 0
DWIDTH 16 0
BBX 2 12 3 -1
BITMAP
80
80
80
80
80
80
80
80
80
00
C0
C0
ENDCHAR
STARTCHAR 0022
ENCODING 34
SWIDTH 1000 0
DWIDTH 16 0
BBX 4 4 2 8
BITMAP
90
90
90
90
ENDCHAR
STARTCHAR 0023
ENCODING 35
SWIDTH 1000 0
DWIDTH 16 0
BBX 8 12 0 -1
BITMAP
16
14
14
14
7F
14
24
24
FE
28
28
28
ENDCHAR
STARTCHAR 0024
ENCODING 36
SWIDTH 1000 0
DWIDTH 16 0
BBX 6 14 1 -2
BITMAP
10
3C
D0
90
90
D0
30
18
1C
14
14
1C
F8
10
ENDCHAR
STARTCHAR 0025
ENCODING 37
SWIDTH 1000 0
DWIDTH 16 0
BBX 7 13 1 -2
BITMAP
70
98
88
88
9E
7C
10
60
9C
22
22
22
1C
ENDCHAR
STARTCHAR 0026
ENCODING 38
SWIDTH 1000 0
DWIDTH 16 0
BBX 7 12 1 -1
BITMAP
38
44
44
4C
38
72
DA
8A
86
84
C6
7A
ENDCHAR
STARTCHAR 0027
ENCODING 39
SWIDTH 1000 0
DWIDTH 16 0
BBX 1 4 3 8
BITMAP
80
80
80
80
ENDCHAR
STARTCHAR 0028
ENCODING 40
SWIDTH 1000 0
DWIDTH 16 0
BBX 3 15 2 -2
BITMAP
20
20
40
40
80
80
80
80
80
80
80
40
40
20
20
ENDCHAR
STARTCHAR 0029
ENCODING 41
SWIDTH 1000 0
DWIDTH 16 0
BBX 4 15 2 -2
BITMAP
80
40
20
20
20
10
10
10
10
10
30
20
20
40
80
ENDCHAR
STARTCHAR 002A
ENCODING 42
SWIDTH 1000 0
DWIDTH 16 0
BBX 7 8 1 2
BITMAP
10
10
10
D6
38
28
6C
44
ENDCHAR
STARTCHAR 002B
ENCODING 43
SWIDTH 1000 0
DWIDTH 16 0
BBX 8 9 1 1
BITMAP
10
10
10
10
FF
10
10
10
10
ENDCHAR
STARTCHAR 002C
ENCODING 44
SWIDTH 1000 0
DWIDTH 16 0
BBX 3 4 2 -3
BITMAP
20
60
40
80
ENDCHAR
STARTCHAR 002D
ENCODING 45
SWIDTH 1000 0
DWIDTH 16 0
BBX 7 1 1 4
BITMAP
FE
ENDCHAR
STARTCHAR 002E
ENCODING 46
SWIDTH 1000 0
DWIDTH 16 0
BBX 2 2 3 -1
BITMAP
C0
C0
ENDCHAR
STARTCHAR 002F
ENCODING 47
SWIDTH 1000 0
DWIDTH 16 0
BBX 6 13 1 -1
BITMAP
04
08
08
18
10
10
30
20
20
60
40
40
80
ENDCHAR
STARTCHAR 0030
ENCODING 48
SWIDTH 1000 0
DWIDTH 16 0
BBX 7 12 1 -1
BITMAP
38
44
84
82
82
92
92
92
82
84
44
38
ENDCHAR
STARTCHAR 0031
ENCODING 49
SWIDTH 1000 0
DWIDTH 16 0
BBX 4 12 1 -1
BITMAP
30
70
D0
10
10
10
10
10
10
10
10
10
ENDCHAR
STARTCHAR 0032
ENCODING 50
SWIDTH 1000 0
DWIDTH 16 0
BBX 6 12 1 -1
BITMAP
78
8C
04
04
04
08
18
10
20
40
C0
FC
ENDCHAR
STARTCHAR 0033
ENCODING 51
SWIDTH 1000 0
DWIDTH 16 0
BBX 6 12 1 -1
BITMAP
F8
8C
04
04
08
70
08
04
04
04
08
F0
ENDCHAR
STARTCHAR 0034
ENCODING 52
SWIDTH 1000 0
DWIDTH 16 0
BBX 7 12 1 -1
BITMAP
18
18
28
28
48
48
48
88
FE
08
08
08
ENDCHAR
STARTCHAR 0035
ENCODING 53
SWIDTH 1000 0
DWIDTH 16 0
BBX 6 12 1 -1
BITMAP
F8
80
80
80
80
F0
08
04
04
04
08
F0
ENDCHAR
STARTCHAR 0036
ENCODING 54
SWIDTH 1000 0
DWIDTH 16 0
BBX 7 12 1 -1
BITMAP
1E
60
40
80
B8
C4
C2
82
82
C2
44
38
ENDCHAR
STARTCHAR 0037
ENCODING 55
SWIDTH 1000 0
DWIDTH 16 0
BBX 6 12 1 -1
BITMAP
FC
04
0C
08
08
10
10
10
20
20
60
40
ENDCHAR
STARTCHAR 0038
ENCODING 56
SWIDTH 1000 0
DWIDTH 16 0
BBX 7 12 1 -1
BITMAP
78
C6
82
82
44
38
6C
86
82
82
C6
78
ENDCHAR
STARTCHAR 0039
ENCODING 57
SWIDTH 1000 0
DWIDTH 16 0
BBX 7 12 1 -1
BITMAP
38
44
84
82
82
86
C6
7A
02
04
08
F0
ENDCHAR
STARTCHAR 003A
ENCODING 58
SWIDTH 1000 0
DWIDTH 16 0
BBX 2 9 3 1
BITMAP
C0
C0
00
00
00
00
00
C0
C0
ENDCHAR
STARTCHAR 003B
ENCODING 59
SWIDTH 1000 0
DWIDTH 16 0
BBX 3 11 2 -1
BITMAP
60
60
00
00
00
00
00
60
60
C0
80
ENDCHAR
STARTCHAR 003C
ENCODING 60
SWIDTH 1000 0
DWIDTH 16 0
BBX 7 14 0 -2
BITMAP
02
04
08
10
20
60
C0
C0
60
30
18
0C
04
02
ENDCHAR
STARTCHAR 003D
ENCODING 61
SWIDTH 1000 0
DWIDTH 16 0
BBX 8 4 1 3
BITMAP
FF
00
00
FF
ENDCHAR
STARTCHAR 003E
ENCODING 62
SWIDTH 1000 0
DWIDTH 16 0
BBX 7 14 1 -2
BITMAP
80
40
20
10
08
0C
06
06
0C
18
30
60
40
80
ENDCHAR
STARTCHAR 003F
ENCODING 63
SWIDTH 1000 0
DWIDTH 16 0
BBX 6 13 1 -1
BITMAP
F8
0C
04
04
0C
08
10
30
20
20
00
30
30
ENDCHAR
STARTCHAR 0040
ENCODING 64
SWIDTH 1000 0
DWIDTH 16 0
BBX 7 12 1 -1
BITMAP
38
44
DE
BA
AA
AA
AA
B4
BC
C4
44
38
ENDCHAR
STARTCHAR 0041
ENCODING 65
SWIDTH 1000 0
DWIDTH 16 0
BBX 8 12 0 -1
BITMAP
18
18
18
3C
24
24
24
66
7E
42
42
C3
ENDCHAR
STARTCHAR 0042
ENCODING 66
SWIDTH 1000 0
DWIDTH 16 0
BBX 6 12 1 -1
BITMAP
F8
8C
84
84
8C
F0
98
84
84
84
88
F0
ENDCHAR
STARTCHAR 0043
ENCODING 67
SWIDTH 1000 0
DWIDTH 16 0
BBX 6 12 1 -1
BITMAP
3C
60
40
80
80
80
80
80
80
40
60
3C
ENDCHAR
STARTCHAR 0044
ENCODING 68
SWIDTH 1000 0
DWIDTH 16 0
BBX 6 12 1 -1
BITMAP
F0
98
88
84
84
84
84
84
84
88
98
F0
ENDCHAR
STARTCHAR 0045
ENCODING 69
SWIDTH 1000 0
DWIDTH 16 0
BBX 6 12 1 -1
BITMAP
F8
80
80
80
80
F8
80
80
80
80
80
FC
ENDCHAR
STARTCHAR 0046
ENCODING 70
SWIDTH 1000 0
DWIDTH 16 0
BBX 5 12 1 -1
BITMAP
F8
80
80
80
80
80
F8
80
80
80
80
80
ENDCHAR
STARTCHAR 0047
ENCODING 71
SWIDTH 1000 0
DWIDTH 16 0
BBX 6 12 1 -1
BITMAP
3C
60
40
80
80
BC
84
84
84
C4
64
38
ENDCHAR
STARTCHAR 0048
ENCODING 72
SWIDTH 1000 0
DWIDTH 16 0
BBX 6 12 1 -1
BITMAP
84
84
84
84
84
FC
84
84
84
84
84
84
ENDCHAR
STARTCHAR 0049
ENCODING 73
SWIDTH 1000 0
DWIDTH 16 0
BBX 5 12 2 -1
BITMAP
F8
20
20
20
20
20
20
20
20
20
20
F8
ENDCHAR
STARTCHAR 004A
ENCODING 74
SWIDTH 1000 0
DWIDTH 16 0
BBX 5 12 1 -1
BITMAP
78
08
08
08
08
08
08
08
88
88
88
70
ENDCHAR
STARTCHAR 004B
ENCODING 75
SWIDTH 1000 0
DWIDTH 16 0
BBX 6 12 2 -1
BITMAP
8C
88
90
B0
A0
E0
E0
90
90
88
88
84
ENDCHAR
STARTCHAR 004C
ENCODING 76
SWIDTH 1000 0
DWIDTH 16 0
BBX 6 12 2 -1
BITMAP
80
80
80
80
80
80
80
80
80
80
80
FC
ENDCHAR
STARTCHAR 004D
ENCODING 77
SWIDTH 1000 0
DWIDTH 16 0
BBX 6 12 1 -1
BITMAP
CC
CC
CC
CC
D4
D4
D4
B4
B4
B4
B4
84
ENDCHAR
STARTCHAR 004E
ENCODING 78
SWIDTH 1000 0
DWIDTH 16 0
BBX 6 12 1 -1
BITMAP
C4
C4
C4
A4
A4
A4
94
94
94
8C
8C
8C
ENDCHAR
STARTCHAR 004F
ENCODING 79
SWIDTH 1000 0
DWIDTH 16 0
BBX 7 12 1 -1
BITMAP
38
44
84
82
82
82
82
82
82
84
44
38
ENDCHAR
STARTCHAR 0050
ENCODING 80
SWIDTH 1000 0
DWIDTH 16 0
BBX 6 12 1 -1
BITMAP
F0
88
84
84
84
88
F0
80
80
80
80
80
ENDCHAR
STARTCHAR 0051
ENCODING 81
SWIDTH 1000 0
DWIDTH 16 0
BBX 7 14 1 -3
BITMAP
38
44
84
82
82
82
82
82
82
86
44
38
04
02
ENDCHAR
STARTCHAR 0052
ENCODING 82
SWIDTH 1000 0
DWIDTH 16 0
BBX 7 12 1 -1
BITMAP
F0
88
84
84
84
88
F0
90
88
88
84
86
ENDCHAR
STARTCHAR 0053
ENCODING 83
SWIDTH 1000 0
DWIDTH 16 0
BBX 6 12 1 -1
BITMAP
78
C0
80
80
C0
60
18
0C
04
04
88
F0
ENDCHAR
STARTCHAR 0054
ENCODING 84
SWIDTH 1000 0
DWIDTH 16 0
BBX 7 12 1 -1
BITMAP
FE
10
10
10
10
10
10
10
10
10
10
10
ENDCHAR
STARTCHAR 0055
ENCODING 85
SWIDTH 1000 0
DWIDTH 16 0
BBX 6 12 1 -1
BITMAP
84
84
84
84
84
84
84
84
84
84
C8
78
ENDCHAR
STARTCHAR 0056
ENCODING 86
SWIDTH 1000 0
DWIDTH 16 0
BBX 6 12 1 -1
BITMAP
84
84
84
8C
48
48
48
48
70
30
30
30
ENDCHAR
STARTCHAR 0057
ENCODING 87
SWIDTH 1000 0
DWIDTH 16 0
BBX 8 12 0 -1
BITMAP
81
9B
5A
5A
5A
5A
5A
5A
6A
66
66
64
ENDCHAR
STARTCHAR 0058
ENCODING 88
SWIDTH 1000 0
DWIDTH 16 0
BBX 8 12 0 -1
BITMAP
42
66
24
3C
18
18
18
3C
24
66
42
C3
ENDCHAR
STARTCHAR 0059
ENCODING 89
SWIDTH 1000 0
DWIDTH 16 0
BBX 7 12 1 -1
BITMAP
86
44
44
68
28
38
10
10
10
10
10
10
ENDCHAR
STARTCHAR 005A
ENCODING 90
SWIDTH 1000 0
DWIDTH 16 0
BBX 6 12 1 -1
BITMAP
FC
04
08
08
10
10
20
20
40
40
80
FC
ENDCHAR
STARTCHAR 005B
ENCODING 91
SWIDTH 1000 0
DWIDTH 16 0
BBX 3 16 3 -3
BITMAP
E0
80
80
80
80
80
80
80
80
80
80
80
80
80
80
E0
ENDCHAR
STARTCHAR 005C
ENCODING 92
SWIDTH 1000 0
DWIDTH 16 0
BBX 6 13 1 -1
BITMAP
80
40
40
60
20
20
30
10
10
18
08
08
04
ENDCHAR
STARTCHAR 005D
ENCODING 93
SWIDTH 1000 0
DWIDTH 16 0
BBX 3 16 2 -3
BITMAP
E0
20
20
20
20
20
20
20
20
20
20
20
20
20
20
E0
ENDCHAR
STARTCHAR 005E
ENCODING 94
SWIDTH 1000 0
DWIDTH 16 0
BBX 6 6 1 6
BITMAP
30
30
48
48
84
84
ENDCHAR
STARTCHAR 005F
ENCODING 95
SWIDTH 1000 0
DWIDTH 16 0
BBX 8 1 0 -2
BITMAP
FF
ENDCHAR
STARTCHAR 0060
ENCODING 96
SWIDTH 1000 0
DWIDTH 16 0
BBX 4 3 2 9
BITMAP
C0
60
30
ENDCHAR
STARTCHAR 0061
ENCODING 97
SWIDTH 1000 0
DWIDTH 16 0
BBX 6 9 1 -1
BITMAP
78
0C
04
3C
C4
84
8C
8C
74
ENDCHAR
STARTCHAR 0062
ENCODING 98
SWIDTH 1000 0
DWIDTH 16 0
BBX 6 13 1 -1
BITMAP
80
80
80
80
B0
C8
84
84
84
84
8C
C8
B0
ENDCHAR
STARTCHAR 0063
ENCODING 99
SWIDTH 1000 0
DWIDTH 16 0
BBX 6 9 1 -1
BITMAP
3C
40
80
80
80
80
80
40
3C
ENDCHAR
STARTCHAR 0064
ENCODING 100
SWIDTH 1000 0
DWIDTH 16 0
BBX 6 13 1 -1
BITMAP
04
04
04
04
74
4C
84
84
84
84
84
4C
74
ENDCHAR
STARTCHAR 0065
ENCODING 101
SWIDTH 1000 0
DWIDTH 16 0
BBX 7 9 1 -1
BITMAP
38
44
82
82
FE
80
80
40
3C
ENDCHAR
STARTCHAR 0066
ENCODING 102
SWIDTH 1000 0
DWIDTH 16 0
BBX 6 13 1 -1
BITMAP
1C
20
20
20
20
FC
20
20
20
20
20
20
20
ENDCHAR
STARTCHAR 0067
ENCODING 103
SWIDTH 1000 0
DWIDTH 16 0
BBX 6 11 1 -3
BITMAP
74
4C
84
84
84
84
84
CC
74
88
70
ENDCHAR
STARTCHAR 0068
ENCODING 104
SWIDTH 1000 0
DWIDTH 16 0
BBX 6 13 1 -1
BITMAP
80
80
80
80
B8
C8
84
84
84
84
84
84
84
ENDCHAR
STARTCHAR 0069
ENCODING 105
SWIDTH 1000 0
DWIDTH 16 0
BBX 6 13 1 -1
BITMAP
20
20
00
00
E0
20
20
20
20
20
20
20
FC
ENDCHAR
STARTCHAR 006A
ENCODING 106
SWIDTH 1000 0
DWIDTH 16 0
BBX 5 15 1 -3
BITMAP
18
18
00
00
78
08
08
08
08
08
08
88
88
88
70
ENDCHAR
STARTCHAR 006B
ENCODING 107
SWIDTH 1000 0
DWIDTH 16 0
BBX 6 13 2 -1
BITMAP
80
80
80
80
88
98
90
A0
E0
F0
90
88
8C
ENDCHAR
STARTCHAR 006C
ENCODING 108
SWIDTH 1000 0
DWIDTH 16 0
BBX 6 13 1 -1
BITMAP
70
10
10
10
10
10
10
10
10
10
10
10
FC
ENDCHAR
STARTCHAR 006D
ENCODING 109
SWIDTH 1000 0
DWIDTH 16 0
BBX 7 9 1 -1
BITMAP
EC
B2
92
92
92
92
92
92
92
ENDCHAR
STARTCHAR 006E
ENCODING 110
SWIDTH 1000 0
DWIDTH 16 0
BBX 6 9 1 -1
BITMAP
B8
CC
84
84
84
84
84
84
84
ENDCHAR
STARTCHAR 006F
ENCODING 111
SWIDTH 1000 0
DWIDTH 16 0
BBX 7 9 1 -1
BITMAP
38
44
86
82
82
82
86
44
38
ENDCHAR
STARTCHAR 0070
ENCODING 112
SWIDTH 1000 0
DWIDTH 16 0
BBX 6 11 1 -3
BITMAP
B0
C8
8C
84
84
84
84
C8
B0
80
80
ENDCHAR
STARTCHAR 0071
ENCODING 113
SWIDTH 1000 0
DWIDTH 16 0
BBX 6 11 1 -3
BITMAP
74
4C
84
84
84
84
84
4C
74
04
04
ENDCHAR
STARTCHAR 0072
ENCODING 114
SWIDTH 1000 0
DWIDTH 16 0
BBX 7 9 0 -1
BITMAP
EE
30
20
20
20
20
20
20
78
ENDCHAR
STARTCHAR 0073
ENCODING 115
SWIDTH 1000 0
DWIDTH 16 0
BBX 6 9 1 -1
BITMAP
78
80
80
C0
30
0C
04
0C
F8
ENDCHAR
STARTCHAR 0074
ENCODING 116
SWIDTH 1000 0
DWIDTH 16 0
BBX 6 11 1 -1
BITMAP
20
20
20
FC
20
20
20
20
20
20
3C
ENDCHAR
STARTCHAR 0075
ENCODING 117
SWIDTH 1000 0
DWIDTH 16 0
BBX 6 9 1 -1
BITMAP
84
84
84
84
84
84
8C
CC
74
ENDCHAR
STARTCHAR 0076
ENCODING 118
SWIDTH 1000 0
DWIDTH 16 0
BBX 6 9 1 -1
BITMAP
84
84
8C
48
48
48
30
30
30
ENDCHAR
STARTCHAR 0077
ENCODING 119
SWIDTH 1000 0
DWIDTH 16 0
BBX 7 9 0 -1
BITMAP
C2
5A
5A
5A
5A
6A
6C
64
24
ENDCHAR
STARTCHAR 0078
ENCODING 120
SWIDTH 1000 0
DWIDTH 16 0
BBX 6 9 1 -1
BITMAP
84
48
78
30
30
30
48
CC
84
ENDCHAR
STARTCHAR 0079
ENCODING 121
SWIDTH 1000 0
DWIDTH 16 0
BBX 6 11 1 -3
BITMAP
84
84
48
48
48
30
30
30
20
20
C0
ENDCHAR
STARTCHAR 007A
ENCODING 122
SWIDTH 1000 0
DWIDTH 16 0
BBX 6 9 1 -1
BITMAP
FC
0C
08
10
30
20
40
80
FC
ENDCHAR
STARTCHAR 007B
ENCODING 123
SWIDTH 1000 0
DWIDTH 16 0
BBX 5 16 1 -3
BITMAP
18
20
20
20
20
20
20
40
C0
20
20
20
20
20
20
38
ENDCHAR
STARTCHAR 007C
ENCODING 124
SWIDTH 1000 0
DWIDTH 16 0
BBX 1 15 4 -3
BITMAP
80
80
80
80
80
80
80
00
80
80
80
80
80
80
80
ENDCHAR
STARTCHAR 007D
ENCODING 125
SWIDTH 1000 0
DWIDTH 16 0
BBX 4 16 2 -3
BITMAP
C0
20
20
20
20
20
20
10
10
20
20
20
20
20
20
C0
ENDCHAR
STARTCHAR 007E
ENCODING 126
SWIDTH 1000 0
DWIDTH 16 0
BBX 8 2 0 4
BITMAP
71
8E
ENDCHAR
STARTCHAR 00A0
ENCODING 160
SWIDTH 1000 0
DWIDTH 16 0
BBX 0 0 0 0
BITMAP
ENDCHAR
STARTCHAR 00A1
ENCODING 161
SWIDTH 1000 0
DWIDTH 16 0
BBX 1 13 8 -1
BITMAP
80
80
00
00
80
80
80
80
80
80
80
80
80
ENDCHAR
STARTCHAR 00A4
ENCODING 164
SWIDTH 1000 0
DWIDTH 16 0
BBX 12 12 2 -1
BITMAP
8F10
50A0
2040
4040
4020
4020
4020
4040
2040
30C0
4F20
8010
ENDCHAR
STARTCHAR 00A7
ENCODING 167
SWIDTH 1000 0
DWIDTH 16 0
BBX 4 14 6 -3
BITMAP
60
90
80
80
40
E0
A0
90
50
30
20
10
90
E0
ENDCHAR
STARTCHAR 00A8
ENCODING 168
SWIDTH 1000 0
DWIDTH 16 0
BBX 6 2 5 10
BITMAP
CC
CC
ENDCHAR
STARTCHAR 00A9
ENCODING 169
SWIDTH 1000 0
DWIDTH 16 0
BBX 12 13 2 -1
BITMAP
1F00
30C0
4E60
D120
A190
A010
A010
A010
A190
D120
4E60
30C0
1F00
ENDCHAR
STARTCHAR 00AA
ENCODING 170
SWIDTH 1000 0
DWIDTH 16 0
BBX 5 8 6 4
BITMAP
60
90
10
F0
90
F8
00
F8
ENDCHAR
STARTCHAR 00AB
ENCODING 171
SWIDTH 1000 0
DWIDTH 16 0
BBX 11 12 2 -1
BITMAP
0100
0260
0C80
1300
2400
C800
8800
6400
1300
0C80
0260
0100
ENDCHAR
STARTCHAR 00AE
ENCODING 174
SWIDTH 1000 0
DWIDTH 16 0
BBX 13 14 2 -1
BITMAP
0F80
38C0
6020
4F10
8998
8888
8888
8F08
8B08
8918
4890
6020
3040
0F80
ENDCHAR
STARTCHAR 00B0
ENCODING 176
SWIDTH 1000 0
DWIDTH 16 0
BBX 4 4 6 7
BITMAP
60
90
90
E0
ENDCHAR
STARTCHAR 00B1
ENCODING 177
SWIDTH 1000 0
DWIDTH 16 0
BBX 8 11 5 -1
BITMAP
08
08
08
08
FF
08
08
08
08
00
FF
ENDCHAR
STARTCHAR 00B2
ENCODING 178
SWIDTH 1000 0
DWIDTH 16 0
BBX 3 4 7 7
BITMAP
E0
20
C0
E0
ENDCHAR
STARTCHAR 00B3
ENCODING 179
SWIDTH 1000 0
DWIDTH 16 0
BBX 3 5 7 7
BITMAP
E0
20
40
20
E0
ENDCHAR
STARTCHAR 00B4
ENCODING 180
SWIDTH 1000 0
DWIDTH 16 0
BBX 3 4 6 9
BITMAP
20
20
40
80
ENDCHAR
STARTCHAR 00B6
ENCODING 182
SWIDTH 1000 0
DWIDTH 16 0
BBX 8 14 4 -3
BITMAP
3F
79
F9
F9
F9
79
39
09
09
09
09
09
09
09
ENDCHAR
STARTCHAR 00B7
ENCODING 183
SWIDTH 1000 0
DWIDTH 16 0
BBX 2 2 7 5
BITMAP
C0
C0
ENDCHAR
STARTCHAR 00B8
ENCODING 184
SWIDTH 1000 0
DWIDTH 16 0
BBX 3 3 7 -2
BITMAP
C0
20
E0
ENDCHAR
STARTCHAR 00B9
ENCODING 185
SWIDTH 1000 0
DWIDTH 16 0
BBX 1 4 8 8
BITMAP
80
80
80
80
ENDCHAR
STARTCHAR 00BA
ENCODING 186
SWIDTH 1000 0
DWIDTH 16 0
BBX 5 8 6 4
BITMAP
70
D0
88
88
88
98
70
F8
ENDCHAR
STARTCHAR 00BB
ENCODING 187
SWIDTH 1000 0
DWIDTH 16 0
BBX 11 12 2 -1
BITMAP
8000
4C00
3200
0980
0440
0320
0120
0640
0980
3200
4C00
8000
ENDCHAR
STARTCHAR 00BC
ENCODING 188
SWIDTH 1000 0
DWIDTH 16 0
BBX 9 14 4 -2
BITMAP
4000
C000
4100
4200
4200
4400
0800
1000
2100
4700
8500
0F80
0100
0100
ENDCHAR
STARTCHAR 00BD
ENCODING 189
SWIDTH 1000 0
DWIDTH 16 0
BBX 10 14 3 -3
BITMAP
2000
6000
2080
2100
2100
2200
0400
0980
1240
2240
4080
8100
0200
03C0
ENDCHAR
STARTCHAR 00BE
ENCODING 190
SWIDTH 1000 0
DWIDTH 16 0
BBX 10 14 4 -2
BITMAP
E000
9000
2040
1080
9100
E200
0400
0800
1100
2300
4500
0780
0100
0100
ENDCHAR
STARTCHAR 00BF
ENCODING 191
SWIDTH 1000 0
DWIDTH 16 0
BBX 6 13 5 -1
BITMAP
10
00
00
10
30
20
40
C0
80
80
80
C0
7C
ENDCHAR
STARTCHAR 00C6
ENCODING 198
SWIDTH 1000 0
DWIDTH 16 0
BBX 11 13 3 -1
BITMAP
0FE0
0C00
1400
1400
1400
2400
27E0
6400
7C00
4400
C400
8400
87E0
ENDCHAR
STARTCHAR 00D0
ENCODING 208
SWIDTH 1000 0
DWIDTH 16 0
BBX 11 13 3 -1
BITMAP
3F00
2080
2040
2060
2020
2020
F820
2020
2020
2060
2040
2080
3F00
ENDCHAR
STARTCHAR 00D7
ENCODING 215
SWIDTH 1000 0
DWIDTH 16 0
BBX 8 8 4 2
BITMAP
C3
46
2C
18
38
24
42
81
ENDCHAR
STARTCHAR 00D8
ENCODING 216
SWIDTH 1000 0
DWIDTH 16 0
BBX 10 15 3 -3
BITMAP
0080
1E80
6100
4280
C280
8440
8440
8840
8840
9040
9080
6080
2100
5E00
4000
ENDCHAR
STARTCHAR 00DE
ENCODING 222
SWIDTH 1000 0
DWIDTH 16 0
BBX 6 13 5 -1
BITMAP
80
80
80
E0
98
8C
84
84
8C
98
F0
80
80
ENDCHAR
STARTCHAR 00DF
ENCODING 223
SWIDTH 1000 0
DWIDTH 16 0
BBX 9 14 4 -3
BITMAP
FE00
8300
8100
8100
8100
8200
FC00
8300
8180
8080
8080
A080
A100
1E00
ENDCHAR
STARTCHAR 00E6
ENCODING 230
SWIDTH 1000 0
DWIDTH 16 0
BBX 12 9 2 -1
BITMAP
79C0
CE20
8410
0410
7FF0
C400
8410
8A20
71C0
ENDCHAR
STARTCHAR 00F0
ENCODING 240
SWIDTH 1000 0
DWIDTH 16 0
BBX 8 12 4 0
BITMAP
1C
0C
06
3E
47
83
81
81
81
83
46
3C
ENDCHAR
STARTCHAR 00F7
ENCODING 247
SWIDTH 1000 0
DWIDTH 16 0
BBX 9 9 4 1
BITMAP
0C00
0C00
0000
0000
FF80
0000
0000
0C00
0C00
ENDCHAR
STARTCHAR 00F8
ENCODING 248
SWIDTH 1000 0
DWIDTH 16 0
BBX 8 11 4 -3
BITMAP
02
3C
46
8B
89
91
91
A3
66
3C
40
ENDCHAR
STARTCHAR 00FE
ENCODING 254
SWIDTH 1000 0
DWIDTH 16 0
BBX 7 14 5 -2
BITMAP
80
80
80
80
F8
84
86
82
82
82
86
84
F8
80
ENDCHAR
STARTCHAR 0111
ENCODING 273
SWIDTH 1000 0
DWIDTH 16 0
BBX 8 13 4 -1
BITMAP
02
02
0F
02
3A
46
86
82
82
82
86
46
3A
ENDCHAR
STARTCHAR 0126
ENCODING 294
SWIDTH 1000 0
DWIDTH 16 0
BBX 11 13 3 -1
BITMAP
4040
4040
4040
FFE0
4040
4040
7FC0
4040
4040
4040
4040
4040
4040
ENDCHAR
STARTCHAR 0127
ENCODING 295
SWIDTH 1000 0
DWIDTH 16 0
BBX 8 13 4 -1
BITMAP
20
20
F8
20
2E
33
21
21
21
21
21
21
21
ENDCHAR
STARTCHAR 0131
ENCODING 305
SWIDTH 1000 0
DWIDTH 16 0
BBX 1 9 8 -1
BITMAP
80
80
80
80
80
80
80
80
80
ENDCHAR
STARTCHAR 0132
ENCODING 306
SWIDTH 1000 0
DWIDTH 16 0
BBX 8 13 4 -1
BITMAP
81
81
81
81
81
81
81
81
81
A1
A1
B2
9E
ENDCHAR
STARTCHAR 0133
ENCODING 307
SWIDTH 1000 0
DWIDTH 16 0
BBX 4 15 6 -3
BITMAP
90
90
00
00
90
90
90
90
90
90
90
90
90
10
30
ENDCHAR
STARTCHAR 0138
ENCODING 312
SWIDTH 1000 0
DWIDTH 16 0
BBX 7 9 5 -1
BITMAP
84
88
90
A0
D0
98
88
84
86
ENDCHAR
STARTCHAR 013F
ENCODING 319
SWIDTH 1000 0
DWIDTH 16 0
BBX 7 13 5 -1
BITMAP
80
80
80
80
80
88
88
80
80
80
80
80
FE
ENDCHAR
STARTCHAR 0140
ENCODING 320
SWIDTH 1000 0
DWIDTH 16 0
BBX 4 13 6 -1
BITMAP
80
80
80
80
80
80
90
80
80
80
80
80
80
ENDCHAR
STARTCHAR 0141
ENCODING 321
SWIDTH 1000 0
DWIDTH 16 0
BBX 10 13 3 -1
BITMAP
1000
1000
1200
1600
1C00
1800
1000
3000
5000
9000
1000
1000
1FC0
ENDCHAR
STARTCHAR 0142
ENCODING 322
SWIDTH 1000 0
DWIDTH 16 0
BBX 5 13 6 -1
BITMAP
20
20
20
28
30
20
60
A0
A0
20
20
20
20
ENDCHAR
STARTCHAR 0149
ENCODING 329
SWIDTH 1000 0
DWIDTH 16 0
BBX 9 11 4 -1
BITMAP
C000
4000
6F00
B180
2080
2080
2080
2080
2080
2080
2080
ENDCHAR
STARTCHAR 014A
ENCODING 330
SWIDTH 1000 0
DWIDTH 16 0
BBX 9 15 4 -3
BITMAP
8080
C080
E080
A080
9080
9080
8880
8C80
8480
8280
8380
8180
8080
0880
0700
ENDCHAR
STARTCHAR 014B
ENCODING 331
SWIDTH 1000 0
DWIDTH 16 0
BBX 6 11 5 -3
BITMAP
B8
CC
84
84
84
84
84
84
84
04
38
ENDCHAR
STARTCHAR 0152
ENCODING 338
SWIDTH 1000 0
DWIDTH 16 0
BBX 12 13 2 -1
BITMAP
3FF0
6200
4200
8200
8200
8200
83F0
8200
8200
8200
4200
6200
1FF0
ENDCHAR
STARTCHAR 0153
ENCODING 339
SWIDTH 1000 0
DWIDTH 16 0
BBX 13 9 2 -1
BITMAP
38E0
4510
8608
8208
83F8
8200
8208
4510
38E0
ENDCHAR
STARTCHAR 0166
ENCODING 358
SWIDTH 1000 0
DWIDTH 16 0
BBX 9 13 4 -1
BITMAP
FF80
0800
0800
0800
0800
0800
0800
3E00
0800
0800
0800
0800
0800
ENDCHAR
STARTCHAR 0167
ENCODING 359
SWIDTH 1000 0
DWIDTH 16 0
BBX 5 12 6 -1
BITMAP
20
20
20
F8
20
70
20
20
20
20
20
38
ENDCHAR
STARTCHAR 02BC
ENCODING 700
SWIDTH 1000 0
DWIDTH 16 0
BBX 2 4 7 7
BITMAP
C0
C0
40
80
ENDCHAR
STARTCHAR 02C7
ENCODING 711
SWIDTH 1000 0
DWIDTH 16 0
BBX 6 2 5 10
BITMAP
84
78
ENDCHAR
STARTCHAR 02D8
ENCODING 728
SWIDTH 1000 0
DWIDTH 16 0
BBX 6 2 5 10
BITMAP
84
78
ENDCHAR
STARTCHAR 02D9
ENCODING 729
SWIDTH 1000 0
DWIDTH 16 0
BBX 2 2 7 9
BITMAP
C0
C0
ENDCHAR
STARTCHAR 02DA
ENCODING 730
SWIDTH 1000 0
DWIDTH 16 0
BBX 4 4 6 7
BITMAP
60
90
90
E0
ENDCHAR
STARTCHAR 02DB
ENCODING 731
SWIDTH 1000 0
DWIDTH 16 0
BBX 3 3 7 -2
BITMAP
80
A0
C0
ENDCHAR
STARTCHAR 02DC
ENCODING 732
SWIDTH 1000 0
DWIDTH 16 0
BBX 6 2 5 9
BITMAP
E0
1C
ENDCHAR
STARTCHAR 02DD
ENCODING 733
SWIDTH 1000 0
DWIDTH 16 0
BBX 6 4 5 9
BITMAP
2C
48
50
90
ENDCHAR
STARTCHAR 0391
ENCODING 913
SWIDTH 1000 0
DWIDTH 16 0
BBX 10 13 3 -1
BITMAP
0C00
0C00
0C00
1200
1200
1200
2100
2100
3F00
4080
4080
4080
8040
ENDCHAR
STARTCHAR 0392
ENCODING 914
SWIDTH 1000 0
DWIDTH 16 0
BBX 9 13 4 -1
BITMAP
FE00
8300
8100
8100
8100
8200
FC00
8300
8080
8080
8080
8100
FE00
ENDCHAR
STARTCHAR 0393
ENCODING 915
SWIDTH 1000 0
DWIDTH 16 0
BBX 7 13 4 -1
BITMAP
FE
80
80
80
80
80
80
80
80
80
80
80
80
ENDCHAR
STARTCHAR 0394
ENCODING 916
SWIDTH 1000 0
DWIDTH 16 0
BBX 10 13 3 -1
BITMAP
0C00
0C00
0C00
1200
1200
1200
2100
2100
2100
4080
4080
4080
FFC0
ENDCHAR
STARTCHAR 0395
ENCODING 917
SWIDTH 1000 0
DWIDTH 16 0
BBX 7 13 4 -1
BITMAP
FE
80
80
80
80
80
FE
80
80
80
80
80
FE
ENDCHAR
STARTCHAR 0396
ENCODING 918
SWIDTH 1000 0
DWIDTH 16 0
BBX 9 13 4 -1
BITMAP
FF80
0100
0300
0200
0400
0C00
0800
1000
3000
2000
4000
C000
FF80
ENDCHAR
STARTCHAR 0397
ENCODING 919
SWIDTH 1000 0
DWIDTH 16 0
BBX 9 13 4 -1
BITMAP
8080
8080
8080
8080
8080
8080
FF80
8080
8080
8080
8080
8080
8080
ENDCHAR
STARTCHAR 0398
ENCODING 920
SWIDTH 1000 0
DWIDTH 16 0
BBX 10 13 3 -1
BITMAP
1E00
6100
4080
C080
8040
8040
BF40
8040
8040
C080
4080
6100
1E00
ENDCHAR
STARTCHAR 0399
ENCODING 921
SWIDTH 1000 0
DWIDTH 16 0
BBX 1 13 8 -1
BITMAP
80
80
80
80
80
80
80
80
80
80
80
80
80
ENDCHAR
STARTCHAR 039A
ENCODING 922
SWIDTH 1000 0
DWIDTH 16 0
BBX 8 13 4 -1
BITMAP
81
82
84
88
90
B0
F0
C8
8C
84
82
83
81
ENDCHAR
STARTCHAR 039B
ENCODING 923
SWIDTH 1000 0
DWIDTH 16 0
BBX 10 13 3 -1
BITMAP
0C00
0C00
0C00
1200
1200
1200
2100
2100
2100
4080
4080
4080
8040
ENDCHAR
STARTCHAR 039C
ENCODING 924
SWIDTH 1000 0
DWIDTH 16 0
BBX 11 13 3 -1
BITMAP
C060
C060
C0E0
A0A0
A0A0
A1A0
9120
9120
9320
8A20
8A20
8C20
8420
ENDCHAR
STARTCHAR 039D
ENCODING 925
SWIDTH 1000 0
DWIDTH 16 0
BBX 9 13 4 -1
BITMAP
8080
C080
E080
A080
B080
9080
8880
8C80
8480
8280
8380
8180
8180
ENDCHAR
STARTCHAR 039E
ENCODING 926
SWIDTH 1000 0
DWIDTH 16 0
BBX 10 13 3 -1
BITMAP
FFC0
0000
0000
0000
0000
0000
3F00
0000
0000
0000
0000
0000
FFC0
ENDCHAR
STARTCHAR 039F
ENCODING 927
SWIDTH 1000 0
DWIDTH 16 0
BBX 10 13 3 -1
BITMAP
1E00
6100
4080
C080
8040
8040
8040
8040
8040
C080
4080
6100
1E00
ENDCHAR
STARTCHAR 03A0
ENCODING 928
SWIDTH 1000 0
DWIDTH 16 0
BBX 8 13 4 -1
BITMAP
FF
81
81
81
81
81
81
81
81
81
81
81
81
ENDCHAR
STARTCHAR 03A1
ENCODING 929
SWIDTH 1000 0
DWIDTH 16 0
BBX 8 13 4 -1
BITMAP
FC
82
81
81
81
81
82
FE
80
80
80
80
80
ENDCHAR
STARTCHAR 03A3
ENCODING 931
SWIDTH 1000 0
DWIDTH 16 0
BBX 8 13 4 -1
BITMAP
FF
C0
60
20
10
08
08
10
30
20
40
C0
FF
ENDCHAR
STARTCHAR 03A4
ENCODING 932
SWIDTH 1000 0
DWIDTH 16 0
BBX 9 13 4 -1
BITMAP
FF80
0800
0800
0800
0800
0800
0800
0800
0800
0800
0800
0800
0800
ENDCHAR
STARTCHAR 03A5
ENCODING 933
SWIDTH 1000 0
DWIDTH 16 0
BBX 9 13 4 -1
BITMAP
8080
4100
4100
2200
2600
1400
1C00
0800
0800
0800
0800
0800
0800
ENDCHAR
STARTCHAR 03A6
ENCODING 934
SWIDTH 1000 0
DWIDTH 16 0
BBX 11 13 3 -1
BITMAP
0400
0400
0400
1F00
64C0
C460
8420
8420
8460
44C0
3F80
0400
0400
ENDCHAR
STARTCHAR 03A7
ENCODING 935
SWIDTH 1000 0
DWIDTH 16 0
BBX 8 13 4 -1
BITMAP
81
43
42
24
3C
18
18
18
24
66
42
C3
81
ENDCHAR
STARTCHAR 03A8
ENCODING 936
SWIDTH 1000 0
DWIDTH 16 0
BBX 11 13 3 -1
BITMAP
0400
8420
4440
4440
4440
4440
4440
4440
6480
1F00
0400
0400
0400
ENDCHAR
STARTCHAR 03A9
ENCODING 937
SWIDTH 1000 0
DWIDTH 16 0
BBX 9 13 4 -1
BITMAP
3C00
6300
C100
8080
8080
8080
8080
C100
6300
3400
9480
9480
F780
ENDCHAR
STARTCHAR 03B1
ENCODING 945
SWIDTH 1000 0
DWIDTH 16 0
BBX 7 9 5 -1
BITMAP
72
CC
8C
8C
8C
88
88
CE
76
ENDCHAR
STARTCHAR 03B2
ENCODING 946
SWIDTH 1000 0
DWIDTH 16 0
BBX 6 15 5 -3
BITMAP
70
88
84
84
84
8C
B8
8C
84
84
84
88
F8
80
80
ENDCHAR
STARTCHAR 03B3
ENCODING 947
SWIDTH 1000 0
DWIDTH 16 0
BBX 7 11 5 -3
BITMAP
86
44
28
38
10
38
28
44
44
4C
38
ENDCHAR
STARTCHAR 03B4
ENCODING 948
SWIDTH 1000 0
DWIDTH 16 0
BBX 6 13 5 -1
BITMAP
30
48
40
60
30
78
CC
84
84
84
84
C8
78
ENDCHAR
STARTCHAR 03B5
ENCODING 949
SWIDTH 1000 0
DWIDTH 16 0
BBX 6 9 5 -1
BITMAP
78
84
80
80
70
C0
80
84
78
ENDCHAR
STARTCHAR 03B6
ENCODING 950
SWIDTH 1000 0
DWIDTH 16 0
BBX 6 15 5 -3
BITMAP
F8
10
30
20
40
40
80
80
80
80
40
38
04
04
38
ENDCHAR
STARTCHAR 03B7
ENCODING 951
SWIDTH 1000 0
DWIDTH 16 0
BBX 6 11 5 -4
BITMAP
B0
D8
88
88
88
88
88
88
88
08
0C
ENDCHAR
STARTCHAR 03B8
ENCODING 952
SWIDTH 1000 0
DWIDTH 16 0
BBX 7 13 5 -1
BITMAP
38
44
C4
82
82
82
FE
82
82
82
C4
44
38
ENDCHAR
STARTCHAR 03B9
ENCODING 953
SWIDTH 1000 0
DWIDTH 16 0
BBX 3 9 6 -1
BITMAP
80
80
80
80
80
80
80
A0
E0
ENDCHAR
STARTCHAR 03BA
ENCODING 954
SWIDTH 1000 0
DWIDTH 16 0
BBX 6 9 5 -1
BITMAP
84
88
90
A0
D0
90
88
8C
84
ENDCHAR
STARTCHAR 03BB
ENCODING 955
SWIDTH 1000 0
DWIDTH 16 0
BBX 6 13 5 -1
BITMAP
80
40
40
40
60
20
60
60
70
D0
90
94
8C
ENDCHAR
STARTCHAR 03BC
ENCODING 956
SWIDTH 1000 0
DWIDTH 16 0
BBX 6 11 5 -3
BITMAP
84
84
84
84
84
84
84
CC
F4
80
80
ENDCHAR
STARTCHAR 03BD
ENCODING 957
SWIDTH 1000 0
DWIDTH 16 0
BBX 6 9 5 -1
BITMAP
84
C4
44
48
48
28
28
30
10
ENDCHAR
STARTCHAR 03BE
ENCODING 958
SWIDTH 1000 0
DWIDTH 16 0
BBX 6 15 5 -3
BITMAP
F0
20
40
40
70
70
C0
80
80
80
C0
38
04
04
38
ENDCHAR
STARTCHAR 03BF
ENCODING 959
SWIDTH 1000 0
DWIDTH 16 0
BBX 7 9 5 -1
BITMAP
38
44
86
82
82
82
86
44
38
ENDCHAR
STARTCHAR 03C0
ENCODING 960
SWIDTH 1000 0
DWIDTH 16 0
BBX 7 9 5 -1
BITMAP
FE
28
28
28
28
28
28
2A
CC
ENDCHAR
STARTCHAR 03C1
ENCODING 961
SWIDTH 1000 0
DWIDTH 16 0
BBX 7 11 5 -3
BITMAP
38
44
86
82
82
82
86
C4
B8
80
80
ENDCHAR
STARTCHAR 03C3
ENCODING 963
SWIDTH 1000 0
DWIDTH 16 0
BBX 7 10 5 -1
BITMAP
04
7C
44
82
82
82
82
86
44
38
ENDCHAR
STARTCHAR 03C4
ENCODING 964
SWIDTH 1000 0
DWIDTH 16 0
BBX 6 9 5 -1
BITMAP
FC
20
20
20
20
20
20
28
38
ENDCHAR
STARTCHAR 03C5
ENCODING 965
SWIDTH 1000 0
DWIDTH 16 0
BBX 6 9 5 0
BITMAP
88
88
84
84
84
84
84
8C
78
ENDCHAR
STARTCHAR 03C6
ENCODING 966
SWIDTH 1000 0
DWIDTH 16 0
BBX 7 15 5 -3
BITMAP
10
10
10
38
54
96
92
92
92
92
D4
7C
10
10
10
ENDCHAR
STARTCHAR 03C7
ENCODING 967
SWIDTH 1000 0
DWIDTH 16 0
BBX 6 11 5 -3
BITMAP
C4
64
28
28
30
30
30
70
50
88
8C
ENDCHAR
STARTCHAR 03C8
ENCODING 968
SWIDTH 1000 0
DWIDTH 16 0
BBX 6 11 4 -3
BITMAP
94
54
54
54
54
54
54
54
78
10
10
ENDCHAR
STARTCHAR 03C9
ENCODING 969
SWIDTH 1000 0
DWIDTH 16 0
BBX 7 9 5 0
BITMAP
44
C4
92
92
92
92
92
92
6C
ENDCHAR
STARTCHAR 0401
ENCODING 1025
SWIDTH 1000 0
DWIDTH 16 0
BBX 7 14 4 -1
BITMAP
28
FE
80
80
80
80
80
FC
80
80
80
80
80
FE
ENDCHAR
STARTCHAR 0410
ENCODING 1040
SWIDTH 1000 0
DWIDTH 16 0
BBX 10 13 3 -1
BITMAP
0C00
0C00
0C00
1200
1200
1200
2100
2100
3F00
4080
4080
4080
8040
ENDCHAR
STARTCHAR 0411
ENCODING 1041
SWIDTH 1000 0
DWIDTH 16 0
BBX 9 13 4 -1
BITMAP
FF00
8000
8000
8000
8000
8000
FE00
8100
8080
8080
8080
8100
FE00
ENDCHAR
STARTCHAR 0412
ENCODING 1042
SWIDTH 1000 0
DWIDTH 16 0
BBX 9 13 4 -1
BITMAP
FE00
8300
8100
8100
8100
8200
FC00
8300
8080
8080
8080
8100
FE00
ENDCHAR
STARTCHAR 0413
ENCODING 1043
SWIDTH 1000 0
DWIDTH 16 0
BBX 7 13 4 -1
BITMAP
FE
80
80
80
80
80
80
80
80
80
80
80
80
ENDCHAR
STARTCHAR 0414
ENCODING 1044
SWIDTH 1000 0
DWIDTH 16 0
BBX 10 15 3 -4
BITMAP
1F80
1080
1080
1080
1080
1080
1080
1080
1080
2080
2080
6080
FF80
8040
8040
ENDCHAR
STARTCHAR 0415
ENCODING 1045
SWIDTH 1000 0
DWIDTH 16 0
BBX 7 13 4 -1
BITMAP
FE
80
80
80
80
80
FE
80
80
80
80
80
FE
ENDCHAR
STARTCHAR 0416
ENCODING 1046
SWIDTH 1000 0
DWIDTH 16 0
BBX 13 13 1 -1
BITMAP
C238
3260
1240
1A80
0A80
0A80
0F80
0A80
0A80
1A80
12C0
3260
C238
ENDCHAR
STARTCHAR 0417
ENCODING 1047
SWIDTH 1000 0
DWIDTH 16 0
BBX 7 13 4 -1
BITMAP
38
44
82
82
02
04
18
04
02
82
82
C4
78
ENDCHAR
STARTCHAR 0418
ENCODING 1048
SWIDTH 1000 0
DWIDTH 16 0
BBX 9 13 4 -1
BITMAP
8080
8080
8180
8280
8680
8C80
8880
9080
B080
E080
C080
8080
8080
ENDCHAR
STARTCHAR 0419
ENCODING 1049
SWIDTH 1000 0
DWIDTH 16 0
BBX 9 14 4 0
BITMAP
2400
9880
8080
8180
8280
8680
8C80
8880
9080
B080
E080
C080
8080
8080
ENDCHAR
STARTCHAR 041A
ENCODING 1050
SWIDTH 1000 0
DWIDTH 16 0
BBX 8 13 4 -1
BITMAP
81
82
84
88
90
B0
F0
C8
8C
84
82
83
81
ENDCHAR
STARTCHAR 041B
ENCODING 1051
SWIDTH 1000 0
DWIDTH 16 0
BBX 10 13 3 -2
BITMAP
1FC0
1040
1040
1040
1040
1040
1040
1040
1040
1040
2040
2040
C040
ENDCHAR
STARTCHAR 041C
ENCODING 1052
SWIDTH 1000 0
DWIDTH 16 0
BBX 10 13 3 -1
BITMAP
C0C0
C0C0
C0C0
C140
A140
A140
A240
9240
9240
9440
8C40
8C40
8C40
ENDCHAR
STARTCHAR 041D
ENCODING 1053
SWIDTH 1000 0
DWIDTH 16 0
BBX 8 13 4 -1
BITMAP
81
81
81
81
81
81
FF
81
81
81
81
81
81
ENDCHAR
STARTCHAR 041E
ENCODING 1054
SWIDTH 1000 0
DWIDTH 16 0
BBX 10 13 3 -1
BITMAP
1E00
6100
4080
8080
8040
8040
8040
8040
8040
80C0
4080
6100
1E00
ENDCHAR
STARTCHAR 041F
ENCODING 1055
SWIDTH 1000 0
DWIDTH 16 0
BBX 8 13 4 -1
BITMAP
FF
81
81
81
81
81
81
81
81
81
81
81
81
ENDCHAR
STARTCHAR 0420
ENCODING 1056
SWIDTH 1000 0
DWIDTH 16 0
BBX 8 13 4 -1
BITMAP
FC
82
81
81
81
81
82
FE
80
80
80
80
80
ENDCHAR
STARTCHAR 0421
ENCODING 1057
SWIDTH 1000 0
DWIDTH 16 0
BBX 9 13 3 -1
BITMAP
1E00
6100
4080
8080
8000
8000
8000
8000
8080
8080
4080
6100
1E00
ENDCHAR
STARTCHAR 0422
ENCODING 1058
SWIDTH 1000 0
DWIDTH 16 0
BBX 9 13 4 -1
BITMAP
FF80
0800
0800
0800
0800
0800
0800
0800
0800
0800
0800
0800
0800
ENDCHAR
STARTCHAR 0423
ENCODING 1059
SWIDTH 1000 0
DWIDTH 16 0
BBX 6 13 5 -1
BITMAP
84
84
84
48
48
48
30
30
30
10
20
20
C0
ENDCHAR
STARTCHAR 0424
ENCODING 1060
SWIDTH 1000 0
DWIDTH 16 0
BBX 9 13 3 -1
BITMAP
0800
0800
3E00
4900
8980
8880
8880
8880
8980
4900
3E00
0800
0800
ENDCHAR
STARTCHAR 0425
ENCODING 1061
SWIDTH 1000 0
DWIDTH 16 0
BBX 8 13 4 -1
BITMAP
81
43
42
24
3C
18
18
18
24
66
42
C3
81
ENDCHAR
STARTCHAR 0426
ENCODING 1062
SWIDTH 1000 0
DWIDTH 16 0
BBX 9 15 3 -4
BITMAP
8100
8100
8100
8100
8100
8100
8100
8100
8100
8100
8100
8100
FF00
0080
0080
ENDCHAR
STARTCHAR 0427
ENCODING 1063
SWIDTH 1000 0
DWIDTH 16 0
BBX 6 13 5 -1
BITMAP
84
84
84
84
84
84
84
84
CC
74
04
04
04
ENDCHAR
STARTCHAR 0428
ENCODING 1064
SWIDTH 1000 0
DWIDTH 16 0
BBX 9 13 3 -1
BITMAP
8880
8880
8880
8880
8880
8880
8880
8880
8880
8880
8880
8880
FF80
ENDCHAR
STARTCHAR 0429
ENCODING 1065
SWIDTH 1000 0
DWIDTH 16 0
BBX 10 15 2 -4
BITMAP
8880
8880
8880
8880
8880
8880
8880
8880
8880
8880
8880
8880
FF80
0040
0040
ENDCHAR
STARTCHAR 042A
ENCODING 1066
SWIDTH 1000 0
DWIDTH 16 0
BBX 11 13 2 -1
BITMAP
F000
1000
1000
1000
1000
1000
1F80
1040
1020
1020
1020
1040
1F80
ENDCHAR
STARTCHAR 042B
ENCODING 1067
SWIDTH 1000 0
DWIDTH 16 0
BBX 10 13 3 -1
BITMAP
8040
8040
8040
8040
8040
8040
FC40
8240
8140
8140
8140
8240
FC40
ENDCHAR
STARTCHAR 042C
ENCODING 1068
SWIDTH 1000 0
DWIDTH 16 0
BBX 9 13 4 -1
BITMAP
8000
8000
8000
8000
8000
8000
FE00
8100
8080
8080
8080
8100
FE00
ENDCHAR
STARTCHAR 042D
ENCODING 1069
SWIDTH 1000 0
DWIDTH 16 0
BBX 10 13 3 -1
BITMAP
1E00
6100
4080
C080
0040
0040
1FC0
0040
0040
80C0
4080
6100
1E00
ENDCHAR
STARTCHAR 042E
ENCODING 1070
SWIDTH 1000 0
DWIDTH 16 0
BBX 11 13 2 -1
BITMAP
8780
8CC0
9840
9060
9020
9020
F020
9020
9020
9060
9840
8CC0
8780
ENDCHAR
STARTCHAR 042F
ENCODING 1071
SWIDTH 1000 0
DWIDTH 16 0
BBX 8 13 4 -1
BITMAP
7F
C1
81
81
81
81
41
3F
C1
81
81
81
81
ENDCHAR
STARTCHAR 0430
ENCODING 1072
SWIDTH 1000 0
DWIDTH 16 0
BBX 8 9 4 -1
BITMAP
7C
C6
82
06
3A
C2
82
86
7B
ENDCHAR
STARTCHAR 0431
ENCODING 1073
SWIDTH 1000 0
DWIDTH 16 0
BBX 8 12 4 0
BITMAP
04
18
60
7C
C6
83
81
81
81
83
46
3C
ENDCHAR
STARTCHAR 0432
ENCODING 1074
SWIDTH 1000 0
DWIDTH 16 0
BBX 8 9 4 -1
BITMAP
FE
82
82
82
FC
83
81
83
FE
ENDCHAR
STARTCHAR 0433
ENCODING 1075
SWIDTH 1000 0
DWIDTH 16 0
BBX 6 9 5 -1
BITMAP
FC
80
80
80
80
80
80
80
80
ENDCHAR
STARTCHAR 0434
ENCODING 1076
SWIDTH 1000 0
DWIDTH 16 0
BBX 10 11 3 -4
BITMAP
1F80
1080
1080
1080
1080
3080
2080
2080
FF80
8040
8040
ENDCHAR
STARTCHAR 0435
ENCODING 1077
SWIDTH 1000 0
DWIDTH 16 0
BBX 7 9 5 -1
BITMAP
38
44
84
82
FE
80
82
44
38
ENDCHAR
STARTCHAR 0436
ENCODING 1078
SWIDTH 1000 0
DWIDTH 16 0
BBX 11 9 3 -1
BITMAP
C460
2480
3500
1500
1F00
1500
3500
2480
C460
ENDCHAR
STARTCHAR 0437
ENCODING 1079
SWIDTH 1000 0
DWIDTH 16 0
BBX 7 9 4 -1
BITMAP
7C
C6
82
06
18
06
82
C6
7C
ENDCHAR
STARTCHAR 0438
ENCODING 1080
SWIDTH 1000 0
DWIDTH 16 0
BBX 7 9 5 -1
BITMAP
82
86
86
8A
92
A2
C2
82
82
ENDCHAR
STARTCHAR 0439
ENCODING 1081
SWIDTH 1000 0
DWIDTH 16 0
BBX 7 12 5 0
BITMAP
48
38
00
82
86
86
8A
92
A2
C2
82
82
ENDCHAR
STARTCHAR 043A
ENCODING 1082
SWIDTH 1000 0
DWIDTH 16 0
BBX 7 9 5 -1
BITMAP
84
88
90
A0
D0
98
88
84
86
ENDCHAR
STARTCHAR 043B
ENCODING 1083
SWIDTH 1000 0
DWIDTH 16 0
BBX 8 9 4 -2
BITMAP
3F
21
21
21
21
21
41
41
81
ENDCHAR
STARTCHAR 043C
ENCODING 1084
SWIDTH 1000 0
DWIDTH 16 0
BBX 10 9 3 -1
BITMAP
C0C0
C0C0
C140
A140
A340
9240
9640
8C40
8C40
ENDCHAR
STARTCHAR 043D
ENCODING 1085
SWIDTH 1000 0
DWIDTH 16 0
BBX 8 9 4 -1
BITMAP
81
81
81
81
FF
81
81
81
81
ENDCHAR
STARTCHAR 043E
ENCODING 1086
SWIDTH 1000 0
DWIDTH 16 0
BBX 8 9 4 -1
BITMAP
3C
46
83
81
81
81
83
46
3C
ENDCHAR
STARTCHAR 043F
ENCODING 1087
SWIDTH 1000 0
DWIDTH 16 0
BBX 7 9 4 -1
BITMAP
FE
82
82
82
82
82
82
82
82
ENDCHAR
STARTCHAR 0440
ENCODING 1088
SWIDTH 1000 0
DWIDTH 16 0
BBX 7 11 4 -3
BITMAP
B8
C4
86
82
82
82
86
C4
B8
80
80
ENDCHAR
STARTCHAR 0441
ENCODING 1089
SWIDTH 1000 0
DWIDTH 16 0
BBX 7 9 5 -1
BITMAP
38
44
82
80
80
80
82
46
3C
ENDCHAR
STARTCHAR 0442
ENCODING 1090
SWIDTH 1000 0
DWIDTH 16 0
BBX 7 9 5 -1
BITMAP
FE
10
10
10
10
10
10
10
10
ENDCHAR
STARTCHAR 0443
ENCODING 1091
SWIDTH 1000 0
DWIDTH 16 0
BBX 6 11 5 -3
BITMAP
84
84
84
48
48
28
30
30
10
20
E0
ENDCHAR
STARTCHAR 0444
ENCODING 1092
SWIDTH 1000 0
DWIDTH 16 0
BBX 11 15 3 -3
BITMAP
0400
0400
0400
0400
3F80
44C0
8460
8420
8420
8420
8460
44C0
3F80
0400
0400
ENDCHAR
STARTCHAR 0445
ENCODING 1093
SWIDTH 1000 0
DWIDTH 16 0
BBX 6 9 5 -1
BITMAP
84
48
48
30
30
30
48
84
84
ENDCHAR
STARTCHAR 0446
ENCODING 1094
SWIDTH 1000 0
DWIDTH 16 0
BBX 8 11 4 -4
BITMAP
82
82
82
82
82
82
82
82
FE
01
01
ENDCHAR
STARTCHAR 0447
ENCODING 1095
SWIDTH 1000 0
DWIDTH 16 0
BBX 6 9 5 -1
BITMAP
84
84
84
84
84
8C
74
04
04
ENDCHAR
STARTCHAR 0448
ENCODING 1096
SWIDTH 1000 0
DWIDTH 16 0
BBX 9 9 3 -1
BITMAP
8880
8880
8880
8880
8880
8880
8880
8880
FF80
ENDCHAR
STARTCHAR 0449
ENCODING 1097
SWIDTH 1000 0
DWIDTH 16 0
BBX 10 11 3 -4
BITMAP
8880
8880
8880
8880
8880
8880
8880
8880
FF80
0040
0040
ENDCHAR
STARTCHAR 044A
ENCODING 1098
SWIDTH 1000 0
DWIDTH 16 0
BBX 9 9 4 -1
BITMAP
E000
2000
2000
2000
3F00
2180
2080
2180
3F00
ENDCHAR
STARTCHAR 044B
ENCODING 1099
SWIDTH 1000 0
DWIDTH 16 0
BBX 9 9 4 -1
BITMAP
8080
8080
8080
8080
F880
8C80
8480
8480
F880
ENDCHAR
STARTCHAR 044C
ENCODING 1100
SWIDTH 1000 0
DWIDTH 16 0
BBX 7 9 5 -1
BITMAP
80
80
80
80
FC
86
82
82
FC
ENDCHAR
STARTCHAR 044D
ENCODING 1101
SWIDTH 1000 0
DWIDTH 16 0
BBX 7 9 5 -1
BITMAP
78
C4
86
02
3E
02
82
C4
78
ENDCHAR
STARTCHAR 044E
ENCODING 1102
SWIDTH 1000 0
DWIDTH 16 0
BBX 10 9 3 -1
BITMAP
8700
8880
90C0
9040
F040
9040
9040
9880
8F00
ENDCHAR
STARTCHAR 044F
ENCODING 1103
SWIDTH 1000 0
DWIDTH 16 0
BBX 7 9 5 -1
BITMAP
7E
82
82
82
7E
C2
82
82
82
ENDCHAR
STARTCHAR 0451
ENCODING 1105
SWIDTH 1000 0
DWIDTH 16 0
BBX 7 12 5 -1
BITMAP
48
00
00
38
44
84
82
FE
80
82
44
38
ENDCHAR
STARTCHAR 2010
ENCODING 8208
SWIDTH 1000 0
DWIDTH 16 0
BBX 6 1 5 4
BITMAP
FC
ENDCHAR
STARTCHAR 2013
ENCODING 8211
SWIDTH 1000 0
DWIDTH 16 0
BBX 4 1 6 4
BITMAP
F0
ENDCHAR
STARTCHAR 2014
ENCODING 8212
SWIDTH 1000 0
DWIDTH 16 0
BBX 14 1 1 4
BITMAP
FFFC
ENDCHAR
STARTCHAR 2016
ENCODING 8214
SWIDTH 1000 0
DWIDTH 16 0
BBX 4 16 6 -3
BITMAP
90
90
90
90
90
90
90
90
90
90
90
90
90
90
90
90
ENDCHAR
STARTCHAR 2018
ENCODING 8216
SWIDTH 1000 0
DWIDTH 16 0
BBX 2 4 7 9
BITMAP
40
80
C0
C0
ENDCHAR
STARTCHAR 2019
ENCODING 8217
SWIDTH 1000 0
DWIDTH 16 0
BBX 2 4 7 7
BITMAP
C0
C0
40
80
ENDCHAR
STARTCHAR 201B
ENCODING 8219
SWIDTH 1000 0
DWIDTH 16 0
BBX 2 4 7 7
BITMAP
C0
C0
80
40
ENDCHAR
STARTCHAR 201C
ENCODING 8220
SWIDTH 1000 0
DWIDTH 16 0
BBX 4 4 6 9
BITMAP
50
A0
F0
F0
ENDCHAR
STARTCHAR 201D
ENCODING 8221
SWIDTH 1000 0
DWIDTH 16 0
BBX 4 4 6 7
BITMAP
F0
F0
50
A0
ENDCHAR
STARTCHAR 201F
ENCODING 8223
SWIDTH 1000 0
DWIDTH 16 0
BBX 4 4 6 7
BITMAP
F0
F0
A0
50
ENDCHAR
STARTCHAR 2020
ENCODING 8224
SWIDTH 1000 0
DWIDTH 16 0
BBX 7 11 5 0
BITMAP
10
10
10
FE
10
10
10
10
10
10
10
ENDCHAR
STARTCHAR 2021
ENCODING 8225
SWIDTH 1000 0
DWIDTH 16 0
BBX 7 11 5 0
BITMAP
10
10
FE
10
10
FE
10
10
10
10
10
ENDCHAR
STARTCHAR 2022
ENCODING 8226
SWIDTH 1000 0
DWIDTH 16 0
BBX 4 4 6 3
BITMAP
60
F0
F0
60
ENDCHAR
STARTCHAR 2025
ENCODING 8229
SWIDTH 1000 0
DWIDTH 16 0
BBX 9 2 3 5
BITMAP
C180
C180
ENDCHAR
STARTCHAR 2026
ENCODING 8230
SWIDTH 1000 0
DWIDTH 16 0
BBX 11 2 3 5
BITMAP
8420
8420
ENDCHAR
STARTCHAR 2030
ENCODING 8240
SWIDTH 1000 0
DWIDTH 16 0
BBX 13 13 1 -1
BITMAP
0100
6200
9200
9400
9400
9800
6B30
15D8
14C8
24C8
24C8
44C8
4330
ENDCHAR
STARTCHAR 2032
ENCODING 8242
SWIDTH 1000 0
DWIDTH 16 0
BBX 3 4 6 8
BITMAP
20
40
40
80
ENDCHAR
STARTCHAR 2033
ENCODING 8243
SWIDTH 1000 0
DWIDTH 16 0
BBX 4 4 7 8
BITMAP
50
90
A0
20
ENDCHAR
STARTCHAR 2034
ENCODING 8244
SWIDTH 1000 0
DWIDTH 16 0
BBX 7 4 4 8
BITMAP
2A
5E
54
94
ENDCHAR
STARTCHAR 2035
ENCODING 8245
SWIDTH 1000 0
DWIDTH 16 0
BBX 3 3 6 10
BITMAP
80
40
20
ENDCHAR
STARTCHAR 2036
ENCODING 8246
SWIDTH 1000 0
DWIDTH 16 0
BBX 4 6 6 7
BITMAP
80
40
20
80
40
30
ENDCHAR
STARTCHAR 2039
ENCODING 8249
SWIDTH 1000 0
DWIDTH 16 0
BBX 11 14 3 -2
BITMAP
0020
00C0
0100
0600
1800
2000
C000
4000
2000
1800
0400
0300
0080
0060
ENDCHAR
STARTCHAR 203A
ENCODING 8250
SWIDTH 1000 0
DWIDTH 16 0
BBX 11 14 2 -2
BITMAP
8000
6000
1000
0C00
0300
0080
0060
0040
0080
0300
0400
1800
2000
C000
ENDCHAR
STARTCHAR 203B
ENCODING 8251
SWIDTH 1000 0
DWIDTH 16 0
BBX 10 10 3 0
BITMAP
8C00
4C80
2100
1200
CCC0
CCC0
1200
2100
4C80
8C00
ENDCHAR
STARTCHAR 203C
ENCODING 8252
SWIDTH 1000 0
DWIDTH 16 0
BBX 5 13 5 -2
BITMAP
88
88
88
88
88
88
88
88
88
88
00
00
88
ENDCHAR
STARTCHAR 2042
ENCODING 8258
SWIDTH 1000 0
DWIDTH 16 0
BBX 12 13 2 -1
BITMAP
0400
0D00
0000
0900
0400
0000
0000
0000
2040
E970
3080
F970
2040
ENDCHAR
STARTCHAR 2074
ENCODING 8308
SWIDTH 1000 0
DWIDTH 16 0
BBX 3 4 6 8
BITMAP
20
E0
E0
20
ENDCHAR
STARTCHAR 207A
ENCODING 8314
SWIDTH 1000 0
DWIDTH 16 0
BBX 6 6 5 6
BITMAP
10
10
10
FC
10
10
ENDCHAR
STARTCHAR 207B
ENCODING 8315
SWIDTH 1000 0
DWIDTH 16 0
BBX 6 1 5 7
BITMAP
FC
ENDCHAR
STARTCHAR 207C
ENCODING 8316
SWIDTH 1000 0
DWIDTH 16 0
BBX 6 3 5 6
BITMAP
FC
00
FC
ENDCHAR
STARTCHAR 207D
ENCODING 8317
SWIDTH 1000 0
DWIDTH 16 0
BBX 2 7 7 5
BITMAP
40
80
80
80
80
80
40
ENDCHAR
STARTCHAR 207E
ENCODING 8318
SWIDTH 1000 0
DWIDTH 16 0
BBX 3 7 6 5
BITMAP
40
40
20
20
20
40
80
ENDCHAR
STARTCHAR 207F
ENCODING 8319
SWIDTH 1000 0
DWIDTH 16 0
BBX 3 4 7 8
BITMAP
E0
A0
A0
A0
ENDCHAR
STARTCHAR 2081
ENCODING 8321
SWIDTH 1000 0
DWIDTH 16 0
BBX 1 4 8 -2
BITMAP
80
80
80
80
ENDCHAR
STARTCHAR 2082
ENCODING 8322
SWIDTH 1000 0
DWIDTH 16 0
BBX 3 4 7 -3
BITMAP
E0
20
C0
E0
ENDCHAR
STARTCHAR 2083
ENCODING 8323
SWIDTH 1000 0
DWIDTH 16 0
BBX 3 4 7 -3
BITMAP
E0
40
20
E0
ENDCHAR
STARTCHAR 2084
ENCODING 8324
SWIDTH 1000 0
DWIDTH 16 0
BBX 3 4 6 -2
BITMAP
60
A0
E0
20
ENDCHAR
STARTCHAR 20A9
ENCODING 8361
SWIDTH 1000 0
DWIDTH 16 0
BBX 14 11 1 -1
BITMAP
4308
4308
2310
2310
FFFC
2490
14A0
14A0
1860
1860
0840
ENDCHAR
STARTCHAR 20AC
ENCODING 8364
SWIDTH 1000 0
DWIDTH 16 0
BBX 8 12 4 -1
BITMAP
0F
31
20
60
FC
40
F8
60
60
20
31
0F
ENDCHAR
STARTCHAR 2103
ENCODING 8451
SWIDTH 1000 0
DWIDTH 16 0
BBX 10 12 3 -1
BITMAP
C000
A700
5880
1040
2040
2000
2000
2000
2040
1040
1880
0700
ENDCHAR
STARTCHAR 2109
ENCODING 8457
SWIDTH 1000 0
DWIDTH 16 0
BBX 11 12 2 -1
BITMAP
6000
97E0
6400
0400
0400
0400
07E0
0400
0400
0400
0400
0400
ENDCHAR
STARTCHAR 2113
ENCODING 8467
SWIDTH 1000 0
DWIDTH 16 0
BBX 5 12 6 -1
BITMAP
18
28
28
48
48
50
50
60
60
40
D0
20
ENDCHAR
STARTCHAR 2116
ENCODING 8470
SWIDTH 1000 0
DWIDTH 16 0
BBX 13 12 1 -1
BITMAP
8400
C400
C400
A4E0
A4A0
A510
9510
9510
8D10
8D10
84A8
00E8
ENDCHAR
STARTCHAR 2121
ENCODING 8481
SWIDTH 1000 0
DWIDTH 16 0
BBX 12 12 2 -1
BITMAP
FC10
2010
2010
2310
2490
2850
2850
2FD0
2810
2850
2490
0380
ENDCHAR
STARTCHAR 2122
ENCODING 8482
SWIDTH 1000 0
DWIDTH 16 0
BBX 14 6 1 6
BITMAP
FC00
1204
131C
1294
1264
1264
ENDCHAR
STARTCHAR 2126
ENCODING 8486
SWIDTH 1000 0
DWIDTH 16 0
BBX 9 12 3 -1
BITMAP
3E00
6100
C080
8080
8080
8080
8080
4100
1600
9480
9480
F780
ENDCHAR
STARTCHAR 212B
ENCODING 8491
SWIDTH 1000 0
DWIDTH 16 0
BBX 8 13 4 -1
BITMAP
18
24
24
18
18
18
24
24
42
7E
42
81
81
ENDCHAR
STARTCHAR 2153
ENCODING 8531
SWIDTH 1000 0
DWIDTH 16 0
BBX 10 14 3 -3
BITMAP
2000
6000
2080
2100
2200
2200
0400
0980
1240
2240
4080
8040
0240
0380
ENDCHAR
STARTCHAR 2154
ENCODING 8532
SWIDTH 1000 0
DWIDTH 16 0
BBX 10 14 3 -3
BITMAP
6000
9000
9040
2080
4100
8200
F400
0800
1180
2240
4080
4040
0240
0380
ENDCHAR
STARTCHAR 215B
ENCODING 8539
SWIDTH 1000 0
DWIDTH 16 0
BBX 10 14 3 -3
BITMAP
2000
6000
2080
2100
2200
2200
0400
0980
1240
2240
4180
8240
0240
0380
ENDCHAR
STARTCHAR 215C
ENCODING 8540
SWIDTH 1000 0
DWIDTH 16 0
BBX 10 14 4 -3
BITMAP
E000
9000
2080
1100
9100
E200
0400
0B00
1480
2480
4300
04C0
0440
0780
ENDCHAR
STARTCHAR 215D
ENCODING 8541
SWIDTH 1000 0
DWIDTH 16 0
BBX 10 14 3 -3
BITMAP
7800
4000
B040
4880
8880
7100
0200
0580
0A40
1240
2180
4240
0240
0380
ENDCHAR
STARTCHAR 215E
ENCODING 8542
SWIDTH 1000 0
DWIDTH 16 0
BBX 9 14 4 -3
BITMAP
F000
2000
2080
4100
4200
4200
4400
0800
1700
2480
4300
8480
0480
0700
ENDCHAR
STARTCHAR 2160
ENCODING 8544
SWIDTH 1000 0
DWIDTH 16 0
BBX 1 13 8 -1
BITMAP
80
80
80
80
80
80
80
80
80
80
80
80
80
ENDCHAR
STARTCHAR 2161
ENCODING 8545
SWIDTH 1000 0
DWIDTH 16 0
BBX 5 13 5 -1
BITMAP
88
88
88
88
88
88
88
88
88
88
88
88
88
ENDCHAR
STARTCHAR 2162
ENCODING 8546
SWIDTH 1000 0
DWIDTH 16 0
BBX 9 13 4 -1
BITMAP
8880
8880
8880
8880
8880
8880
8880
8880
8880
8880
8880
8880
8880
ENDCHAR
STARTCHAR 2163
ENCODING 8547
SWIDTH 1000 0
DWIDTH 16 0
BBX 10 13 3 -1
BITMAP
B040
9040
9040
9080
8880
8880
8880
8900
8500
8500
8500
8600
8200
ENDCHAR
STARTCHAR 2164
ENCODING 8548
SWIDTH 1000 0
DWIDTH 16 0
BBX 9 13 3 -1
BITMAP
C080
4080
4080
6180
2100
2100
2100
1200
1200
1200
0C00
0C00
0C00
ENDCHAR
STARTCHAR 2165
ENCODING 8549
SWIDTH 1000 0
DWIDTH 16 0
BBX 10 13 3 -1
BITMAP
8240
8240
8240
8640
4440
4440
4440
4C40
2840
2840
2840
3840
1040
ENDCHAR
STARTCHAR 2166
ENCODING 8550
SWIDTH 1000 0
DWIDTH 16 0
BBX 11 13 2 -1
BITMAP
86A0
84A0
C4A0
44A0
44A0
4CA0
48A0
48A0
28A0
28A0
38A0
30A0
30A0
ENDCHAR
STARTCHAR 2167
ENCODING 8551
SWIDTH 1000 0
DWIDTH 16 0
BBX 12 13 2 -1
BITMAP
8550
4D50
4950
4950
4950
4950
4950
4950
3150
3150
3150
3150
3150
ENDCHAR
STARTCHAR 2168
ENCODING 8552
SWIDTH 1000 0
DWIDTH 16 0
BBX 11 13 3 -1
BITMAP
9060
8840
88C0
8480
8500
8300
8300
8300
8580
8C80
8840
9840
9020
ENDCHAR
STARTCHAR 2169
ENCODING 8553
SWIDTH 1000 0
DWIDTH 16 0
BBX 8 13 4 -1
BITMAP
81
43
42
24
3C
18
18
18
24
66
42
C3
81
ENDCHAR
STARTCHAR 2170
ENCODING 8560
SWIDTH 1000 0
DWIDTH 16 0
BBX 1 13 8 -1
BITMAP
80
80
00
00
80
80
80
80
80
80
80
80
80
ENDCHAR
STARTCHAR 2171
ENCODING 8561
SWIDTH 1000 0
DWIDTH 16 0
BBX 5 13 6 -1
BITMAP
88
88
00
00
88
88
88
88
88
88
88
88
88
ENDCHAR
STARTCHAR 2172
ENCODING 8562
SWIDTH 1000 0
DWIDTH 16 0
BBX 7 13 4 -1
BITMAP
92
92
00
00
92
92
92
92
92
92
92
92
92
ENDCHAR
STARTCHAR 2173
ENCODING 8563
SWIDTH 1000 0
DWIDTH 16 0
BBX 9 13 4 -1
BITMAP
8000
8000
0000
0000
A080
9100
9100
9100
8A00
8A00
8A00
8A00
8400
ENDCHAR
STARTCHAR 2174
ENCODING 8564
SWIDTH 1000 0
DWIDTH 16 0
BBX 6 9 5 -1
BITMAP
84
84
84
48
48
48
30
30
30
ENDCHAR
STARTCHAR 2175
ENCODING 8565
SWIDTH 1000 0
DWIDTH 16 0
BBX 9 13 4 -1
BITMAP
0080
0080
0000
0000
8480
4480
4480
4880
4880
2880
2880
3080
1080
ENDCHAR
STARTCHAR 2176
ENCODING 8566
SWIDTH 1000 0
DWIDTH 16 0
BBX 10 13 3 -1
BITMAP
0140
0140
0000
0000
8540
8940
4940
4940
4940
5140
5140
3140
2140
ENDCHAR
STARTCHAR 2177
ENCODING 8567
SWIDTH 1000 0
DWIDTH 16 0
BBX 12 13 2 -1
BITMAP
0150
0150
0000
0000
8550
4950
4950
4950
4950
3150
3150
3150
3150
ENDCHAR
STARTCHAR 2178
ENCODING 8568
SWIDTH 1000 0
DWIDTH 16 0
BBX 9 13 4 -1
BITMAP
8000
8000
0000
0000
9180
8900
8A00
8600
8400
8E00
8900
9100
9080
ENDCHAR
STARTCHAR 2179
ENCODING 8569
SWIDTH 1000 0
DWIDTH 16 0
BBX 6 9 5 -1
BITMAP
84
48
48
30
30
30
48
84
84
ENDCHAR
STARTCHAR 2190
ENCODING 8592
SWIDTH 1000 0
DWIDTH 16 0
BBX 14 4 1 2
BITMAP
4000
4000
FFFC
4000
ENDCHAR
STARTCHAR 2191
ENCODING 8593
SWIDTH 1000 0
DWIDTH 16 0
BBX 4 16 6 -4
BITMAP
20
70
B0
20
20
20
20
20
20
20
20
20
20
20
20
20
ENDCHAR
STARTCHAR 2192
ENCODING 8594
SWIDTH 1000 0
DWIDTH 16 0
BBX 14 4 1 2
BITMAP
0010
0008
FFFC
0008
ENDCHAR
STARTCHAR 2193
ENCODING 8595
SWIDTH 1000 0
DWIDTH 16 0
BBX 4 16 6 -4
BITMAP
20
20
20
20
20
20
20
20
20
20
20
20
20
20
F0
20
ENDCHAR
STARTCHAR 2194
ENCODING 8596
SWIDTH 1000 0
DWIDTH 16 0
BBX 14 4 1 2
BITMAP
4010
4008
FFFC
4008
ENDCHAR
STARTCHAR 2195
ENCODING 8597
SWIDTH 1000 0
DWIDTH 16 0
BBX 4 16 6 -4
BITMAP
20
70
B0
20
20
20
20
20
20
20
20
20
20
20
F0
20
ENDCHAR
STARTCHAR 2196
ENCODING 8598
SWIDTH 1000 0
DWIDTH 16 0
BBX 14 15 1 -3
BITMAP
E000
C000
2000
1000
0800
0400
0200
0200
0100
0080
0040
0020
0010
0008
0004
ENDCHAR
STARTCHAR 2197
ENCODING 8599
SWIDTH 1000 0
DWIDTH 16 0
BBX 14 15 1 -3
BITMAP
001C
0014
0010
0020
0040
0080
0100
0200
0400
0800
1000
2000
2000
4000
8000
ENDCHAR
STARTCHAR 2198
ENCODING 8600
SWIDTH 1000 0
DWIDTH 16 0
BBX 14 15 1 -2
BITMAP
8000
4000
2000
1000
0800
0400
0200
0100
0180
0080
0040
0020
0014
000C
003C
ENDCHAR
STARTCHAR 2199
ENCODING 8601
SWIDTH 1000 0
DWIDTH 16 0
BBX 13 15 1 -2
BITMAP
0008
0010
0020
0020
0040
0080
0100
0200
0400
0800
1000
2000
C000
C000
F000
ENDCHAR
STARTCHAR 21B0
ENCODING 8624
SWIDTH 1000 0
DWIDTH 16 0
BBX 13 14 2 -3
BITMAP
4000
FFF8
4008
0008
0008
0008
0008
0008
0008
0008
0008
0008
0008
0008
ENDCHAR
STARTCHAR 21B1
ENCODING 8625
SWIDTH 1000 0
DWIDTH 16 0
BBX 13 14 1 -3
BITMAP
0010
FFF8
8010
8010
8000
8000
8000
8000
8000
8000
8000
8000
8000
8000
ENDCHAR
STARTCHAR 21B2
ENCODING 8626
SWIDTH 1000 0
DWIDTH 16 0
BBX 13 15 2 -1
BITMAP
0008
0008
0008
0008
0008
0008
0008
0008
0008
0008
0008
4008
FFF8
C000
4000
ENDCHAR
STARTCHAR 21B3
ENCODING 8627
SWIDTH 1000 0
DWIDTH 16 0
BBX 13 15 1 -1
BITMAP
8000
8000
8000
8000
8000
8000
8000
8000
8000
8000
8000
8010
FFF8
0018
0010
ENDCHAR
STARTCHAR 21B4
ENCODING 8628
SWIDTH 1000 0
DWIDTH 16 0
BBX 14 15 1 -4
BITMAP
FFF0
0010
0010
0010
0010
0010
0010
0010
0010
0010
0010
0010
005C
0038
0010
ENDCHAR
STARTCHAR 21BC
ENCODING 8636
SWIDTH 1000 0
DWIDTH 16 0
BBX 14 3 1 5
BITMAP
1800
6000
FFFC
ENDCHAR
STARTCHAR 21C0
ENCODING 8640
SWIDTH 1000 0
DWIDTH 16 0
BBX 14 3 1 5
BITMAP
0060
0018
FFFC
ENDCHAR
STARTCHAR 21C4
ENCODING 8644
SWIDTH 1000 0
DWIDTH 16 0
BBX 14 9 1 1
BITMAP
0008
FFFC
0008
0000
2000
4000
FFFC
4000
4000
ENDCHAR
STARTCHAR 21C5
ENCODING 8645
SWIDTH 1000 0
DWIDTH 16 0
BBX 9 16 3 -4
BITMAP
2100
7100
B100
2100
2100
2100
2100
2100
2100
2100
2100
2100
2100
2100
2380
2100
ENDCHAR
STARTCHAR 21CD
ENCODING 8653
SWIDTH 1000 0
DWIDTH 16 0
BBX 14 10 1 0
BITMAP
0080
1080
2100
7FFC
8100
8100
7FFC
2200
1200
0200
ENDCHAR
STARTCHAR 21CF
ENCODING 8655
SWIDTH 1000 0
DWIDTH 16 0
BBX 14 9 1 1
BITMAP
0120
0210
FFF8
0204
0204
FFF8
0410
0420
0400
ENDCHAR
STARTCHAR 21D0
ENCODING 8656
SWIDTH 1000 0
DWIDTH 16 0
BBX 14 8 1 0
BITMAP
1000
2000
7FFC
8000
8000
7FFC
2000
1000
ENDCHAR
STARTCHAR 21D1
ENCODING 8657
SWIDTH 1000 0
DWIDTH 16 0
BBX 14 15 1 -3
BITMAP
0480
1CC0
24A0
2490
4488
8484
0480
0480
0480
0480
0480
0480
0480
0480
0480
ENDCHAR
STARTCHAR 21D2
ENCODING 8658
SWIDTH 1000 0
DWIDTH 16 0
BBX 14 8 1 0
BITMAP
0020
0010
FFF8
0004
0004
FFF8
0010
0020
ENDCHAR
STARTCHAR 21D3
ENCODING 8659
SWIDTH 1000 0
DWIDTH 16 0
BBX 14 16 1 -4
BITMAP
0480
0480
0480
0480
0480
0480
0480
0480
0480
8484
8488
4490
24A0
14A0
0CC0
0480
ENDCHAR
STARTCHAR 21D4
ENCODING 8660
SWIDTH 1000 0
DWIDTH 16 0
BBX 14 8 1 0
BITMAP
1020
2010
7FF8
8004
8004
7FF8
2010
1020
ENDCHAR
STARTCHAR 21E0
ENCODING 8672
SWIDTH 1000 0
DWIDTH 16 0
BBX 13 6 2 2
BITMAP
2000
6000
ECD8
ECD8
6000
2000
ENDCHAR
STARTCHAR 21E1
ENCODING 8673
SWIDTH 1000 0
DWIDTH 16 0
BBX 6 13 5 -1
BITMAP
30
78
FC
00
30
30
00
30
30
00
00
30
30
ENDCHAR
STARTCHAR 21E2
ENCODING 8674
SWIDTH 1000 0
DWIDTH 16 0
BBX 13 6 1 2
BITMAP
0020
0030
CDB8
CDB8
0030
0020
ENDCHAR
STARTCHAR 21E3
ENCODING 8675
SWIDTH 1000 0
DWIDTH 16 0
BBX 6 13 5 -2
BITMAP
30
30
00
30
30
00
00
30
30
00
FC
78
30
ENDCHAR
STARTCHAR 21E6
ENCODING 8678
SWIDTH 1000 0
DWIDTH 16 0
BBX 14 11 1 -1
BITMAP
0400
1C00
27FC
4004
8004
8004
4004
27FC
1400
0C00
0400
ENDCHAR
STARTCHAR 21E7
ENCODING 8679
SWIDTH 1000 0
DWIDTH 16 0
BBX 12 15 2 -2
BITMAP
0600
0900
1080
2040
4020
F0F0
1080
1080
1080
1080
1080
1080
1080
1080
1F80
ENDCHAR
STARTCHAR 21E8
ENCODING 8680
SWIDTH 1000 0
DWIDTH 16 0
BBX 14 11 1 -1
BITMAP
0080
00C0
FFA0
8010
8008
8004
8008
FF90
00A0
00C0
0080
ENDCHAR
STARTCHAR 21E9
ENCODING 8681
SWIDTH 1000 0
DWIDTH 16 0
BBX 10 16 3 -3
BITMAP
3F00
2100
2100
2100
2100
2100
2100
2100
2100
2100
E1C0
8080
4100
2200
1400
0800
ENDCHAR
STARTCHAR 2200
ENCODING 8704
SWIDTH 1000 0
DWIDTH 16 0
BBX 10 12 3 -1
BITMAP
8040
C0C0
4080
4080
3F00
2100
2100
1200
1200
0E00
0C00
0C00
ENDCHAR
STARTCHAR 2202
ENCODING 8706
SWIDTH 1000 0
DWIDTH 16 0
BBX 5 7 5 1
BITMAP
70
08
38
48
98
90
60
ENDCHAR
STARTCHAR 2203
ENCODING 8707
SWIDTH 1000 0
DWIDTH 16 0
BBX 8 12 4 -1
BITMAP
7F
01
01
01
01
7F
01
01
01
01
01
FF
ENDCHAR
STARTCHAR 2206
ENCODING 8710
SWIDTH 1000 0
DWIDTH 16 0
BBX 10 10 3 0
BITMAP
0C00
1400
1600
2200
2300
2100
4180
4080
80C0
FFC0
ENDCHAR
STARTCHAR 2207
ENCODING 8711
SWIDTH 1000 0
DWIDTH 16 0
BBX 12 10 2 -1
BITMAP
FFF0
4020
4020
2040
20C0
1080
0900
0900
0600
0400
ENDCHAR
STARTCHAR 2208
ENCODING 8712
SWIDTH 1000 0
DWIDTH 16 0
BBX 11 10 2 0
BITMAP
1FE0
6000
4000
8000
8000
FFE0
8000
8000
4000
3FE0
ENDCHAR
STARTCHAR 2209
ENCODING 8713
SWIDTH 1000 0
DWIDTH 16 0
BBX 10 10 3 0
BITMAP
0200
1FC0
6200
8200
8400
FFC0
8400
4800
3FC0
0800
ENDCHAR
STARTCHAR 220B
ENCODING 8715
SWIDTH 1000 0
DWIDTH 16 0
BBX 11 10 3 0
BITMAP
FF00
00C0
0040
0020
0020
FFE0
0020
0040
00C0
FF00
ENDCHAR
STARTCHAR 220C
ENCODING 8716
SWIDTH 1000 0
DWIDTH 16 0
BBX 10 10 3 0
BITMAP
0400
FE00
0980
0880
0840
FFC0
1040
1080
FF00
2000
ENDCHAR
STARTCHAR 220F
ENCODING 8719
SWIDTH 1000 0
DWIDTH 16 0
BBX 10 12 3 -1
BITMAP
FFC0
2100
2100
2100
2100
2100
2100
2100
2100
2100
2100
2100
ENDCHAR
STARTCHAR 2211
ENCODING 8721
SWIDTH 1000 0
DWIDTH 16 0
BBX 8 12 4 -1
BITMAP
FF
C0
60
30
18
0C
08
10
30
60
C0
FF
ENDCHAR
STARTCHAR 2213
ENCODING 8723
SWIDTH 1000 0
DWIDTH 16 0
BBX 10 10 3 -1
BITMAP
FFC0
0000
0800
0800
0800
FFC0
0800
0800
0800
0800
ENDCHAR
STARTCHAR 221A
ENCODING 8730
SWIDTH 1000 0
DWIDTH 16 0
BBX 12 11 2 -2
BITMAP
07F0
0400
0800
0800
0800
1000
1000
9000
6000
2000
2000
ENDCHAR
STARTCHAR 221D
ENCODING 8733
SWIDTH 1000 0
DWIDTH 16 0
BBX 11 6 2 2
BITMAP
78E0
4500
8200
8200
C500
38E0
ENDCHAR
STARTCHAR 221E
ENCODING 8734
SWIDTH 1000 0
DWIDTH 16 0
BBX 12 6 3 2
BITMAP
70E0
8B10
8610
8610
8A10
71E0
ENDCHAR
STARTCHAR 221F
ENCODING 8735
SWIDTH 1000 0
DWIDTH 16 0
BBX 9 9 3 1
BITMAP
8000
8000
8000
8000
8000
8000
8000
8000
FF80
ENDCHAR
STARTCHAR 2220
ENCODING 8736
SWIDTH 1000 0
DWIDTH 16 0
BBX 10 9 3 1
BITMAP
0100
0200
0400
0800
1000
2000
4000
4000
FFC0
ENDCHAR
STARTCHAR 2222
ENCODING 8738
SWIDTH 1000 0
DWIDTH 16 0
BBX 9 9 3 1
BITMAP
0400
0380
0D00
3100
C100
3100
0E00
0380
0400
ENDCHAR
STARTCHAR 2225
ENCODING 8741
SWIDTH 1000 0
DWIDTH 16 0
BBX 10 10 3 0
BITMAP
0240
0480
0880
0900
1200
1200
2400
4400
4800
9000
ENDCHAR
STARTCHAR 2226
ENCODING 8742
SWIDTH 1000 0
DWIDTH 16 0
BBX 10 10 3 0
BITMAP
4240
2480
1880
0900
1A00
1A00
2400
4600
4A00
9100
ENDCHAR
STARTCHAR 2227
ENCODING 8743
SWIDTH 1000 0
DWIDTH 16 0
BBX 10 9 3 1
BITMAP
0C00
1400
1200
2200
2100
4100
4080
8080
8040
ENDCHAR
STARTCHAR 2228
ENCODING 8744
SWIDTH 1000 0
DWIDTH 16 0
BBX 10 9 3 1
BITMAP
8040
4080
4080
2100
2100
1200
1200
0C00
0C00
ENDCHAR
STARTCHAR 2229
ENCODING 8745
SWIDTH 1000 0
DWIDTH 16 0
BBX 9 12 3 -1
BITMAP
1C00
6300
4080
8080
8080
8080
8080
8080
8080
8080
8080
8080
ENDCHAR
STARTCHAR 222A
ENCODING 8746
SWIDTH 1000 0
DWIDTH 16 0
BBX 9 11 3 0
BITMAP
8080
8080
8080
8080
8080
8080
8080
8080
8080
4100
3E00
ENDCHAR
STARTCHAR 222B
ENCODING 8747
SWIDTH 1000 0
DWIDTH 16 0
BBX 5 14 5 -2
BITMAP
08
10
20
20
20
20
20
20
20
20
20
20
40
80
ENDCHAR
STARTCHAR 222C
ENCODING 8748
SWIDTH 1000 0
DWIDTH 16 0
BBX 9 14 4 -2
BITMAP
0880
1100
2200
2200
2200
2200
2200
2200
2200
2200
2200
2400
4400
8800
ENDCHAR
STARTCHAR 222E
ENCODING 8750
SWIDTH 1000 0
DWIDTH 16 0
BBX 6 14 5 -2
BITMAP
08
14
10
20
20
78
A8
A8
A8
70
20
40
40
80
ENDCHAR
STARTCHAR 2234
ENCODING 8756
SWIDTH 1000 0
DWIDTH 16 0
BBX 10 7 2 2
BITMAP
0C00
0000
0000
0000
0000
0000
C0C0
ENDCHAR
STARTCHAR 2235
ENCODING 8757
SWIDTH 1000 0
DWIDTH 16 0
BBX 10 8 3 1
BITMAP
C0C0
4040
0000
0000
0000
0000
0000
0C00
ENDCHAR
STARTCHAR 2236
ENCODING 8758
SWIDTH 1000 0
DWIDTH 16 0
BBX 2 6 7 1
BITMAP
C0
00
00
00
00
C0
ENDCHAR
STARTCHAR 2237
ENCODING 8759
SWIDTH 1000 0
DWIDTH 16 0
BBX 7 7 5 1
BITMAP
C6
C6
00
00
00
C6
C6
ENDCHAR
STARTCHAR 223D
ENCODING 8765
SWIDTH 1000 0
DWIDTH 16 0
BBX 12 6 2 2
BITMAP
70E0
8310
8210
8410
8810
70E0
ENDCHAR
STARTCHAR 2243
ENCODING 8771
SWIDTH 1000 0
DWIDTH 16 0
BBX 11 6 2 2
BITMAP
3800
47C0
0000
0000
0000
FFE0
ENDCHAR
STARTCHAR 2245
ENCODING 8773
SWIDTH 1000 0
DWIDTH 16 0
BBX 11 8 2 1
BITMAP
3800
47C0
0000
0000
0000
FFE0
0000
FFE0
ENDCHAR
STARTCHAR 2248
ENCODING 8776
SWIDTH 1000 0
DWIDTH 16 0
BBX 10 6 3 2
BITMAP
7800
87C0
0000
0000
7800
87C0
ENDCHAR
STARTCHAR 2250
ENCODING 8784
SWIDTH 1000 0
DWIDTH 16 0
BBX 11 7 3 1
BITMAP
0C00
0C00
0000
FFE0
0000
0000
FFE0
ENDCHAR
STARTCHAR 2251
ENCODING 8785
SWIDTH 1000 0
DWIDTH 16 0
BBX 10 10 3 0
BITMAP
0C00
0C00
0000
FFC0
0000
0000
FFC0
0000
0C00
0C00
ENDCHAR
STARTCHAR 2252
ENCODING 8786
SWIDTH 1000 0
DWIDTH 16 0
BBX 10 10 3 0
BITMAP
6000
6000
0000
FFC0
0000
0000
FFC0
0000
0180
0180
ENDCHAR
STARTCHAR 2253
ENCODING 8787
SWIDTH 1000 0
DWIDTH 16 0
BBX 10 10 3 0
BITMAP
0180
0180
0000
FFC0
0000
0000
FFC0
0000
6000
6000
ENDCHAR
STARTCHAR 225A
ENCODING 8794
SWIDTH 1000 0
DWIDTH 16 0
BBX 10 10 3 1
BITMAP
4080
4100
2200
1200
1400
0C00
0000
FFC0
0000
FFC0
ENDCHAR
STARTCHAR 2260
ENCODING 8800
SWIDTH 1000 0
DWIDTH 16 0
BBX 9 10 4 0
BITMAP
0400
0400
0800
FF80
0800
0800
FF80
1000
1000
1000
ENDCHAR
STARTCHAR 2261
ENCODING 8801
SWIDTH 1000 0
DWIDTH 16 0
BBX 10 6 3 2
BITMAP
FFC0
0000
0000
FFC0
0000
FFC0
ENDCHAR
STARTCHAR 2262
ENCODING 8802
SWIDTH 1000 0
DWIDTH 16 0
BBX 11 10 3 0
BITMAP
0100
0100
FFE0
0200
0400
FFE0
0800
FFE0
1000
2000
ENDCHAR
STARTCHAR 2264
ENCODING 8804
SWIDTH 1000 0
DWIDTH 16 0
BBX 10 12 3 -1
BITMAP
0040
0180
0600
1800
6000
C000
3000
0C00
0200
0180
0000
FFC0
ENDCHAR
STARTCHAR 2265
ENCODING 8805
SWIDTH 1000 0
DWIDTH 16 0
BBX 10 12 3 -1
BITMAP
8000
6000
1800
0600
0180
00C0
0300
0C00
1000
6000
0000
FFC0
ENDCHAR
STARTCHAR 2266
ENCODING 8806
SWIDTH 1000 0
DWIDTH 16 0
BBX 10 11 3 0
BITMAP
0040
0380
1C00
6000
6000
1C00
0300
00C0
FFC0
0000
FFC0
ENDCHAR
STARTCHAR 2267
ENCODING 8807
SWIDTH 1000 0
DWIDTH 16 0
BBX 10 11 3 0
BITMAP
8000
7000
0E00
0180
0180
0E00
3000
C000
FFC0
0000
FFC0
ENDCHAR
STARTCHAR 226E
ENCODING 8814
SWIDTH 1000 0
DWIDTH 16 0
BBX 10 10 3 -1
BITMAP
0240
0380
0600
1C00
6400
C800
3800
0C00
0B00
10C0
ENDCHAR
STARTCHAR 226F
ENCODING 8815
SWIDTH 1000 0
DWIDTH 16 0
BBX 10 10 3 -1
BITMAP
8000
6400
1C00
0600
0980
08C0
0B00
0C00
3000
D000
ENDCHAR
STARTCHAR 2270
ENCODING 8816
SWIDTH 1000 0
DWIDTH 16 0
BBX 10 13 3 -1
BITMAP
0240
0380
0C00
7400
6400
1C00
0B80
0840
FFC0
1000
FFC0
1000
1000
ENDCHAR
STARTCHAR 2271
ENCODING 8817
SWIDTH 1000 0
DWIDTH 16 0
BBX 10 13 3 -2
BITMAP
0200
8200
7400
0C00
0780
0980
0E00
7800
8800
FFC0
1000
FFC0
1000
ENDCHAR
STARTCHAR 2272
ENCODING 8818
SWIDTH 1000 0
DWIDTH 16 0
BBX 10 10 3 1
BITMAP
0180
0600
3800
C000
3000
0E00
0180
0000
7800
87C0
ENDCHAR
STARTCHAR 2273
ENCODING 8819
SWIDTH 1000 0
DWIDTH 16 0
BBX 10 10 3 1
BITMAP
6000
1800
0700
00C0
0300
1C00
6000
0000
7040
8F80
ENDCHAR
STARTCHAR 2276
ENCODING 8822
SWIDTH 1000 0
DWIDTH 16 0
BBX 10 10 3 0
BITMAP
01C0
0E00
7000
3000
8F00
78C0
0700
0180
0E00
F000
ENDCHAR
STARTCHAR 2277
ENCODING 8823
SWIDTH 1000 0
DWIDTH 16 0
BBX 10 10 3 0
BITMAP
E000
1C00
0380
0300
3C40
C780
3800
6000
1C00
03C0
ENDCHAR
STARTCHAR 2279
ENCODING 8825
SWIDTH 1000 0
DWIDTH 16 0
BBX 10 14 3 -3
BITMAP
0200
0200
E200
1C00
0780
0700
3840
C780
3800
6800
1C00
13C0
1000
2000
ENDCHAR
STARTCHAR 227A
ENCODING 8826
SWIDTH 1000 0
DWIDTH 16 0
BBX 9 9 4 1
BITMAP
0180
0200
0C00
7000
E000
1800
0600
0100
0080
ENDCHAR
STARTCHAR 227B
ENCODING 8827
SWIDTH 1000 0
DWIDTH 16 0
BBX 9 8 3 1
BITMAP
C000
2000
1800
0700
0380
0C00
3000
C000
ENDCHAR
STARTCHAR 2280
ENCODING 8832
SWIDTH 1000 0
DWIDTH 16 0
BBX 10 11 3 0
BITMAP
0400
0440
0480
0700
0C00
F400
1C00
0600
0580
0440
0400
ENDCHAR
STARTCHAR 2281
ENCODING 8833
SWIDTH 1000 0
DWIDTH 16 0
BBX 10 11 3 0
BITMAP
0800
8800
4800
3800
0C00
0BC0
0E00
1800
6800
8800
0800
ENDCHAR
STARTCHAR 2282
ENCODING 8834
SWIDTH 1000 0
DWIDTH 16 0
BBX 11 10 2 0
BITMAP
1FE0
6000
4000
8000
8000
8000
8000
4000
6000
1FE0
ENDCHAR
STARTCHAR 2283
ENCODING 8835
SWIDTH 1000 0
DWIDTH 16 0
BBX 11 10 3 0
BITMAP
FF00
00C0
0040
0020
0020
0020
0020
0040
00C0
FF00
ENDCHAR
STARTCHAR 2284
ENCODING 8836
SWIDTH 1000 0
DWIDTH 16 0
BBX 10 10 3 0
BITMAP
0200
1FC0
6200
8200
8400
8400
8400
4800
3FC0
0800
ENDCHAR
STARTCHAR 2285
ENCODING 8837
SWIDTH 1000 0
DWIDTH 16 0
BBX 10 10 3 0
BITMAP
0400
FE00
0980
0880
0840
1040
1040
1080
FF00
2000
ENDCHAR
STARTCHAR 2286
ENCODING 8838
SWIDTH 1000 0
DWIDTH 16 0
BBX 11 10 2 0
BITMAP
3FE0
4000
8000
8000
8000
8000
4000
3FE0
0000
FFE0
ENDCHAR
STARTCHAR 2287
ENCODING 8839
SWIDTH 1000 0
DWIDTH 16 0
BBX 11 10 2 0
BITMAP
FF80
0040
0020
0020
0020
0020
0040
FF80
0000
FFE0
ENDCHAR
STARTCHAR 228A
ENCODING 8842
SWIDTH 1000 0
DWIDTH 16 0
BBX 11 12 2 -3
BITMAP
3FE0
4000
8000
8000
8000
4000
3FE0
0200
FFE0
0400
FFE0
0800
ENDCHAR
STARTCHAR 228B
ENCODING 8843
SWIDTH 1000 0
DWIDTH 16 0
BBX 11 12 2 -3
BITMAP
FF80
0060
0020
0020
0020
0040
FF80
0400
FFE0
0400
FFE0
0800
ENDCHAR
STARTCHAR 2295
ENCODING 8853
SWIDTH 1000 0
DWIDTH 16 0
BBX 13 13 1 -2
BITMAP
0F80
1260
2210
4210
8208
8208
BFF8
8208
8208
4210
2220
1040
0F80
ENDCHAR
STARTCHAR 2296
ENCODING 8854
SWIDTH 1000 0
DWIDTH 16 0
BBX 13 13 1 -2
BITMAP
0F80
1060
2010
4010
8008
8008
BFF8
8008
8008
4010
2020
1040
0F80
ENDCHAR
STARTCHAR 2297
ENCODING 8855
SWIDTH 1000 0
DWIDTH 16 0
BBX 13 13 1 -2
BITMAP
0F80
1060
2010
5050
8888
8508
8208
8508
8888
5050
2020
1040
0F80
ENDCHAR
STARTCHAR 22A3
ENCODING 8867
SWIDTH 1000 0
DWIDTH 16 0
BBX 8 10 4 0
BITMAP
01
01
01
01
01
FF
01
01
01
01
ENDCHAR
STARTCHAR 22A4
ENCODING 8868
SWIDTH 1000 0
DWIDTH 16 0
BBX 10 9 3 -1
BITMAP
FFC0
0400
0400
0400
0400
0400
0400
0400
0400
ENDCHAR
STARTCHAR 22A5
ENCODING 8869
SWIDTH 1000 0
DWIDTH 16 0
BBX 10 9 3 1
BITMAP
0400
0400
0400
0400
0400
0400
0400
0400
FFC0
ENDCHAR
STARTCHAR 22BB
ENCODING 8891
SWIDTH 1000 0
DWIDTH 16 0
BBX 10 10 3 0
BITMAP
0080
4080
4100
2100
2200
1200
1400
0C00
0000
FFC0
ENDCHAR
STARTCHAR 22BC
ENCODING 8892
SWIDTH 1000 0
DWIDTH 16 0
BBX 10 10 3 -1
BITMAP
FFC0
0000
0C00
1400
1200
2200
2100
4100
4080
0080
ENDCHAR
STARTCHAR 22CE
ENCODING 8910
SWIDTH 1000 0
DWIDTH 16 0
BBX 10 9 3 2
BITMAP
0800
0C00
0C00
1400
1200
2200
2100
4080
8040
ENDCHAR
STARTCHAR 22CF
ENCODING 8911
SWIDTH 1000 0
DWIDTH 16 0
BBX 8 8 4 0
BITMAP
81
42
42
24
24
18
18
10
ENDCHAR
STARTCHAR 22DA
ENCODING 8922
SWIDTH 1000 0
DWIDTH 16 0
BBX 10 12 3 0
BITMAP
00C0
1F00
6000
1F00
00C0
FFC0
0000
E000
1F00
0380
7C00
8000
ENDCHAR
STARTCHAR 22DB
ENCODING 8923
SWIDTH 1000 0
DWIDTH 16 0
BBX 10 12 3 0
BITMAP
C000
3E00
0180
3E00
C000
FFC0
0000
01C0
3E00
7000
0F80
0040
ENDCHAR
STARTCHAR 22EE
ENCODING 8942
SWIDTH 1000 0
DWIDTH 16 0
BBX 2 12 7 -1
BITMAP
C0
C0
00
00
00
C0
C0
00
00
00
C0
C0
ENDCHAR
STARTCHAR 22EF
ENCODING 8943
SWIDTH 1000 0
DWIDTH 16 0
BBX 11 2 3 5
BITMAP
8420
8420
ENDCHAR
STARTCHAR 2306
ENCODING 8966
SWIDTH 1000 0
DWIDTH 16 0
BBX 10 10 3 -1
BITMAP
FFC0
0000
FFC0
0000
0800
1400
1200
2200
2100
4100
ENDCHAR
STARTCHAR 2312
ENCODING 8978
SWIDTH 1000 0
DWIDTH 16 0
BBX 8 3 4 8
BITMAP
3C
42
81
ENDCHAR
STARTCHAR 2314
ENCODING 8980
SWIDTH 1000 0
DWIDTH 16 0
BBX 9 10 3 -1
BITMAP
1E00
6180
8080
4080
4100
2100
2200
1200
1400
0C00
ENDCHAR
STARTCHAR 2460
ENCODING 9312
SWIDTH 1000 0
DWIDTH 16 0
BBX 15 15 1 -4
BITMAP
07C0
1830
2118
430C
4704
8106
8102
8102
8102
8102
C104
4104
2008
1830
0FC0
ENDCHAR
STARTCHAR 2461
ENCODING 9313
SWIDTH 1000 0
DWIDTH 16 0
BBX 14 15 1 -4
BITMAP
0780
1860
2790
4CC8
C848
8844
8084
8184
8204
8404
C808
4FC8
2010
1060
0FC0
ENDCHAR
STARTCHAR 2462
ENCODING 9314
SWIDTH 1000 0
DWIDTH 16 0
BBX 14 15 1 -4
BITMAP
0780
1860
2790
4CC8
C848
8844
80C4
8304
80C4
8044
C848
4CC8
2790
1060
0FC0
ENDCHAR
STARTCHAR 2463
ENCODING 9315
SWIDTH 1000 0
DWIDTH 16 0
BBX 14 15 1 -4
BITMAP
0780
1860
2090
4188
C288
8284
8484
8484
8884
8FC4
C088
4088
2010
1060
0FC0
ENDCHAR
STARTCHAR 2464
ENCODING 9316
SWIDTH 1000 0
DWIDTH 16 0
BBX 14 15 1 -4
BITMAP
0780
1860
2010
4788
C408
8404
8B84
8484
8044
8044
C848
48C8
2790
1060
0FC0
ENDCHAR
STARTCHAR 2465
ENCODING 9317
SWIDTH 1000 0
DWIDTH 16 0
BBX 14 15 1 -4
BITMAP
0780
1860
2310
4488
C848
8804
8B84
8C84
8844
8844
C848
4CC8
2790
1060
0FC0
ENDCHAR
STARTCHAR 2466
ENCODING 9318
SWIDTH 1000 0
DWIDTH 16 0
BBX 14 15 1 -4
BITMAP
0780
1860
2010
47C8
C048
8084
8104
8104
8104
8204
C208
4208
2010
1060
0FC0
ENDCHAR
STARTCHAR 2467
ENCODING 9319
SWIDTH 1000 0
DWIDTH 16 0
BBX 14 15 1 -4
BITMAP
0780
1860
2790
4CC8
C848
8844
88C4
8704
8C84
8844
C848
48C8
2790
1060
0FC0
ENDCHAR
STARTCHAR 2468
ENCODING 9320
SWIDTH 1000 0
DWIDTH 16 0
BBX 14 15 1 -4
BITMAP
0780
1860
2710
4C88
C848
8844
8844
8CC4
8744
8044
C8C8
4C88
2710
1060
0FC0
ENDCHAR
STARTCHAR 2469
ENCODING 9321
SWIDTH 1000 0
DWIDTH 16 0
BBX 14 15 1 -4
BITMAP
0780
1860
29D0
4928
FA38
8A14
8A14
8A14
8A14
8A14
CB28
49E8
2010
1060
0FC0
ENDCHAR
STARTCHAR 246A
ENCODING 9322
SWIDTH 1000 0
DWIDTH 16 0
BBX 14 15 1 -4
BITMAP
0780
1860
2010
4448
DDC8
8444
8444
8444
8444
8444
C448
4448
2010
1060
0FC0
ENDCHAR
STARTCHAR 246B
ENCODING 9323
SWIDTH 1000 0
DWIDTH 16 0
BBX 14 15 1 -4
BITMAP
0780
1860
21D0
4B68
FA28
8A24
8864
8844
8884
8904
CA08
4BE8
2010
1060
0FC0
ENDCHAR
STARTCHAR 246C
ENCODING 9324
SWIDTH 1000 0
DWIDTH 16 0
BBX 14 15 1 -3
BITMAP
0780
1860
21D0
4B78
FA28
8824
88C4
8864
8824
8A24
8A68
49C8
2010
1020
0FC0
ENDCHAR
STARTCHAR 246D
ENCODING 9325
SWIDTH 1000 0
DWIDTH 16 0
BBX 14 15 1 -4
BITMAP
0780
1860
2010
4848
D8C8
8944
8944
8A44
8A44
8BE4
C848
4848
2010
1060
0FC0
ENDCHAR
STARTCHAR 246E
ENCODING 9326
SWIDTH 1000 0
DWIDTH 16 0
BBX 14 15 1 -3
BITMAP
0780
1860
29D0
4918
DA08
8A04
8AC4
8B64
8824
8A24
8A68
49C8
2010
1020
0FC0
ENDCHAR
STARTCHAR 246F
ENCODING 9327
SWIDTH 1000 0
DWIDTH 16 0
BBX 14 15 1 -4
BITMAP
0780
1860
28D0
4928
DA18
8A04
8AE4
8B34
8A14
8A14
CA38
49E8
2010
1060
0FC0
ENDCHAR
STARTCHAR 2470
ENCODING 9328
SWIDTH 1000 0
DWIDTH 16 0
BBX 14 16 1 -4
BITMAP
0780
1860
2030
4018
4BE8
984C
8844
8884
8884
8904
890C
4908
4908
2010
1060
0FC0
ENDCHAR
STARTCHAR 2471
ENCODING 9329
SWIDTH 1000 0
DWIDTH 16 0
BBX 14 15 1 -4
BITMAP
0780
1860
29D0
4A68
DA28
8A24
89C4
8B24
8A14
8A14
CA38
49E8
2010
1060
0FC0
ENDCHAR
STARTCHAR 2472
ENCODING 9330
SWIDTH 1000 0
DWIDTH 16 0
BBX 14 15 1 -3
BITMAP
0780
1860
21D0
4B38
DA18
8A14
8A14
8B34
89D4
8814
8A28
49E8
2010
1020
0FC0
ENDCHAR
STARTCHAR 2473
ENCODING 9331
SWIDTH 1000 0
DWIDTH 16 0
BBX 14 15 1 -4
BITMAP
0780
1860
2CF0
56A8
E318
8314
8314
8514
8914
9114
D1A8
5EE8
2010
1060
0FC0
ENDCHAR
STARTCHAR 2474
ENCODING 9332
SWIDTH 1000 0
DWIDTH 16 0
BBX 14 16 1 -4
BITMAP
4010
4008
4108
8308
8704
8104
8104
8104
8104
8104
8104
8104
8108
4008
4008
4010
ENDCHAR
STARTCHAR 2475
ENCODING 9333
SWIDTH 1000 0
DWIDTH 16 0
BBX 14 16 1 -3
BITMAP
4010
4008
4788
8CC8
8844
8844
8044
8084
8104
8604
8404
8804
8FC8
8008
4008
4010
ENDCHAR
STARTCHAR 2476
ENCODING 9334
SWIDTH 1000 0
DWIDTH 16 0
BBX 14 16 1 -4
BITMAP
4010
4008
4788
8CC8
8844
8844
80C4
8304
80C4
8024
8824
8C64
87C8
4008
4008
4010
ENDCHAR
STARTCHAR 2477
ENCODING 9335
SWIDTH 1000 0
DWIDTH 16 0
BBX 14 16 1 -3
BITMAP
4010
4008
4088
8188
8284
8284
8484
8884
8884
9FC4
8084
8084
8088
4008
4008
4010
ENDCHAR
STARTCHAR 2478
ENCODING 9336
SWIDTH 1000 0
DWIDTH 16 0
BBX 14 16 1 -4
BITMAP
4010
4008
4788
8408
8404
8804
8B84
8C84
8044
8044
8844
8C84
8788
4008
4008
4010
ENDCHAR
STARTCHAR 2479
ENCODING 9337
SWIDTH 1000 0
DWIDTH 16 0
BBX 14 16 1 -4
BITMAP
4010
4008
4308
8488
8844
8804
8B84
8CC4
8844
8844
8844
8484
8788
4008
4008
4010
ENDCHAR
STARTCHAR 247A
ENCODING 9338
SWIDTH 1000 0
DWIDTH 16 0
BBX 14 16 1 -3
BITMAP
4010
4008
4008
8FC8
8044
8084
8104
8104
8104
8204
8204
8204
8208
4208
4008
4010
ENDCHAR
STARTCHAR 247B
ENCODING 9339
SWIDTH 1000 0
DWIDTH 16 0
BBX 14 16 1 -3
BITMAP
4010
4008
4008
8788
8CC4
8844
88C4
8704
8C84
8844
8844
8844
8CC8
4788
4008
4010
ENDCHAR
STARTCHAR 247C
ENCODING 9340
SWIDTH 1000 0
DWIDTH 16 0
BBX 14 16 1 -3
BITMAP
4010
4008
4708
8C88
8844
8844
8844
8CC4
8744
8044
88C4
8C84
8708
4008
4008
4010
ENDCHAR
STARTCHAR 247D
ENCODING 9341
SWIDTH 1000 0
DWIDTH 16 0
BBX 14 16 1 -3
BITMAP
4010
4008
8008
89C8
9924
BA34
8A14
8A14
8A14
8A14
8A14
8A34
8928
89E8
4008
4010
ENDCHAR
STARTCHAR 247E
ENCODING 9342
SWIDTH 1000 0
DWIDTH 16 0
BBX 14 16 1 -4
BITMAP
4010
4008
4008
8428
9CE4
8424
8424
8424
8424
8424
8424
8424
8428
4008
4008
4010
ENDCHAR
STARTCHAR 247F
ENCODING 9343
SWIDTH 1000 0
DWIDTH 16 0
BBX 14 16 1 -3
BITMAP
4008
4008
81E8
8B34
BA14
8A14
8814
8824
8844
8984
8904
8A04
8BF8
4008
4008
2000
ENDCHAR
STARTCHAR 2480
ENCODING 9344
SWIDTH 1000 0
DWIDTH 16 0
BBX 14 16 1 -4
BITMAP
4010
4008
41E8
8B38
BA14
8A14
8834
8844
8834
8814
8A14
8B34
89E8
4008
4008
4010
ENDCHAR
STARTCHAR 2481
ENCODING 9345
SWIDTH 1000 0
DWIDTH 16 0
BBX 14 15 1 -4
BITMAP
4000
4008
8008
8828
B8E4
88A4
8924
8924
8A24
8BF4
8824
8824
8828
4008
4008
ENDCHAR
STARTCHAR 2482
ENCODING 9346
SWIDTH 1000 0
DWIDTH 16 0
BBX 14 16 1 -4
BITMAP
4010
4008
49E8
8908
B904
8A04
8AE4
8B24
8814
8814
8A14
8A34
89E8
4008
4008
4010
ENDCHAR
STARTCHAR 2483
ENCODING 9347
SWIDTH 1000 0
DWIDTH 16 0
BBX 14 15 1 -3
BITMAP
4008
48C8
8928
BA14
8A04
8AE4
8B24
8A14
8A14
8A14
8B34
89E8
4008
4008
2000
ENDCHAR
STARTCHAR 2484
ENCODING 9348
SWIDTH 1000 0
DWIDTH 16 0
BBX 14 17 1 -4
BITMAP
2010
4010
4008
8008
8BE8
B824
8844
8844
8884
8884
8904
8904
8904
8908
4008
4010
2010
ENDCHAR
STARTCHAR 2485
ENCODING 9349
SWIDTH 1000 0
DWIDTH 16 0
BBX 14 16 1 -4
BITMAP
4010
4008
41E8
8B38
BA14
8A14
8A34
89C4
8B24
8A14
8A14
8A34
89E8
4008
4008
4010
ENDCHAR
STARTCHAR 2486
ENCODING 9350
SWIDTH 1000 0
DWIDTH 16 0
BBX 14 16 1 -4
BITMAP
4010
4008
41C8
8B28
BA14
8A14
8A14
8B34
89D4
8814
8A34
8B24
89C8
4008
4008
4010
ENDCHAR
STARTCHAR 2487
ENCODING 9351
SWIDTH 1000 0
DWIDTH 16 0
BBX 14 16 1 -3
BITMAP
4008
4008
8008
9C64
A694
A31C
830C
870C
850C
890C
910C
A094
BEF4
8008
4008
4008
ENDCHAR
STARTCHAR 249C
ENCODING 9372
SWIDTH 1000 0
DWIDTH 16 0
BBX 14 16 1 -3
BITMAP
4010
4008
4008
8008
8784
8CC4
8844
80C4
8744
8844
88C4
8F64
8008
4008
4008
4010
ENDCHAR
STARTCHAR 249D
ENCODING 9373
SWIDTH 1000 0
DWIDTH 16 0
BBX 14 16 1 -3
BITMAP
4010
4008
4808
8808
8804
8B84
8C44
8864
8824
8824
8824
8864
8C48
8B88
4008
4010
ENDCHAR
STARTCHAR 249E
ENCODING 9374
SWIDTH 1000 0
DWIDTH 16 0
BBX 14 16 1 -3
BITMAP
4010
4008
4008
8008
8384
84C4
8844
8804
8804
8844
8C44
8784
8008
4008
4008
4010
ENDCHAR
STARTCHAR 249F
ENCODING 9375
SWIDTH 1000 0
DWIDTH 16 0
BBX 14 16 1 -3
BITMAP
4010
4008
8048
8048
8044
8744
88C4
90C4
9044
9044
9044
90C4
88C8
8708
4008
4010
ENDCHAR
STARTCHAR 24A0
ENCODING 9376
SWIDTH 1000 0
DWIDTH 16 0
BBX 14 16 1 -3
BITMAP
4010
4008
4008
8008
8384
8CC4
8844
8FC4
8804
8844
8C44
8784
8008
4008
4008
4010
ENDCHAR
STARTCHAR 24A1
ENCODING 9377
SWIDTH 1000 0
DWIDTH 16 0
BBX 14 16 1 -3
BITMAP
4010
4008
8008
8308
8204
8204
8704
8204
8204
8204
8204
8204
8208
8208
4008
4010
ENDCHAR
STARTCHAR 24A2
ENCODING 9378
SWIDTH 1000 0
DWIDTH 16 0
BBX 14 16 1 -3
BITMAP
4010
4008
4008
8748
8CC4
8844
8844
8844
8844
8CC4
8744
8844
8CC8
4788
4008
4010
ENDCHAR
STARTCHAR 24A3
ENCODING 9379
SWIDTH 1000 0
DWIDTH 16 0
BBX 14 16 1 -4
BITMAP
4010
4808
8808
8808
8B84
8CC4
8844
8844
8844
8844
8844
8844
8848
8008
4008
4010
ENDCHAR
STARTCHAR 24A4
ENCODING 9380
SWIDTH 1000 0
DWIDTH 16 0
BBX 15 16 1 -3
BITMAP
4008
4004
4004
8104
8002
8002
8102
8102
8102
8102
8102
8102
8104
4104
4004
4008
ENDCHAR
STARTCHAR 24A5
ENCODING 9381
SWIDTH 1000 0
DWIDTH 16 0
BBX 14 16 1 -2
BITMAP
4010
4008
4108
8008
8104
8104
8104
8104
8104
8104
8104
8104
8108
4108
4208
4010
ENDCHAR
STARTCHAR 24A6
ENCODING 9382
SWIDTH 1000 0
DWIDTH 16 0
BBX 14 16 1 -4
BITMAP
4010
4808
8808
8808
88C4
8884
8904
8A04
8D04
8904
8884
88C4
8848
8008
4008
4010
ENDCHAR
STARTCHAR 24A7
ENCODING 9383
SWIDTH 1000 0
DWIDTH 16 0
BBX 13 16 1 -4
BITMAP
4020
4210
8210
8210
8208
8208
8208
8208
8208
8208
8208
8208
8210
8010
4010
4020
ENDCHAR
STARTCHAR 24A8
ENCODING 9384
SWIDTH 1000 0
DWIDTH 16 0
BBX 14 16 1 -3
BITMAP
4010
4008
4008
8008
AE64
B3B4
A114
A114
A114
A114
A114
A114
8008
8008
4008
4010
ENDCHAR
STARTCHAR 24A9
ENCODING 9385
SWIDTH 1000 0
DWIDTH 16 0
BBX 14 16 1 -3
BITMAP
4010
4008
8008
8008
8B84
8CC4
8844
8844
8844
8844
8844
8844
8008
8008
4008
4010
ENDCHAR
STARTCHAR 24AA
ENCODING 9386
SWIDTH 1000 0
DWIDTH 16 0
BBX 14 16 1 -3
BITMAP
4010
4008
8008
8008
8704
8884
9044
9044
9044
9044
9884
8F04
8008
8008
4008
4010
ENDCHAR
STARTCHAR 24AB
ENCODING 9387
SWIDTH 1000 0
DWIDTH 16 0
BBX 14 16 1 -3
BITMAP
4010
4008
4008
8388
8C44
8864
8824
8824
8824
8864
8C44
8B84
8808
4808
4008
4010
ENDCHAR
STARTCHAR 24AC
ENCODING 9388
SWIDTH 1000 0
DWIDTH 16 0
BBX 14 16 1 -3
BITMAP
4010
4008
8008
8708
88C4
90C4
9044
9044
9044
9044
98C4
8F44
8048
8048
4008
4010
ENDCHAR
STARTCHAR 24AD
ENCODING 9389
SWIDTH 1000 0
DWIDTH 16 0
BBX 14 16 1 -3
BITMAP
4010
4008
4008
8008
8284
8304
8204
8204
8204
8204
8204
8204
8008
4008
4008
4010
ENDCHAR
STARTCHAR 24AE
ENCODING 9390
SWIDTH 1000 0
DWIDTH 16 0
BBX 14 16 1 -3
BITMAP
4010
4008
8008
8008
8784
88C4
8844
8404
8384
8844
8844
8784
8008
8008
4008
4010
ENDCHAR
STARTCHAR 24AF
ENCODING 9391
SWIDTH 1000 0
DWIDTH 16 0
BBX 14 16 1 -3
BITMAP
4010
4008
8008
8208
8204
8704
8204
8204
8204
8204
8204
8204
8308
8008
4008
4010
ENDCHAR
STARTCHAR 24B0
ENCODING 9392
SWIDTH 1000 0
DWIDTH 16 0
BBX 14 16 1 -3
BITMAP
4010
4008
8008
8008
8844
8844
8844
8844
8844
8844
88C4
8744
8008
8008
4008
4010
ENDCHAR
STARTCHAR 24B1
ENCODING 9393
SWIDTH 1000 0
DWIDTH 16 0
BBX 14 16 1 -3
BITMAP
4010
4008
4008
8008
8844
8844
8884
8484
8484
8504
8304
8304
8008
4008
4008
4010
ENDCHAR
STARTCHAR 24B2
ENCODING 9394
SWIDTH 1000 0
DWIDTH 16 0
BBX 14 16 1 -3
BITMAP
0010
4010
4008
8008
A314
A314
A324
9524
94A4
94C4
8CC4
88C4
8008
8008
4008
4010
ENDCHAR
STARTCHAR 24B3
ENCODING 9395
SWIDTH 1000 0
DWIDTH 16 0
BBX 14 16 1 -3
BITMAP
4010
4008
4008
8008
8844
8484
8304
8304
8304
8484
8484
8844
8008
4008
4008
4010
ENDCHAR
STARTCHAR 24B4
ENCODING 9396
SWIDTH 1000 0
DWIDTH 16 0
BBX 14 16 1 -3
BITMAP
4010
4008
4008
8848
8844
8444
8484
8484
8284
8304
8104
8104
8208
4608
4008
4010
ENDCHAR
STARTCHAR 24B5
ENCODING 9397
SWIDTH 1000 0
DWIDTH 16 0
BBX 14 16 1 -3
BITMAP
4010
4008
4008
8008
8FC4
8084
8084
8104
8204
8404
8804
8FC4
8008
4008
4008
4010
ENDCHAR
STARTCHAR 24B6
ENCODING 9398
SWIDTH 1000 0
DWIDTH 16 0
BBX 14 15 1 -4
BITMAP
0780
1860
2210
4308
C308
8504
8484
8484
8F84
8844
C848
5028
2010
1060
0FC0
ENDCHAR
STARTCHAR 24B7
ENCODING 9399
SWIDTH 1000 0
DWIDTH 16 0
BBX 14 15 1 -4
BITMAP
0780
1860
2FD0
4868
C828
8824
8864
8F84
8864
8824
C868
4FC8
2010
1060
0FC0
ENDCHAR
STARTCHAR 24B8
ENCODING 9400
SWIDTH 1000 0
DWIDTH 16 0
BBX 14 15 1 -4
BITMAP
0780
1860
2710
4CC8
D848
9044
9004
9004
9004
9044
D848
48C8
2790
1060
0FC0
ENDCHAR
STARTCHAR 24B9
ENCODING 9401
SWIDTH 1000 0
DWIDTH 16 0
BBX 14 15 1 -4
BITMAP
0780
1860
2010
4F88
C8C8
8864
8824
8824
8824
8824
C868
4848
2F90
1060
0FC0
ENDCHAR
STARTCHAR 24BA
ENCODING 9402
SWIDTH 1000 0
DWIDTH 16 0
BBX 14 15 1 -4
BITMAP
0780
1860
2010
4FC8
C808
8804
8804
8F84
8804
8804
C808
4808
2FD0
1060
0FC0
ENDCHAR
STARTCHAR 24BB
ENCODING 9403
SWIDTH 1000 0
DWIDTH 16 0
BBX 14 15 1 -4
BITMAP
0780
1860
2010
4FC8
C808
8804
8804
8F84
8804
8804
C808
4808
2010
1060
0FC0
ENDCHAR
STARTCHAR 24BC
ENCODING 9404
SWIDTH 1000 0
DWIDTH 16 0
BBX 14 15 1 -4
BITMAP
0780
1860
2790
4CC8
D868
9004
9004
91E4
9024
9024
D868
4868
27B0
1060
0FC0
ENDCHAR
STARTCHAR 24BD
ENCODING 9405
SWIDTH 1000 0
DWIDTH 16 0
BBX 14 15 1 -4
BITMAP
0780
1860
2010
5028
D028
9024
9024
9FE4
9024
9024
D028
5028
3030
1060
0FC0
ENDCHAR
STARTCHAR 24BE
ENCODING 9406
SWIDTH 1000 0
DWIDTH 16 0
BBX 14 15 1 -4
BITMAP
0780
1860
2010
4108
C108
8104
8104
8104
8104
8104
C108
4108
2110
1060
0FC0
ENDCHAR
STARTCHAR 24BF
ENCODING 9407
SWIDTH 1000 0
DWIDTH 16 0
BBX 14 15 1 -3
BITMAP
0780
1860
2010
4088
C088
8084
8084
8084
8084
8884
C888
4718
2030
1860
0780
ENDCHAR
STARTCHAR 24C0
ENCODING 9408
SWIDTH 1000 0
DWIDTH 16 0
BBX 14 15 1 -4
BITMAP
0780
1860
2010
4848
C888
8904
8A04
8A04
8D04
8904
C888
4848
2850
1060
0FC0
ENDCHAR
STARTCHAR 24C1
ENCODING 9409
SWIDTH 1000 0
DWIDTH 16 0
BBX 14 15 1 -4
BITMAP
0780
1860
2010
4808
C808
8804
8804
8804
8804
8804
C808
4FC8
2010
1060
0FC0
ENDCHAR
STARTCHAR 24C2
ENCODING 9410
SWIDTH 1000 0
DWIDTH 16 0
BBX 14 15 1 -4
BITMAP
0780
1860
2010
5838
D838
9854
9454
9454
9494
9294
D298
5318
3110
1060
0FC0
ENDCHAR
STARTCHAR 24C3
ENCODING 9411
SWIDTH 1000 0
DWIDTH 16 0
BBX 14 15 1 -4
BITMAP
0780
1860
2010
5028
D828
9424
9424
9224
9124
91A4
D0A8
5068
3070
1060
0FC0
ENDCHAR
STARTCHAR 24C4
ENCODING 9412
SWIDTH 1000 0
DWIDTH 16 0
BBX 14 15 1 -4
BITMAP
0780
1860
2790
4CC8
D848
9024
9024
9024
9024
9024
D848
48C8
2790
1060
0FC0
ENDCHAR
STARTCHAR 24C5
ENCODING 9413
SWIDTH 1000 0
DWIDTH 16 0
BBX 14 15 1 -4
BITMAP
0780
1860
2010
4FC8
C868
8824
8864
8FC4
8804
8804
C808
4808
2010
1060
0FC0
ENDCHAR
STARTCHAR 24C6
ENCODING 9414
SWIDTH 1000 0
DWIDTH 16 0
BBX 14 15 1 -4
BITMAP
0780
1860
2790
4CC8
D848
9024
9024
9024
9024
9024
D948
48C8
27D0
1060
0FC0
ENDCHAR
STARTCHAR 24C7
ENCODING 9415
SWIDTH 1000 0
DWIDTH 16 0
BBX 14 15 1 -4
BITMAP
0780
1860
2FD0
4868
C828
8824
8864
8F84
8844
8824
C828
4828
2010
1060
0FC0
ENDCHAR
STARTCHAR 24C8
ENCODING 9416
SWIDTH 1000 0
DWIDTH 16 0
BBX 14 15 1 -4
BITMAP
0780
1860
2790
4CC8
C848
8804
8C04
8384
8044
9024
D028
5868
27D0
1060
0FC0
ENDCHAR
STARTCHAR 24C9
ENCODING 9417
SWIDTH 1000 0
DWIDTH 16 0
BBX 14 15 1 -4
BITMAP
0780
1860
2010
4FC8
C108
8104
8104
8104
8104
8104
C108
4108
2110
1060
0FC0
ENDCHAR
STARTCHAR 24CA
ENCODING 9418
SWIDTH 1000 0
DWIDTH 16 0
BBX 14 15 1 -4
BITMAP
0780
1860
2010
5028
D028
9024
9024
9024
9024
9024
D028
5848
2790
1060
0FC0
ENDCHAR
STARTCHAR 24CB
ENCODING 9419
SWIDTH 1000 0
DWIDTH 16 0
BBX 14 15 1 -4
BITMAP
0780
1860
2010
5008
C848
8844
8884
8484
8484
8484
C508
4308
2310
1060
0FC0
ENDCHAR
STARTCHAR 24CC
ENCODING 9420
SWIDTH 1000 0
DWIDTH 16 0
BBX 14 15 1 -3
BITMAP
0780
1860
2010
6218
E318
A324
9524
9524
94A4
94C4
D8C8
4858
2030
1860
0780
ENDCHAR
STARTCHAR 24CD
ENCODING 9421
SWIDTH 1000 0
DWIDTH 16 0
BBX 14 15 1 -4
BITMAP
0780
1860
2010
4848
C888
8484
8304
8304
8304
8504
C488
4888
2850
1060
0FC0
ENDCHAR
STARTCHAR 24CE
ENCODING 9422
SWIDTH 1000 0
DWIDTH 16 0
BBX 14 15 1 -4
BITMAP
0780
1860
2010
4028
C848
8444
8484
8284
8104
8104
C108
4108
2110
1060
0FC0
ENDCHAR
STARTCHAR 24CF
ENCODING 9423
SWIDTH 1000 0
DWIDTH 16 0
BBX 14 15 1 -4
BITMAP
0780
1860
2FD0
4048
C088
8084
8104
8204
8204
8404
C408
4808
2FD0
1060
0FC0
ENDCHAR
STARTCHAR 24D0
ENCODING 9424
SWIDTH 1000 0
DWIDTH 16 0
BBX 14 15 1 -4
BITMAP
0780
1860
2010
4788
CCC8
8844
80C4
8744
8844
88C4
CF68
4008
2010
1060
0FC0
ENDCHAR
STARTCHAR 24D1
ENCODING 9425
SWIDTH 1000 0
DWIDTH 16 0
BBX 14 15 1 -3
BITMAP
0780
1860
2010
4808
C808
8B84
8C44
8824
8824
8824
C828
4C48
2BD0
1060
0FC0
ENDCHAR
STARTCHAR 24D2
ENCODING 9426
SWIDTH 1000 0
DWIDTH 16 0
BBX 14 15 1 -4
BITMAP
0780
1860
2010
4708
CC88
8844
8804
8804
8844
8C84
C788
4008
2010
1060
0FC0
ENDCHAR
STARTCHAR 24D3
ENCODING 9427
SWIDTH 1000 0
DWIDTH 16 0
BBX 14 15 1 -3
BITMAP
0780
1860
2010
4048
C048
8F44
98C4
9044
9044
9044
D048
58C8
2F50
1060
0FC0
ENDCHAR
STARTCHAR 24D4
ENCODING 9428
SWIDTH 1000 0
DWIDTH 16 0
BBX 14 15 1 -4
BITMAP
0780
1860
2010
4708
CC88
8884
8844
8FC4
8804
8884
C788
4008
2010
1060
0FC0
ENDCHAR
STARTCHAR 24D5
ENCODING 9429
SWIDTH 1000 0
DWIDTH 16 0
BBX 14 15 1 -4
BITMAP
0780
1860
2310
4208
C208
8704
8204
8204
8204
8204
C208
4208
2210
1060
0FC0
ENDCHAR
STARTCHAR 24D6
ENCODING 9430
SWIDTH 1000 0
DWIDTH 16 0
BBX 14 15 1 -4
BITMAP
0780
1860
2010
4748
CCC8
8844
8844
8844
8CC4
8744
C848
4CC8
2790
1060
0FC0
ENDCHAR
STARTCHAR 24D7
ENCODING 9431
SWIDTH 1000 0
DWIDTH 16 0
BBX 14 15 1 -3
BITMAP
0780
1860
2010
4808
C808
8B84
8CC4
8844
8844
8844
C848
4848
2850
1060
0FC0
ENDCHAR
STARTCHAR 24D8
ENCODING 9432
SWIDTH 1000 0
DWIDTH 16 0
BBX 14 15 1 -4
BITMAP
0780
1860
2010
4108
C008
8004
8104
8104
8104
8104
C108
4108
2110
1060
0FC0
ENDCHAR
STARTCHAR 24D9
ENCODING 9433
SWIDTH 1000 0
DWIDTH 16 0
BBX 14 15 1 -2
BITMAP
0780
1960
2010
4108
C108
8104
8104
8104
8104
8104
8108
4108
2110
1320
0FC0
ENDCHAR
STARTCHAR 24DA
ENCODING 9434
SWIDTH 1000 0
DWIDTH 16 0
BBX 14 15 1 -4
BITMAP
0780
1860
2810
4808
C808
8884
8904
8A04
8D04
8904
C888
4848
2010
1060
0FC0
ENDCHAR
STARTCHAR 24DB
ENCODING 9435
SWIDTH 1000 0
DWIDTH 16 0
BBX 14 15 1 -4
BITMAP
0780
1860
2010
4108
C108
8104
8104
8104
8104
8104
C108
4108
2110
1060
0FC0
ENDCHAR
STARTCHAR 24DC
ENCODING 9436
SWIDTH 1000 0
DWIDTH 16 0
BBX 14 15 1 -4
BITMAP
0780
1860
2010
4E68
F3B8
A114
A114
A114
A114
A114
E118
4008
2010
1060
0FC0
ENDCHAR
STARTCHAR 24DD
ENCODING 9437
SWIDTH 1000 0
DWIDTH 16 0
BBX 14 15 1 -4
BITMAP
0780
1860
2010
4388
CCC8
8844
8844
8844
8844
8844
C848
4008
2010
1060
0FC0
ENDCHAR
STARTCHAR 24DE
ENCODING 9438
SWIDTH 1000 0
DWIDTH 16 0
BBX 14 15 1 -4
BITMAP
0780
1860
2010
4308
C488
88C4
8844
8844
8844
8844
CC88
4788
2010
1060
0FC0
ENDCHAR
STARTCHAR 24DF
ENCODING 9439
SWIDTH 1000 0
DWIDTH 16 0
BBX 14 15 1 -4
BITMAP
0780
1860
2010
4B88
CC48
8824
8824
8824
8824
8C44
CBC8
4808
2810
1060
0FC0
ENDCHAR
STARTCHAR 24E0
ENCODING 9440
SWIDTH 1000 0
DWIDTH 16 0
BBX 14 15 1 -4
BITMAP
0780
1860
2010
4748
D8C8
9044
9044
9044
9044
98C4
CF48
4048
2050
1060
0FC0
ENDCHAR
STARTCHAR 24E1
ENCODING 9441
SWIDTH 1000 0
DWIDTH 16 0
BBX 14 15 1 -4
BITMAP
0780
1860
2010
4008
C288
8304
8204
8204
8204
8204
C208
4008
2010
1060
0FC0
ENDCHAR
STARTCHAR 24E2
ENCODING 9442
SWIDTH 1000 0
DWIDTH 16 0
BBX 14 15 1 -4
BITMAP
0780
1860
2010
4788
C8C8
8844
8404
8384
8844
8844
C788
4008
2010
1060
0FC0
ENDCHAR
STARTCHAR 24E3
ENCODING 9443
SWIDTH 1000 0
DWIDTH 16 0
BBX 14 16 1 -3
BITMAP
0780
1860
2030
4218
4208
870C
8204
8204
8204
8204
820C
4208
4308
2010
1060
0F80
ENDCHAR
STARTCHAR 24E4
ENCODING 9444
SWIDTH 1000 0
DWIDTH 16 0
BBX 14 15 1 -4
BITMAP
0780
1860
2010
4008
C848
8844
8844
8844
8844
8844
C8C8
4708
2010
1060
0FC0
ENDCHAR
STARTCHAR 24E5
ENCODING 9445
SWIDTH 1000 0
DWIDTH 16 0
BBX 14 16 1 -4
BITMAP
0780
1860
2030
4018
4008
888C
8884
8484
8484
8504
830C
4308
4008
2010
1060
0FC0
ENDCHAR
STARTCHAR 24E6
ENCODING 9446
SWIDTH 1000 0
DWIDTH 16 0
BBX 14 15 1 -3
BITMAP
0780
1860
2010
4008
C228
9324
9324
9544
8CC4
8CC4
CCC8
4018
2030
1860
0780
ENDCHAR
STARTCHAR 24E7
ENCODING 9447
SWIDTH 1000 0
DWIDTH 16 0
BBX 14 15 1 -4
BITMAP
0780
1860
2010
4008
C888
8484
8304
8204
8304
8484
C888
4008
2010
1060
0FC0
ENDCHAR
STARTCHAR 24E8
ENCODING 9448
SWIDTH 1000 0
DWIDTH 16 0
BBX 14 15 1 -4
BITMAP
0780
1860
2010
4008
C888
8484
8484
8504
8304
8304
C208
4208
2610
1060
0FC0
ENDCHAR
STARTCHAR 24E9
ENCODING 9449
SWIDTH 1000 0
DWIDTH 16 0
BBX 14 15 1 -4
BITMAP
0780
1860
2010
4008
C788
8084
8104
8204
8204
8404
CF88
4008
2010
1060
0FC0
ENDCHAR
STARTCHAR 2500
ENCODING 9472
SWIDTH 1000 0
DWIDTH 16 0
BBX 16 1 0 4
BITMAP
FFFF
ENDCHAR
STARTCHAR 2501
ENCODING 9473
SWIDTH 1000 0
DWIDTH 16 0
BBX 16 1 0 4
BITMAP
FFFF
ENDCHAR
STARTCHAR 2502
ENCODING 9474
SWIDTH 1000 0
DWIDTH 16 0
BBX 1 16 7 -3
BITMAP
80
80
80
80
80
80
80
80
80
80
80
80
80
80
80
80
ENDCHAR
STARTCHAR 2503
ENCODING 9475
SWIDTH 1000 0
DWIDTH 16 0
BBX 1 16 8 -3
BITMAP
80
80
80
80
80
80
80
80
80
80
80
80
80
80
80
80
ENDCHAR
STARTCHAR 250C
ENCODING 9484
SWIDTH 1000 0
DWIDTH 16 0
BBX 9 8 7 -4
BITMAP
FF80
8000
8000
8000
8000
8000
8000
8000
ENDCHAR
STARTCHAR 250D
ENCODING 9485
SWIDTH 1000 0
DWIDTH 16 0
BBX 9 8 7 -3
BITMAP
FF80
8000
8000
8000
8000
8000
8000
8000
ENDCHAR
STARTCHAR 250E
ENCODING 9486
SWIDTH 1000 0
DWIDTH 16 0
BBX 9 8 7 -4
BITMAP
FF80
8000
8000
8000
8000
8000
8000
8000
ENDCHAR
STARTCHAR 250F
ENCODING 9487
SWIDTH 1000 0
DWIDTH 16 0
BBX 9 8 7 -4
BITMAP
FF80
8000
8000
8000
8000
8000
8000
8000
ENDCHAR
STARTCHAR 2510
ENCODING 9488
SWIDTH 1000 0
DWIDTH 16 0
BBX 9 8 0 -4
BITMAP
FF80
0080
0080
0080
0080
0080
0080
0080
ENDCHAR
STARTCHAR 2511
ENCODING 9489
SWIDTH 1000 0
DWIDTH 16 0
BBX 9 8 0 -3
BITMAP
FF80
0080
0080
0080
0080
0080
0080
0080
ENDCHAR
STARTCHAR 2512
ENCODING 9490
SWIDTH 1000 0
DWIDTH 16 0
BBX 8 8 0 -4
BITMAP
FF
01
01
01
01
01
01
01
ENDCHAR
STARTCHAR 2513
ENCODING 9491
SWIDTH 1000 0
DWIDTH 16 0
BBX 9 8 0 -4
BITMAP
FF80
0080
0080
0080
0080
0080
0080
0080
ENDCHAR
STARTCHAR 2514
ENCODING 9492
SWIDTH 1000 0
DWIDTH 16 0
BBX 9 9 7 4
BITMAP
8000
8000
8000
8000
8000
8000
8000
8000
FF80
ENDCHAR
STARTCHAR 2515
ENCODING 9493
SWIDTH 1000 0
DWIDTH 16 0
BBX 9 9 7 4
BITMAP
8000
8000
8000
8000
8000
8000
8000
8000
FF80
ENDCHAR
STARTCHAR 2516
ENCODING 9494
SWIDTH 1000 0
DWIDTH 16 0
BBX 9 9 7 4
BITMAP
8000
8000
8000
8000
8000
8000
8000
8000
FF80
ENDCHAR
STARTCHAR 2517
ENCODING 9495
SWIDTH 1000 0
DWIDTH 16 0
BBX 9 9 7 4
BITMAP
8000
8000
8000
8000
8000
8000
8000
8000
FF80
ENDCHAR
STARTCHAR 2518
ENCODING 9496
SWIDTH 1000 0
DWIDTH 16 0
BBX 9 9 0 4
BITMAP
0080
0080
0080
0080
0080
0080
0080
0080
FF80
ENDCHAR
STARTCHAR 2519
ENCODING 9497
SWIDTH 1000 0
DWIDTH 16 0
BBX 9 9 0 4
BITMAP
0080
0080
0080
0080
0080
0080
0080
0080
FF80
ENDCHAR
STARTCHAR 251A
ENCODING 9498
SWIDTH 1000 0
DWIDTH 16 0
BBX 8 9 0 4
BITMAP
01
01
01
01
01
01
01
01
FF
ENDCHAR
STARTCHAR 251B
ENCODING 9499
SWIDTH 1000 0
DWIDTH 16 0
BBX 9 9 0 4
BITMAP
0080
0080
0080
0080
0080
0080
0080
0080
FF80
ENDCHAR
STARTCHAR 251C
ENCODING 9500
SWIDTH 1000 0
DWIDTH 16 0
BBX 9 16 7 -3
BITMAP
8000
8000
8000
8000
8000
8000
8000
8000
FF80
8000
8000
8000
8000
8000
8000
8000
ENDCHAR
STARTCHAR 251D
ENCODING 9501
SWIDTH 1000 0
DWIDTH 16 0
BBX 9 16 7 -3
BITMAP
8000
8000
8000
8000
8000
8000
8000
8000
FF80
8000
8000
8000
8000
8000
8000
8000
ENDCHAR
STARTCHAR 251E
ENCODING 9502
SWIDTH 1000 0
DWIDTH 16 0
BBX 9 16 7 -4
BITMAP
8000
8000
8000
8000
8000
8000
8000
8000
FF80
8000
8000
8000
8000
8000
8000
8000
ENDCHAR
STARTCHAR 251F
ENCODING 9503
SWIDTH 1000 0
DWIDTH 16 0
BBX 9 16 7 -3
BITMAP
8000
8000
8000
8000
8000
8000
8000
8000
FF80
8000
8000
8000
8000
8000
8000
8000
ENDCHAR
STARTCHAR 2520
ENCODING 9504
SWIDTH 1000 0
DWIDTH 16 0
BBX 9 16 7 -3
BITMAP
8000
8000
8000
8000
8000
8000
8000
8000
FF80
8000
8000
8000
8000
8000
8000
8000
ENDCHAR
STARTCHAR 2521
ENCODING 9505
SWIDTH 1000 0
DWIDTH 16 0
BBX 9 16 7 -4
BITMAP
8000
8000
8000
8000
8000
8000
8000
8000
FF80
8000
8000
8000
8000
8000
8000
8000
ENDCHAR
STARTCHAR 2522
ENCODING 9506
SWIDTH 1000 0
DWIDTH 16 0
BBX 9 16 7 -3
BITMAP
8000
8000
8000
8000
8000
8000
8000
8000
FF80
8000
8000
8000
8000
8000
8000
8000
ENDCHAR
STARTCHAR 2523
ENCODING 9507
SWIDTH 1000 0
DWIDTH 16 0
BBX 8 16 8 -3
BITMAP
80
80
80
80
80
80
80
80
FF
80
80
80
80
80
80
80
ENDCHAR
STARTCHAR 2524
ENCODING 9508
SWIDTH 1000 0
DWIDTH 16 0
BBX 9 16 0 -3
BITMAP
0080
0080
0080
0080
0080
0080
0080
0080
FF80
0080
0080
0080
0080
0080
0080
0080
ENDCHAR
STARTCHAR 2525
ENCODING 9509
SWIDTH 1000 0
DWIDTH 16 0
BBX 9 16 0 -3
BITMAP
0080
0080
0080
0080
0080
0080
0080
0080
FF80
0080
0080
0080
0080
0080
0080
0080
ENDCHAR
STARTCHAR 2526
ENCODING 9510
SWIDTH 1000 0
DWIDTH 16 0
BBX 8 16 0 -3
BITMAP
01
01
01
01
01
01
01
01
FF
01
01
01
01
01
01
01
ENDCHAR
STARTCHAR 2527
ENCODING 9511
SWIDTH 1000 0
DWIDTH 16 0
BBX 8 16 0 -4
BITMAP
01
01
01
01
01
01
01
01
FF
01
01
01
01
01
01
01
ENDCHAR
STARTCHAR 2528
ENCODING 9512
SWIDTH 1000 0
DWIDTH 16 0
BBX 8 16 0 -3
BITMAP
01
01
01
01
01
01
01
01
FF
01
01
01
01
01
01
01
ENDCHAR
STARTCHAR 2529
ENCODING 9513
SWIDTH 1000 0
DWIDTH 16 0
BBX 8 16 0 -3
BITMAP
01
01
01
01
01
01
01
01
FF
01
01
01
01
01
01
01
ENDCHAR
STARTCHAR 252A
ENCODING 9514
SWIDTH 1000 0
DWIDTH 16 0
BBX 8 16 0 -4
BITMAP
01
01
01
01
01
01
01
01
FF
01
01
01
01
01
01
01
ENDCHAR
STARTCHAR 252B
ENCODING 9515
SWIDTH 1000 0
DWIDTH 16 0
BBX 9 16 0 -3
BITMAP
0080
0080
0080
0080
0080
0080
0080
0080
FF80
0080
0080
0080
0080
0080
0080
0080
ENDCHAR
STARTCHAR 252C
ENCODING 9516
SWIDTH 1000 0
DWIDTH 16 0
BBX 16 8 0 -4
BITMAP
FFFF
0080
0080
0080
0080
0080
0080
0080
ENDCHAR
STARTCHAR 252D
ENCODING 9517
SWIDTH 1000 0
DWIDTH 16 0
BBX 16 8 0 -3
BITMAP
FFFF
0080
0080
0080
0080
0080
0080
0080
ENDCHAR
STARTCHAR 252E
ENCODING 9518
SWIDTH 1000 0
DWIDTH 16 0
BBX 16 8 0 -3
BITMAP
FFFF
0080
0080
0080
0080
0080
0080
0080
ENDCHAR
STARTCHAR 252F
ENCODING 9519
SWIDTH 1000 0
DWIDTH 16 0
BBX 16 8 0 -3
BITMAP
FFFF
0080
0080
0080
0080
0080
0080
0080
ENDCHAR
STARTCHAR 2530
ENCODING 9520
SWIDTH 1000 0
DWIDTH 16 0
BBX 16 8 0 -4
BITMAP
FFFF
0100
0100
0100
0100
0100
0100
0100
ENDCHAR
STARTCHAR 2531
ENCODING 9521
SWIDTH 1000 0
DWIDTH 16 0
BBX 16 8 0 -3
BITMAP
FFFF
0100
0100
0100
0100
0100
0100
0100
ENDCHAR
STARTCHAR 2532
ENCODING 9522
SWIDTH 1000 0
DWIDTH 16 0
BBX 16 8 0 -3
BITMAP
FFFF
0100
0100
0100
0100
0100
0100
0100
ENDCHAR
STARTCHAR 2533
ENCODING 9523
SWIDTH 1000 0
DWIDTH 16 0
BBX 16 8 0 -4
BITMAP
FFFF
0080
0080
0080
0080
0080
0080
0080
ENDCHAR
STARTCHAR 2534
ENCODING 9524
SWIDTH 1000 0
DWIDTH 16 0
BBX 16 9 0 4
BITMAP
0080
0080
0080
0080
0080
0080
0080
0080
FFFF
ENDCHAR
STARTCHAR 2535
ENCODING 9525
SWIDTH 1000 0
DWIDTH 16 0
BBX 16 9 0 4
BITMAP
0080
0080
0080
0080
0080
0080
0080
0080
FFFF
ENDCHAR
STARTCHAR 2536
ENCODING 9526
SWIDTH 1000 0
DWIDTH 16 0
BBX 16 9 0 4
BITMAP
0080
0080
0080
0080
0080
0080
0080
0080
FFFF
ENDCHAR
STARTCHAR 2537
ENCODING 9527
SWIDTH 1000 0
DWIDTH 16 0
BBX 16 9 0 4
BITMAP
0080
0080
0080
0080
0080
0080
0080
0080
FFFF
ENDCHAR
STARTCHAR 2538
ENCODING 9528
SWIDTH 1000 0
DWIDTH 16 0
BBX 16 9 0 4
BITMAP
0100
0100
0100
0100
0100
0100
0100
0100
FFFF
ENDCHAR
STARTCHAR 2539
ENCODING 9529
SWIDTH 1000 0
DWIDTH 16 0
BBX 16 9 0 4
BITMAP
0100
0100
0100
0100
0100
0100
0100
0100
FFFF
ENDCHAR
STARTCHAR 253A
ENCODING 9530
SWIDTH 1000 0
DWIDTH 16 0
BBX 16 9 0 4
BITMAP
0100
0100
0100
0100
0100
0100
0100
0100
FFFF
ENDCHAR
STARTCHAR 253B
ENCODING 9531
SWIDTH 1000 0
DWIDTH 16 0
BBX 16 9 0 4
BITMAP
0080
0080
0080
0080
0080
0080
0080
0080
FFFF
ENDCHAR
STARTCHAR 253C
ENCODING 9532
SWIDTH 1000 0
DWIDTH 16 0
BBX 16 16 0 -3
BITMAP
0080
0080
0080
0080
0080
0080
0080
0080
FFFF
0080
0080
0080
0080
0080
0080
0080
ENDCHAR
STARTCHAR 253D
ENCODING 9533
SWIDTH 1000 0
DWIDTH 16 0
BBX 16 16 0 -3
BITMAP
0080
0080
0080
0080
0080
0080
0080
0080
FFFF
0080
0080
0080
0080
0080
0080
0080
ENDCHAR
STARTCHAR 253E
ENCODING 9534
SWIDTH 1000 0
DWIDTH 16 0
BBX 16 16 0 -3
BITMAP
0080
0080
0080
0080
0080
0080
0080
0080
FFFF
0080
0080
0080
0080
0080
0080
0080
ENDCHAR
STARTCHAR 253F
ENCODING 9535
SWIDTH 1000 0
DWIDTH 16 0
BBX 16 16 0 -3
BITMAP
0080
0080
0080
0080
0080
0080
0080
0080
FFFF
0080
0080
0080
0080
0080
0080
0080
ENDCHAR
STARTCHAR 2540
ENCODING 9536
SWIDTH 1000 0
DWIDTH 16 0
BBX 16 16 0 -4
BITMAP
0100
0100
0100
0100
0100
0100
0100
0100
FFFF
0100
0100
0100
0100
0100
0100
0100
ENDCHAR
STARTCHAR 2541
ENCODING 9537
SWIDTH 1000 0
DWIDTH 16 0
BBX 16 16 0 -4
BITMAP
0100
0100
0100
0100
0100
0100
0100
0100
FFFF
0100
0100
0100
0100
0100
0100
0100
ENDCHAR
STARTCHAR 2542
ENCODING 9538
SWIDTH 1000 0
DWIDTH 16 0
BBX 16 16 0 -3
BITMAP
0100
0100
0100
0100
0100
0100
0100
0100
FFFF
0100
0100
0100
0100
0100
0100
0100
ENDCHAR
STARTCHAR 2543
ENCODING 9539
SWIDTH 1000 0
DWIDTH 16 0
BBX 16 16 0 -4
BITMAP
0100
0100
0100
0100
0100
0100
0100
0100
FFFF
0100
0100
0100
0100
0100
0100
0100
ENDCHAR
STARTCHAR 2544
ENCODING 9540
SWIDTH 1000 0
DWIDTH 16 0
BBX 16 16 0 -4
BITMAP
0100
0100
0100
0100
0100
0100
0100
0100
FFFF
0100
0100
0100
0100
0100
0100
0100
ENDCHAR
STARTCHAR 2545
ENCODING 9541
SWIDTH 1000 0
DWIDTH 16 0
BBX 16 16 0 -4
BITMAP
0100
0100
0100
0100
0100
0100
0100
0100
FFFF
0100
0100
0100
0100
0100
0100
0100
ENDCHAR
STARTCHAR 2546
ENCODING 9542
SWIDTH 1000 0
DWIDTH 16 0
BBX 16 16 0 -4
BITMAP
0100
0100
0100
0100
0100
0100
0100
0100
FFFF
0100
0100
0100
0100
0100
0100
0100
ENDCHAR
STARTCHAR 2547
ENCODING 9543
SWIDTH 1000 0
DWIDTH 16 0
BBX 16 16 0 -4
BITMAP
0100
0100
0100
0100
0100
0100
0100
0100
FFFF
0100
0100
0100
0100
0100
0100
0100
ENDCHAR
STARTCHAR 2548
ENCODING 9544
SWIDTH 1000 0
DWIDTH 16 0
BBX 16 16 0 -4
BITMAP
0100
0100
0100
0100
0100
0100
0100
0100
FFFF
0100
0100
0100
0100
0100
0100
0100
ENDCHAR
STARTCHAR 2549
ENCODING 9545
SWIDTH 1000 0
DWIDTH 16 0
BBX 16 16 0 -3
BITMAP
0100
0100
0100
0100
0100
0100
0100
0100
FFFF
0100
0100
0100
0100
0100
0100
0100
ENDCHAR
STARTCHAR 254A
ENCODING 9546
SWIDTH 1000 0
DWIDTH 16 0
BBX 16 16 0 -3
BITMAP
0100
0100
0100
0100
0100
0100
0100
0100
FFFF
0100
0100
0100
0100
0100
0100
0100
ENDCHAR
STARTCHAR 254B
ENCODING 9547
SWIDTH 1000 0
DWIDTH 16 0
BBX 16 16 0 -3
BITMAP
0080
0080
0080
0080
0080
0080
0080
0080
FFFF
0080
0080
0080
0080
0080
0080
0080
ENDCHAR
STARTCHAR 2592
ENCODING 9618
SWIDTH 1000 0
DWIDTH 16 0
BBX 12 12 2 -1
BITMAP
FFF0
DB70
8010
DB70
DB70
8010
DB70
DB70
8010
DB70
DB70
FFF0
ENDCHAR
STARTCHAR 25A0
ENCODING 9632
SWIDTH 1000 0
DWIDTH 16 0
BBX 11 11 3 -1
BITMAP
FFE0
FFE0
FFE0
FFE0
FFE0
FFE0
FFE0
FFE0
FFE0
FFE0
FFE0
ENDCHAR
STARTCHAR 25A1
ENCODING 9633
SWIDTH 1000 0
DWIDTH 16 0
BBX 11 11 2 -1
BITMAP
FFE0
8020
8020
8020
8020
8020
8020
8020
8020
8020
FFE0
ENDCHAR
STARTCHAR 25A3
ENCODING 9635
SWIDTH 1000 0
DWIDTH 16 0
BBX 12 12 2 -1
BITMAP
FFF0
8010
8010
9FD0
9FD0
9FD0
9FD0
9FD0
9FD0
9FD0
8010
FFF0
ENDCHAR
STARTCHAR 25A4
ENCODING 9636
SWIDTH 1000 0
DWIDTH 16 0
BBX 12 12 2 -1
BITMAP
FFF0
8010
FFF0
FFF0
8010
FFF0
8010
FFF0
FFF0
8010
FFF0
FFF0
ENDCHAR
STARTCHAR 25A5
ENCODING 9637
SWIDTH 1000 0
DWIDTH 16 0
BBX 12 12 2 -1
BITMAP
FFF0
D6B0
D6B0
D6B0
D6B0
D6B0
D6B0
D6B0
D6B0
D6B0
D6B0
FFF0
ENDCHAR
STARTCHAR 25A6
ENCODING 9638
SWIDTH 1000 0
DWIDTH 16 0
BBX 12 12 2 -1
BITMAP
FFF0
D6B0
FFF0
FFF0
D6B0
FFF0
D6B0
FFF0
FFF0
D6B0
FFF0
FFF0
ENDCHAR
STARTCHAR 25A7
ENCODING 9639
SWIDTH 1000 0
DWIDTH 16 0
BBX 12 12 2 -1
BITMAP
FFF0
D250
A930
9490
CA50
A530
D290
A950
94B0
CA50
A530
FFF0
ENDCHAR
STARTCHAR 25A8
ENCODING 9640
SWIDTH 1000 0
DWIDTH 16 0
BBX 12 12 2 -1
BITMAP
FFF0
A4B0
CB50
9490
A930
D250
A4B0
C950
9290
A530
CA50
FFF0
ENDCHAR
STARTCHAR 25A9
ENCODING 9641
SWIDTH 1000 0
DWIDTH 16 0
BBX 12 12 2 -1
BITMAP
FFF0
F7F0
EB70
9490
EB70
F770
F690
E970
96B0
EF70
EF70
FFF0
ENDCHAR
STARTCHAR 25B1
ENCODING 9649
SWIDTH 1000 0
DWIDTH 16 0
BBX 10 7 3 1
BITMAP
7FC0
4040
8040
8080
8080
8080
FF80
ENDCHAR
STARTCHAR 25B2
ENCODING 9650
SWIDTH 1000 0
DWIDTH 16 0
BBX 12 9 2 1
BITMAP
0600
0E00
0F00
1F80
1F80
3FC0
7FE0
7FE0
FFF0
ENDCHAR
STARTCHAR 25B3
ENCODING 9651
SWIDTH 1000 0
DWIDTH 16 0
BBX 12 10 2 1
BITMAP
0400
0600
0900
1100
1080
2080
2040
4020
8020
FFF0
ENDCHAR
STARTCHAR 25B5
ENCODING 9653
SWIDTH 1000 0
DWIDTH 16 0
BBX 12 9 2 0
BITMAP
0600
0E00
0900
1980
1080
2040
6060
4020
FFF0
ENDCHAR
STARTCHAR 25B6
ENCODING 9654
SWIDTH 1000 0
DWIDTH 16 0
BBX 9 12 3 -1
BITMAP
8000
E000
F000
FC00
FE00
FF80
FF80
FF00
FC00
F800
E000
C000
ENDCHAR
STARTCHAR 25B7
ENCODING 9655
SWIDTH 1000 0
DWIDTH 16 0
BBX 10 12 3 -1
BITMAP
8000
E000
9000
8C00
8200
8180
8040
8180
8600
8800
B000
C000
ENDCHAR
STARTCHAR 25B9
ENCODING 9657
SWIDTH 1000 0
DWIDTH 16 0
BBX 9 12 3 -1
BITMAP
8000
C000
B000
8C00
8600
8180
8180
8300
8C00
9800
E000
8000
ENDCHAR
STARTCHAR 25BC
ENCODING 9660
SWIDTH 1000 0
DWIDTH 16 0
BBX 12 10 2 -1
BITMAP
FFF0
FFF0
7FE0
3FC0
3FC0
1F80
0F00
0F00
0600
0600
ENDCHAR
STARTCHAR 25BD
ENCODING 9661
SWIDTH 1000 0
DWIDTH 16 0
BBX 12 10 2 -1
BITMAP
FFF0
8010
4020
4040
2040
1080
1100
0900
0A00
0600
ENDCHAR
STARTCHAR 25BF
ENCODING 9663
SWIDTH 1000 0
DWIDTH 16 0
BBX 12 9 2 0
BITMAP
FFF0
4020
6060
2040
1080
1980
0900
0F00
0600
ENDCHAR
STARTCHAR 25C0
ENCODING 9664
SWIDTH 1000 0
DWIDTH 16 0
BBX 9 12 4 -1
BITMAP
0080
0380
0780
1F80
3F80
FF80
FF80
7F80
1F80
0F80
0380
0180
ENDCHAR
STARTCHAR 25C1
ENCODING 9665
SWIDTH 1000 0
DWIDTH 16 0
BBX 10 12 3 -1
BITMAP
0040
01C0
0240
0C40
1040
6040
8040
6040
1840
0440
0340
00C0
ENDCHAR
STARTCHAR 25C3
ENCODING 9667
SWIDTH 1000 0
DWIDTH 16 0
BBX 9 12 4 -1
BITMAP
0080
0180
0680
1C80
3080
C080
C080
6080
1880
0C80
0380
0080
ENDCHAR
STARTCHAR 25C6
ENCODING 9670
SWIDTH 1000 0
DWIDTH 16 0
BBX 14 13 1 -2
BITMAP
0300
0780
0FC0
1FE0
3FF0
7FF8
FFFC
7FF8
3FF0
1FE0
0FC0
0780
0300
ENDCHAR
STARTCHAR 25C7
ENCODING 9671
SWIDTH 1000 0
DWIDTH 16 0
BBX 14 13 1 -2
BITMAP
0300
0480
0840
1020
2010
4008
8004
4008
2010
1020
0840
0480
0300
ENDCHAR
STARTCHAR 25C8
ENCODING 9672
SWIDTH 1000 0
DWIDTH 16 0
BBX 14 13 1 -2
BITMAP
0300
0480
0B40
17A0
2FD0
5FE8
9FE4
4FC8
2790
1320
0840
0480
0300
ENDCHAR
STARTCHAR 25C9
ENCODING 9673
SWIDTH 1000 0
DWIDTH 16 0
BBX 13 13 2 -2
BITMAP
0F80
3040
4020
4010
8710
8F88
8F88
8F88
8710
4010
2020
1040
0F80
ENDCHAR
STARTCHAR 25CA
ENCODING 9674
SWIDTH 1000 0
DWIDTH 16 0
BBX 12 13 2 -2
BITMAP
0600
0F00
1980
3080
2040
4020
C030
6060
30C0
1980
0900
0600
0200
ENDCHAR
STARTCHAR 25CB
ENCODING 9675
SWIDTH 1000 0
DWIDTH 16 0
BBX 12 12 2 -1
BITMAP
0F00
30C0
4020
8020
8010
8010
8010
8010
8020
4020
2040
1F80
ENDCHAR
STARTCHAR 25CC
ENCODING 9676
SWIDTH 1000 0
DWIDTH 16 0
BBX 15 15 1 -2
BITMAP
0140
0820
2008
0000
8004
0000
0000
8002
0000
8004
0004
0000
2000
0820
0100
ENDCHAR
STARTCHAR 25CE
ENCODING 9678
SWIDTH 1000 0
DWIDTH 16 0
BBX 13 13 1 -2
BITMAP
0F80
1060
2710
58D0
A048
A028
A028
A028
9048
4F90
2020
1040
0F80
ENDCHAR
STARTCHAR 25CF
ENCODING 9679
SWIDTH 1000 0
DWIDTH 16 0
BBX 12 12 2 -1
BITMAP
0F00
3FC0
7FE0
7FE0
FFF0
FFF0
FFF0
FFF0
7FE0
7FE0
3FC0
0F00
ENDCHAR
STARTCHAR 25D0
ENCODING 9680
SWIDTH 1000 0
DWIDTH 16 0
BBX 12 13 2 -2
BITMAP
0F00
3CC0
7C20
FC20
FC10
FC10
FC10
FC10
FC10
7C20
7C20
3CC0
0700
ENDCHAR
STARTCHAR 25D1
ENCODING 9681
SWIDTH 1000 0
DWIDTH 16 0
BBX 12 13 2 -2
BITMAP
0F00
33C0
43E0
43F0
83F0
83F0
83F0
83F0
83F0
43E0
43E0
33C0
0E00
ENDCHAR
STARTCHAR 25E6
ENCODING 9702
SWIDTH 1000 0
DWIDTH 16 0
BBX 9 8 4 1
BITMAP
3E00
4300
8080
8080
8080
8080
4100
3E00
ENDCHAR
STARTCHAR 25EF
ENCODING 9711
SWIDTH 1000 0
DWIDTH 16 0
BBX 14 14 1 -2
BITMAP
0780
1860
2010
4008
8004
8004
8004
8004
8004
8004
4008
2010
1020
0FC0
ENDCHAR
STARTCHAR 2605
ENCODING 9733
SWIDTH 1000 0
DWIDTH 16 0
BBX 12 11 2 0
BITMAP
0600
0600
0600
FFF0
7FE0
3FC0
1F80
1F80
1F80
30C0
2040
ENDCHAR
STARTCHAR 2606
ENCODING 9734
SWIDTH 1000 0
DWIDTH 16 0
BBX 12 11 2 0
BITMAP
0600
0600
0A00
F9F0
4020
2040
1080
1080
2680
39C0
2040
ENDCHAR
STARTCHAR 260E
ENCODING 9742
SWIDTH 1000 0
DWIDTH 16 0
BBX 14 10 1 -1
BITMAP
0FC0
7FF0
E8B8
EFBC
CCDC
1840
3060
7070
78F0
7FF8
ENDCHAR
STARTCHAR 260F
ENCODING 9743
SWIDTH 1000 0
DWIDTH 16 0
BBX 14 11 1 -1
BITMAP
0FC0
7FF0
BCE8
AFE4
F75C
18A0
2860
4850
8890
8708
7FF0
ENDCHAR
STARTCHAR 261C
ENCODING 9756
SWIDTH 1000 0
DWIDTH 16 0
BBX 12 5 2 3
BITMAP
FFB0
7E70
0DB0
0E70
0780
ENDCHAR
STARTCHAR 261D
ENCODING 9757
SWIDTH 1000 0
DWIDTH 16 0
BBX 5 12 5 -2
BITMAP
40
C0
C0
A0
F8
B8
C8
A8
88
48
78
78
ENDCHAR
STARTCHAR 261E
ENCODING 9758
SWIDTH 1000 0
DWIDTH 16 0
BBX 12 5 2 3
BITMAP
DFF0
E7E0
CB00
E700
1E00
ENDCHAR
STARTCHAR 261F
ENCODING 9759
SWIDTH 1000 0
DWIDTH 16 0
BBX 5 11 5 -1
BITMAP
78
78
48
88
A8
C8
B8
F8
C0
C0
40
ENDCHAR
STARTCHAR 262F
ENCODING 9775
SWIDTH 1000 0
DWIDTH 16 0
BBX 13 13 1 -2
BITMAP
0F80
1060
6010
4010
8008
81F8
83F8
C3F8
7FF8
7FF0
3FE0
1FC0
0200
ENDCHAR
STARTCHAR 2640
ENCODING 9792
SWIDTH 1000 0
DWIDTH 16 0
BBX 9 14 3 -3
BITMAP
0C00
1200
2100
2100
2200
1C00
0800
0800
FF80
0800
0800
0800
0800
0800
ENDCHAR
STARTCHAR 2642
ENCODING 9794
SWIDTH 1000 0
DWIDTH 16 0
BBX 7 14 4 -2
BITMAP
10
18
38
54
92
10
10
10
18
64
44
44
44
38
ENDCHAR
STARTCHAR 2660
ENCODING 9824
SWIDTH 1000 0
DWIDTH 16 0
BBX 10 13 3 -1
BITMAP
0C00
1E00
1E00
3F00
7F80
7F80
FFC0
FFC0
FFC0
FFC0
0C00
1C00
1E00
ENDCHAR
STARTCHAR 2661
ENCODING 9825
SWIDTH 1000 0
DWIDTH 16 0
BBX 12 12 2 -2
BITMAP
30C0
4B20
8610
8010
8010
8020
4020
2040
2040
1080
0900
0600
ENDCHAR
STARTCHAR 2663
ENCODING 9827
SWIDTH 1000 0
DWIDTH 16 0
BBX 13 13 2 -2
BITMAP
0F00
1F80
1F80
1F80
0F00
76F0
FFF0
FFF8
FFF8
FFF0
7760
0700
0700
ENDCHAR
STARTCHAR 2664
ENCODING 9828
SWIDTH 1000 0
DWIDTH 16 0
BBX 11 14 3 -2
BITMAP
0400
0400
0A00
1100
2080
4080
4040
8020
8020
8020
7BC0
0A00
0A00
0F00
ENDCHAR
STARTCHAR 2665
ENCODING 9829
SWIDTH 1000 0
DWIDTH 16 0
BBX 11 12 2 -2
BITMAP
3180
7BE0
FBE0
FFE0
FFE0
FFE0
7FC0
7FC0
3F80
1F00
0F00
0600
ENDCHAR
STARTCHAR 2667
ENCODING 9831
SWIDTH 1000 0
DWIDTH 16 0
BBX 13 14 1 -2
BITMAP
0300
0C80
0840
0840
0840
0480
7D70
8088
8008
8508
4E90
3560
0500
0700
ENDCHAR
STARTCHAR 2668
ENCODING 9832
SWIDTH 1000 0
DWIDTH 16 0
BBX 13 13 2 -1
BITMAP
0200
0A80
0A80
0A80
0A80
0A40
0B40
2B50
CA88
9288
C038
7FE0
0700
ENDCHAR
STARTCHAR 2669
ENCODING 9833
SWIDTH 1000 0
DWIDTH 16 0
BBX 3 12 7 -2
BITMAP
20
20
20
20
20
20
20
20
20
60
E0
C0
ENDCHAR
STARTCHAR 266A
ENCODING 9834
SWIDTH 1000 0
DWIDTH 16 0
BBX 6 11 5 -1
BITMAP
20
30
38
2C
24
24
28
28
60
E0
C0
ENDCHAR
STARTCHAR 266C
ENCODING 9836
SWIDTH 1000 0
DWIDTH 16 0
BBX 9 11 4 0
BITMAP
0780
3E80
2180
3F80
3880
2080
2080
2380
6300
C000
8000
ENDCHAR
STARTCHAR 266D
ENCODING 9837
SWIDTH 1000 0
DWIDTH 16 0
BBX 5 11 5 -1
BITMAP
80
80
80
B0
D8
88
88
88
90
A0
C0
ENDCHAR
STARTCHAR 266F
ENCODING 9839
SWIDTH 1000 0
DWIDTH 16 0
BBX 8 14 4 -2
BITMAP
04
24
24
24
3F
F4
24
24
24
FF
A4
24
24
20
ENDCHAR
STARTCHAR 2716
ENCODING 10006
SWIDTH 1000 0
DWIDTH 16 0
BBX 12 11 2 -1
BITMAP
30C0
79E0
FFF0
7FE0
3FC0
1F80
3FC0
7FE0
FFE0
39C0
1080
ENDCHAR
STARTCHAR 271A
ENCODING 10010
SWIDTH 1000 0
DWIDTH 16 0
BBX 12 12 2 -2
BITMAP
0F00
0F00
0F00
0F00
FFF0
FFF0
FFF0
FFF0
0F00
0F00
0F00
0F00
ENDCHAR
STARTCHAR 273D
ENCODING 10045
SWIDTH 1000 0
DWIDTH 16 0
BBX 8 9 4 0
BITMAP
10
10
D3
76
10
FE
93
10
10
ENDCHAR
STARTCHAR 2756
ENCODING 10070
SWIDTH 1000 0
DWIDTH 16 0
BBX 12 12 2 -1
BITMAP
0600
0F00
1F80
0F00
6660
F0F0
F9F0
70E0
2640
0F00
0F00
0600
ENDCHAR
STARTCHAR 2776
ENCODING 10102
SWIDTH 1000 0
DWIDTH 16 0
BBX 14 14 1 -3
BITMAP
0FC0
1FE0
3FF0
7FF8
F9F8
FFFC
FFFC
FFFC
FFFC
FFFC
7FF8
3FF0
3FF0
0FC0
ENDCHAR
STARTCHAR 2777
ENCODING 10103
SWIDTH 1000 0
DWIDTH 16 0
BBX 14 14 1 -2
BITMAP
0780
1FE0
3870
7BB8
F7BC
FFBC
FF7C
FEFC
FDFC
FBFC
77F8
3FF0
1FE0
0FC0
ENDCHAR
STARTCHAR 2778
ENCODING 10104
SWIDTH 1000 0
DWIDTH 16 0
BBX 14 14 1 -3
BITMAP
0FC0
1FE0
3C70
7BB8
F7B8
FFBC
FF7C
FFBC
FFFC
F7FC
73B8
3870
3FF0
0FC0
ENDCHAR
STARTCHAR 2779
ENCODING 10105
SWIDTH 1000 0
DWIDTH 16 0
BBX 14 14 1 -3
BITMAP
0FC0
1FE0
3EF0
7EF8
FDF8
FFFC
FBFC
F7FC
FFFC
FFFC
7FF8
7FF8
3FF0
0FC0
ENDCHAR
STARTCHAR 277A
ENCODING 10106
SWIDTH 1000 0
DWIDTH 16 0
BBX 14 14 1 -3
BITMAP
07C0
1FE0
3830
7BF8
7BFC
FEFC
FBFC
FFBC
FFFC
77BC
7BB8
3870
1FF0
0FC0
ENDCHAR
STARTCHAR 277B
ENCODING 10107
SWIDTH 1000 0
DWIDTH 16 0
BBX 14 14 1 -3
BITMAP
0FC0
1FE0
3C70
7B78
F7BC
F7FC
F37C
F7BC
F7BC
F7BC
73B8
3870
1FE0
0FC0
ENDCHAR
STARTCHAR 277C
ENCODING 10108
SWIDTH 1000 0
DWIDTH 16 0
BBX 14 14 1 -2
BITMAP
0FC0
1FE0
3FF0
7FB8
FF7C
FFFC
FEFC
FFFC
FDFC
FDFC
7DF8
3DF0
1FE0
0FC0
ENDCHAR
STARTCHAR 277D
ENCODING 10109
SWIDTH 1000 0
DWIDTH 16 0
BBX 14 14 1 -3
BITMAP
0FC0
1FE0
3C70
7B38
FFBC
FFBC
F87C
FBBC
F7FC
F7FC
73B8
3870
1FE0
0FC0
ENDCHAR
STARTCHAR 277E
ENCODING 10110
SWIDTH 1000 0
DWIDTH 16 0
BBX 14 14 1 -3
BITMAP
0F80
1FE0
3C70
7B78
F7B8
F7BC
F7BC
F33C
F8BC
FFBC
77F8
7B70
3FE0
0FC0
ENDCHAR
STARTCHAR 277F
ENCODING 10111
SWIDTH 1000 0
DWIDTH 16 0
BBX 14 14 1 -3
BITMAP
0FC0
1FE0
3730
76D8
C5FC
F5EC
F5EC
F5EC
F5EC
F5FC
76D8
7638
3FF0
0FC0
ENDCHAR
STARTCHAR 278A
ENCODING 10122
SWIDTH 1000 0
DWIDTH 16 0
BBX 14 14 1 -2
BITMAP
0FC0
1FE0
3CF0
78F8
F8FC
FCFC
FCFC
FCFC
FCFC
FCFC
7CF8
3CF0
1FE0
0FC0
ENDCHAR
STARTCHAR 278B
ENCODING 10123
SWIDTH 1000 0
DWIDTH 16 0
BBX 14 14 1 -3
BITMAP
0FC0
1FE0
3870
7B38
FB3C
FE7C
FE7C
FCFC
FCFC
F9FC
7078
7078
3FF0
0FC0
ENDCHAR
STARTCHAR 278C
ENCODING 10124
SWIDTH 1000 0
DWIDTH 16 0
BBX 14 14 1 -2
BITMAP
0FC0
1FE0
3870
7878
FA7C
FE7C
FC7C
FC7C
FE7C
FF7C
7A78
3870
1FE0
0FC0
ENDCHAR
STARTCHAR 278D
ENCODING 10125
SWIDTH 1000 0
DWIDTH 16 0
BBX 14 14 1 -2
BITMAP
0780
1FE0
3CF0
7CF8
FCF8
F8FC
FAFC
F2FC
F07C
F07C
7EF8
3EF0
1FE0
0FC0
ENDCHAR
STARTCHAR 278E
ENCODING 10126
SWIDTH 1000 0
DWIDTH 16 0
BBX 14 14 1 -2
BITMAP
0FC0
1FE0
3870
7878
F9FC
F87C
F87C
F97C
FF7C
FB7C
7978
3870
1FE0
0FC0
ENDCHAR
STARTCHAR 278F
ENCODING 10127
SWIDTH 1000 0
DWIDTH 16 0
BBX 14 14 1 -2
BITMAP
0780
1FE0
3C70
7878
FB78
FBFC
FA7C
F87C
FB7C
FB7C
7B78
3870
1FE0
0FC0
ENDCHAR
STARTCHAR 2790
ENCODING 10128
SWIDTH 1000 0
DWIDTH 16 0
BBX 14 14 1 -2
BITMAP
0FC0
1FE0
3870
7878
FE7C
FE7C
FE7C
FEFC
FCFC
FCFC
7CF8
3DF0
1FE0
0FC0
ENDCHAR
STARTCHAR 2791
ENCODING 10129
SWIDTH 1000 0
DWIDTH 16 0
BBX 14 14 1 -2
BITMAP
0780
1FE0
3870
7878
F978
F97C
F87C
F87C
F97C
FB7C
7978
3870
1FE0
0FC0
ENDCHAR
STARTCHAR 2792
ENCODING 10130
SWIDTH 1000 0
DWIDTH 16 0
BBX 14 14 1 -2
BITMAP
0FC0
1FE0
3870
7878
FB7C
FB7C
F97C
F87C
FF7C
FB7C
7978
3870
1FE0
0FC0
ENDCHAR
STARTCHAR 2793
ENCODING 10131
SWIDTH 1000 0
DWIDTH 16 0
BBX 14 14 1 -1
BITMAP
0FC0
3FE0
3330
6218
E25C
F25C
F25C
F25C
F25C
F25C
7258
3310
1FE0
0FC0
ENDCHAR
STARTCHAR 3000
ENCODING 12288
SWIDTH 1000 0
DWIDTH 16 0
BBX 0 0 0 0
BITMAP
ENDCHAR
STARTCHAR 3001
ENCODING 12289
SWIDTH 1000 0
DWIDTH 16 0
BBX 3 3 7 -2
BITMAP
80
60
20
ENDCHAR
STARTCHAR 3002
ENCODING 12290
SWIDTH 1000 0
DWIDTH 16 0
BBX 4 4 6 -3
BITMAP
60
90
90
60
ENDCHAR
STARTCHAR 3003
ENCODING 12291
SWIDTH 1000 0
DWIDTH 16 0
BBX 6 5 5 2
BITMAP
2C
48
48
90
80
ENDCHAR
STARTCHAR 3008
ENCODING 12296
SWIDTH 1000 0
DWIDTH 16 0
BBX 6 14 6 -3
BITMAP
04
08
10
10
20
40
80
80
40
40
20
10
08
04
ENDCHAR
STARTCHAR 3009
ENCODING 12297
SWIDTH 1000 0
DWIDTH 16 0
BBX 6 14 5 -3
BITMAP
80
80
40
20
10
08
08
04
08
10
20
20
40
80
ENDCHAR
STARTCHAR 300A
ENCODING 12298
SWIDTH 1000 0
DWIDTH 16 0
BBX 6 14 5 -2
BITMAP
0C
14
28
30
50
60
A0
C0
A0
50
30
28
18
14
ENDCHAR
STARTCHAR 300B
ENCODING 12299
SWIDTH 1000 0
DWIDTH 16 0
BBX 6 14 5 -2
BITMAP
C0
A0
60
50
28
18
14
14
18
28
30
50
60
C0
ENDCHAR
STARTCHAR 300C
ENCODING 12300
SWIDTH 1000 0
DWIDTH 16 0
BBX 5 7 5 4
BITMAP
F8
80
80
80
80
80
80
ENDCHAR
STARTCHAR 300D
ENCODING 12301
SWIDTH 1000 0
DWIDTH 16 0
BBX 5 7 5 -2
BITMAP
08
08
08
08
08
08
F8
ENDCHAR
STARTCHAR 300E
ENCODING 12302
SWIDTH 1000 0
DWIDTH 16 0
BBX 5 7 5 5
BITMAP
F8
F8
C0
C0
C0
C0
C0
ENDCHAR
STARTCHAR 300F
ENCODING 12303
SWIDTH 1000 0
DWIDTH 16 0
BBX 5 7 5 -2
BITMAP
18
18
18
18
18
F8
F8
ENDCHAR
STARTCHAR 3010
ENCODING 12304
SWIDTH 1000 0
DWIDTH 16 0
BBX 4 14 6 -2
BITMAP
F0
E0
E0
C0
C0
80
80
80
80
80
C0
C0
E0
F0
ENDCHAR
STARTCHAR 3011
ENCODING 12305
SWIDTH 1000 0
DWIDTH 16 0
BBX 4 14 6 -2
BITMAP
F0
70
30
30
10
10
10
10
10
10
30
30
70
F0
ENDCHAR
STARTCHAR 3012
ENCODING 12306
SWIDTH 1000 0
DWIDTH 16 0
BBX 13 13 2 -2
BITMAP
FFF8
0000
0000
0000
FFF8
0600
0600
0600
0600
0600
0600
0600
0600
ENDCHAR
STARTCHAR 3013
ENCODING 12307
SWIDTH 1000 0
DWIDTH 16 0
BBX 10 4 3 3
BITMAP
FFC0
0000
0000
FFC0
ENDCHAR
STARTCHAR 3014
ENCODING 12308
SWIDTH 1000 0
DWIDTH 16 0
BBX 4 14 6 -3
BITMAP
10
60
80
80
80
80
80
80
80
80
80
80
C0
30
ENDCHAR
STARTCHAR 3015
ENCODING 12309
SWIDTH 1000 0
DWIDTH 16 0
BBX 4 14 6 -3
BITMAP
80
60
10
10
10
10
10
10
10
10
10
10
30
C0
ENDCHAR
STARTCHAR 3016
ENCODING 12310
SWIDTH 1000 0
DWIDTH 16 0
BBX 5 14 6 -2
BITMAP
F8
90
A0
A0
A0
A0
A0
A0
A0
A0
A0
A0
90
F0
ENDCHAR
STARTCHAR 3017
ENCODING 12311
SWIDTH 1000 0
DWIDTH 16 0
BBX 5 14 5 -2
BITMAP
F8
48
48
28
28
28
28
28
28
28
28
48
48
78
ENDCHAR
STARTCHAR 3018
ENCODING 12312
SWIDTH 1000 0
DWIDTH 16 0
BBX 5 14 5 -2
BITMAP
18
28
F0
C0
C0
C0
C0
C0
C0
C0
C0
C0
70
38
ENDCHAR
STARTCHAR 3019
ENCODING 12313
SWIDTH 1000 0
DWIDTH 16 0
BBX 6 15 5 -2
BITMAP
C0
70
3C
0C
0C
0C
0C
0C
0C
0C
0C
0C
38
F0
40
ENDCHAR
STARTCHAR 301E
ENCODING 12318
SWIDTH 1000 0
DWIDTH 16 0
BBX 6 4 5 7
BITMAP
2C
48
50
80
ENDCHAR
STARTCHAR 301F
ENCODING 12319
SWIDTH 1000 0
DWIDTH 16 0
BBX 6 4 5 -3
BITMAP
2C
48
90
80
ENDCHAR
STARTCHAR 3020
ENCODING 12320
SWIDTH 1000 0
DWIDTH 16 0
BBX 13 11 1 0
BITMAP
0600
09C0
0730
60E8
8910
4100
2848
2448
1388
0C70
0380
ENDCHAR
STARTCHAR 3036
ENCODING 12342
SWIDTH 1000 0
DWIDTH 16 0
BBX 14 14 1 -2
BITMAP
0FC0
1020
2010
4008
BFF4
8004
8004
BFF4
8104
8104
4108
2110
1120
0FC0
ENDCHAR
STARTCHAR 3041
ENCODING 12353
SWIDTH 1000 0
DWIDTH 16 0
BBX 9 10 3 -2
BITMAP
1000
1000
7C00
1000
1E00
3580
5880
9880
9080
6300
ENDCHAR
STARTCHAR 3042
ENCODING 12354
SWIDTH 1000 0
DWIDTH 16 0
BBX 11 12 3 -1
BITMAP
0800
1B00
7E00
1000
1300
1FC0
7660
5420
9C20
9860
E8C0
0180
ENDCHAR
STARTCHAR 3043
ENCODING 12355
SWIDTH 1000 0
DWIDTH 16 0
BBX 10 7 3 0
BITMAP
C000
8100
8080
4080
40C0
4800
3000
ENDCHAR
STARTCHAR 3044
ENCODING 12356
SWIDTH 1000 0
DWIDTH 16 0
BBX 11 9 2 1
BITMAP
8000
8080
80C0
8040
8060
C020
4800
7800
3000
ENDCHAR
STARTCHAR 3045
ENCODING 12357
SWIDTH 1000 0
DWIDTH 16 0
BBX 6 10 5 -2
BITMAP
20
18
00
38
C4
04
04
04
08
18
ENDCHAR
STARTCHAR 3046
ENCODING 12358
SWIDTH 1000 0
DWIDTH 16 0
BBX 7 12 5 -1
BITMAP
18
08
00
3C
E6
82
02
02
06
04
0C
18
ENDCHAR
STARTCHAR 3047
ENCODING 12359
SWIDTH 1000 0
DWIDTH 16 0
BBX 8 10 4 0
BITMAP
10
08
00
F8
18
10
38
48
88
87
ENDCHAR
STARTCHAR 3048
ENCODING 12360
SWIDTH 1000 0
DWIDTH 16 0
BBX 11 12 2 -1
BITMAP
0C00
0700
0000
0000
7F00
0600
0C00
0E00
1E00
3200
6200
C3E0
ENDCHAR
STARTCHAR 3049
ENCODING 12361
SWIDTH 1000 0
DWIDTH 16 0
BBX 9 10 3 0
BITMAP
2000
2200
7180
2000
3E00
6100
6100
A100
A200
6400
ENDCHAR
STARTCHAR 304A
ENCODING 12362
SWIDTH 1000 0
DWIDTH 16 0
BBX 11 11 2 -1
BITMAP
1000
1080
3C60
5020
1000
1F80
30C0
5040
9040
90C0
7180
ENDCHAR
STARTCHAR 304B
ENCODING 12363
SWIDTH 1000 0
DWIDTH 16 0
BBX 12 12 2 -2
BITMAP
0800
0800
1840
1E60
F120
1110
3100
2100
6100
4300
C200
8E00
ENDCHAR
STARTCHAR 304C
ENCODING 12364
SWIDTH 1000 0
DWIDTH 16 0
BBX 12 12 2 -1
BITMAP
0810
0820
0800
1E40
F120
1130
3100
2100
2100
4300
4200
8E00
ENDCHAR
STARTCHAR 304D
ENCODING 12365
SWIDTH 1000 0
DWIDTH 16 0
BBX 8 14 4 -2
BITMAP
20
30
1C
70
0B
3C
E4
06
7A
C7
80
80
60
3C
ENDCHAR
STARTCHAR 304E
ENCODING 12366
SWIDTH 1000 0
DWIDTH 16 0
BBX 10 14 3 -1
BITMAP
2040
24C0
1C00
F000
1B00
3C00
EC00
0400
7A00
C700
8000
8000
6000
3800
ENDCHAR
STARTCHAR 304F
ENCODING 12367
SWIDTH 1000 0
DWIDTH 16 0
BBX 5 12 5 -1
BITMAP
18
10
30
60
40
80
C0
60
20
10
18
08
ENDCHAR
STARTCHAR 3050
ENCODING 12368
SWIDTH 1000 0
DWIDTH 16 0
BBX 8 12 4 -1
BITMAP
18
10
25
62
40
80
80
40
20
30
10
18
ENDCHAR
STARTCHAR 3051
ENCODING 12369
SWIDTH 1000 0
DWIDTH 16 0
BBX 10 12 3 -1
BITMAP
4100
4100
C140
8FC0
8100
8100
8100
C100
C100
C300
4200
0600
ENDCHAR
STARTCHAR 3052
ENCODING 12370
SWIDTH 1000 0
DWIDTH 16 0
BBX 13 13 2 -1
BITMAP
0010
4128
C100
81C0
8F80
8100
8100
8100
C100
C300
C200
4600
0400
ENDCHAR
STARTCHAR 3053
ENCODING 12371
SWIDTH 1000 0
DWIDTH 16 0
BBX 9 9 3 0
BITMAP
7E00
0000
0000
0000
0000
0000
8000
C080
7F80
ENDCHAR
STARTCHAR 3054
ENCODING 12372
SWIDTH 1000 0
DWIDTH 16 0
BBX 11 10 2 0
BITMAP
00A0
7E40
0000
0000
0000
0000
0000
8000
C080
7F80
ENDCHAR
STARTCHAR 3055
ENCODING 12373
SWIDTH 1000 0
DWIDTH 16 0
BBX 8 12 4 -1
BITMAP
30
10
1F
FC
0C
04
06
7A
C7
80
C0
3C
ENDCHAR
STARTCHAR 3056
ENCODING 12374
SWIDTH 1000 0
DWIDTH 16 0
BBX 10 13 3 -2
BITMAP
0040
20C0
1080
1E00
FC00
0800
0C00
0400
7A00
8600
8000
C000
7800
ENDCHAR
STARTCHAR 3057
ENCODING 12375
SWIDTH 1000 0
DWIDTH 16 0
BBX 8 13 4 -2
BITMAP
80
80
80
80
80
80
80
80
80
81
83
46
38
ENDCHAR
STARTCHAR 3058
ENCODING 12376
SWIDTH 1000 0
DWIDTH 16 0
BBX 7 13 4 -2
BITMAP
80
82
84
80
80
80
80
80
80
82
82
C6
38
ENDCHAR
STARTCHAR 3059
ENCODING 12377
SWIDTH 1000 0
DWIDTH 16 0
BBX 11 12 3 -1
BITMAP
0400
0400
FFE0
8400
0400
1C00
2400
2400
3C00
0400
0C00
1800
ENDCHAR
STARTCHAR 305A
ENCODING 12378
SWIDTH 1000 0
DWIDTH 16 0
BBX 12 14 2 -2
BITMAP
0050
0420
0400
FFE0
8400
0400
1C00
2400
2200
2600
1A00
0400
0C00
1800
ENDCHAR
STARTCHAR 305B
ENCODING 12379
SWIDTH 1000 0
DWIDTH 16 0
BBX 12 11 2 0
BITMAP
0080
1080
1080
1FF0
F080
1080
1080
1180
1000
1000
0FC0
ENDCHAR
STARTCHAR 305C
ENCODING 12380
SWIDTH 1000 0
DWIDTH 16 0
BBX 13 12 1 -1
BITMAP
0008
0098
1090
1080
1FF0
F080
1080
1080
1380
1000
1800
0FC0
ENDCHAR
STARTCHAR 305D
ENCODING 12381
SWIDTH 1000 0
DWIDTH 16 0
BBX 9 13 4 -3
BITMAP
7C00
6400
0800
1000
2000
5F80
E600
0800
1000
1000
1000
1C00
0600
ENDCHAR
STARTCHAR 305E
ENCODING 12382
SWIDTH 1000 0
DWIDTH 16 0
BBX 12 13 2 -3
BITMAP
7E00
7220
0C50
1000
3000
7F80
E600
0800
1800
1000
1800
0C00
0700
ENDCHAR
STARTCHAR 305F
ENCODING 12383
SWIDTH 1000 0
DWIDTH 16 0
BBX 10 12 3 -1
BITMAP
1000
1000
3C00
F000
2000
27C0
2000
6000
4000
4000
C800
87C0
ENDCHAR
STARTCHAR 3060
ENCODING 12384
SWIDTH 1000 0
DWIDTH 16 0
BBX 11 12 2 -1
BITMAP
1000
1020
1C40
F800
3000
27C0
2000
2000
6000
4000
C820
C7C0
ENDCHAR
STARTCHAR 3061
ENCODING 12385
SWIDTH 1000 0
DWIDTH 16 0
BBX 10 12 3 -2
BITMAP
1000
1000
1700
FC00
1000
1000
3780
38C0
0040
0040
00C0
0700
ENDCHAR
STARTCHAR 3062
ENCODING 12386
SWIDTH 1000 0
DWIDTH 16 0
BBX 11 12 2 -1
BITMAP
1020
1040
1700
FE00
1000
1000
1000
3780
38C0
0040
00C0
0700
ENDCHAR
STARTCHAR 3063
ENCODING 12387
SWIDTH 1000 0
DWIDTH 16 0
BBX 9 7 4 -1
BITMAP
0E00
F180
8080
0080
0180
0300
0C00
ENDCHAR
STARTCHAR 3064
ENCODING 12388
SWIDTH 1000 0
DWIDTH 16 0
BBX 11 8 3 -1
BITMAP
0F80
F040
8020
0020
0020
0060
00C0
0780
ENDCHAR
STARTCHAR 3065
ENCODING 12389
SWIDTH 1000 0
DWIDTH 16 0
BBX 13 10 2 0
BITMAP
0018
0030
0F80
F040
8020
0020
0020
0060
00C0
0780
ENDCHAR
STARTCHAR 3066
ENCODING 12390
SWIDTH 1000 0
DWIDTH 16 0
BBX 10 11 3 0
BITMAP
03C0
FF80
8200
0400
0C00
0800
0800
0C00
0600
0380
0180
ENDCHAR
STARTCHAR 3067
ENCODING 12391
SWIDTH 1000 0
DWIDTH 16 0
BBX 12 11 2 0
BITMAP
03C0
FF80
8200
0450
0820
0800
0800
0C00
0600
0380
0180
ENDCHAR
STARTCHAR 3068
ENCODING 12392
SWIDTH 1000 0
DWIDTH 16 0
BBX 8 12 4 -2
BITMAP
60
60
20
22
2E
30
60
C0
80
80
C0
7F
ENDCHAR
STARTCHAR 3069
ENCODING 12393
SWIDTH 1000 0
DWIDTH 16 0
BBX 11 12 3 -2
BITMAP
6040
60A0
6000
2200
2E00
3000
6000
C000
8000
8000
C000
7F00
ENDCHAR
STARTCHAR 306A
ENCODING 12394
SWIDTH 1000 0
DWIDTH 16 0
BBX 10 13 3 -1
BITMAP
1000
1000
1C00
F080
2040
4200
4200
8200
0F00
1380
12C0
1200
0C00
ENDCHAR
STARTCHAR 306B
ENCODING 12395
SWIDTH 1000 0
DWIDTH 16 0
BBX 10 11 3 -1
BITMAP
4000
CFC0
8000
8000
8000
8000
8000
C000
C800
C7C0
4000
ENDCHAR
STARTCHAR 306C
ENCODING 12396
SWIDTH 1000 0
DWIDTH 16 0
BBX 12 12 2 -1
BITMAP
0400
0400
4400
5F80
64C0
6C60
E820
9820
99E0
BA70
6A50
0180
ENDCHAR
STARTCHAR 306D
ENCODING 12397
SWIDTH 1000 0
DWIDTH 16 0
BBX 12 12 2 -2
BITMAP
2000
2000
3000
73C0
EC60
3020
6020
6020
A3E0
A460
24F0
2380
ENDCHAR
STARTCHAR 306E
ENCODING 12398
SWIDTH 1000 0
DWIDTH 16 0
BBX 12 9 2 0
BITMAP
0F80
3260
4230
C410
8410
8830
D820
70E0
0080
ENDCHAR
STARTCHAR 306F
ENCODING 12399
SWIDTH 1000 0
DWIDTH 16 0
BBX 11 12 2 -1
BITMAP
0100
4100
C140
8FC0
8100
8100
8100
A100
A780
C960
4920
4700
ENDCHAR
STARTCHAR 3070
ENCODING 12400
SWIDTH 1000 0
DWIDTH 16 0
BBX 12 12 2 0
BITMAP
0050
4120
4100
C140
8FC0
8100
8100
8100
A780
C960
4920
4F00
ENDCHAR
STARTCHAR 3071
ENCODING 12401
SWIDTH 1000 0
DWIDTH 16 0
BBX 13 13 2 -1
BITMAP
0030
0048
4130
C100
8140
8FC0
8100
8100
8100
A780
C960
4920
4700
ENDCHAR
STARTCHAR 3072
ENCODING 12402
SWIDTH 1000 0
DWIDTH 16 0
BBX 11 11 3 -1
BITMAP
7100
E180
4180
4160
8100
8100
8100
8200
8200
4600
7C00
ENDCHAR
STARTCHAR 3073
ENCODING 12403
SWIDTH 1000 0
DWIDTH 16 0
BBX 12 13 2 -2
BITMAP
0020
0050
7120
E180
4180
4160
8100
8100
8100
8200
8200
4600
7C00
ENDCHAR
STARTCHAR 3074
ENCODING 12404
SWIDTH 1000 0
DWIDTH 16 0
BBX 12 13 2 -2
BITMAP
0030
0050
7130
E180
4180
4160
8100
8100
8100
8200
8200
4600
3800
ENDCHAR
STARTCHAR 3075
ENCODING 12405
SWIDTH 1000 0
DWIDTH 16 0
BBX 12 12 2 -2
BITMAP
0C00
0700
0600
0000
0000
0C00
0200
0320
D130
6190
4100
0F00
ENDCHAR
STARTCHAR 3076
ENCODING 12406
SWIDTH 1000 0
DWIDTH 16 0
BBX 12 12 2 -1
BITMAP
0C50
0720
0600
0000
0000
0C00
0200
0320
D130
6190
4100
0F00
ENDCHAR
STARTCHAR 3077
ENCODING 12407
SWIDTH 1000 0
DWIDTH 16 0
BBX 12 13 2 -2
BITMAP
0030
0450
0730
0600
0000
0000
0C00
0200
0320
D130
6180
4100
0F00
ENDCHAR
STARTCHAR 3078
ENCODING 12408
SWIDTH 1000 0
DWIDTH 16 0
BBX 12 6 2 1
BITMAP
1800
2400
4300
8180
8070
0010
ENDCHAR
STARTCHAR 3079
ENCODING 12409
SWIDTH 1000 0
DWIDTH 16 0
BBX 12 7 2 2
BITMAP
0030
1860
2400
4300
81C0
0070
0010
ENDCHAR
STARTCHAR 307A
ENCODING 12410
SWIDTH 1000 0
DWIDTH 16 0
BBX 13 9 1 1
BITMAP
0020
0050
0050
1C20
3200
6100
C0C0
0038
0018
ENDCHAR
STARTCHAR 307B
ENCODING 12411
SWIDTH 1000 0
DWIDTH 16 0
BBX 11 11 2 0
BITMAP
4FC0
C100
C100
8FE0
8100
8100
A100
A7C0
C960
4920
4700
ENDCHAR
STARTCHAR 307C
ENCODING 12412
SWIDTH 1000 0
DWIDTH 16 0
BBX 13 11 1 0
BITMAP
4780
4128
C118
8140
8FC0
8100
8100
A780
C960
4920
4700
ENDCHAR
STARTCHAR 307D
ENCODING 12413
SWIDTH 1000 0
DWIDTH 16 0
BBX 13 12 1 -1
BITMAP
0090
47A8
C128
C110
8140
8FC0
8100
8100
A780
C960
4920
4700
ENDCHAR
STARTCHAR 307E
ENCODING 12414
SWIDTH 1000 0
DWIDTH 16 0
BBX 9 13 4 -1
BITMAP
0800
0900
FF00
0800
0900
7F00
0800
0800
3C00
CB00
8980
9880
7000
ENDCHAR
STARTCHAR 307F
ENCODING 12415
SWIDTH 1000 0
DWIDTH 16 0
BBX 12 11 2 0
BITMAP
3E00
3600
0400
0C40
0840
7FC0
D0E0
90B0
A190
6100
0100
ENDCHAR
STARTCHAR 3080
ENCODING 12416
SWIDTH 1000 0
DWIDTH 16 0
BBX 11 13 2 -1
BITMAP
1000
1000
7C40
1020
1000
7000
9000
9000
9000
7040
1040
10C0
0F00
ENDCHAR
STARTCHAR 3081
ENCODING 12417
SWIDTH 1000 0
DWIDTH 16 0
BBX 12 11 2 0
BITMAP
0200
0200
5FC0
3460
6430
7C10
9810
9830
9C30
64E0
0080
ENDCHAR
STARTCHAR 3082
ENCODING 12418
SWIDTH 1000 0
DWIDTH 16 0
BBX 8 13 4 -2
BITMAP
20
30
20
F8
20
20
A8
F9
61
41
61
23
1C
ENDCHAR
STARTCHAR 3083
ENCODING 12419
SWIDTH 1000 0
DWIDTH 16 0
BBX 10 9 3 -1
BITMAP
4400
4780
3E40
3040
D040
1380
1800
0800
0800
ENDCHAR
STARTCHAR 3084
ENCODING 12420
SWIDTH 1000 0
DWIDTH 16 0
BBX 12 12 2 -1
BITMAP
0600
4200
63E0
2F30
3990
7010
D030
08E0
0800
0C00
0400
0600
ENDCHAR
STARTCHAR 3085
ENCODING 12421
SWIDTH 1000 0
DWIDTH 16 0
BBX 9 9 4 -1
BITMAP
C400
8F00
B580
A480
C480
9580
8F00
8800
1800
ENDCHAR
STARTCHAR 3086
ENCODING 12422
SWIDTH 1000 0
DWIDTH 16 0
BBX 11 12 3 -1
BITMAP
0200
C200
8780
9A40
A260
E220
C220
CA60
CEC0
C700
0400
0C00
ENDCHAR
STARTCHAR 3087
ENCODING 12423
SWIDTH 1000 0
DWIDTH 16 0
BBX 7 10 4 0
BITMAP
10
10
1E
10
10
10
38
D6
92
60
ENDCHAR
STARTCHAR 3088
ENCODING 12424
SWIDTH 1000 0
DWIDTH 16 0
BBX 9 12 4 -1
BITMAP
0800
0800
0800
0F00
0800
0800
0800
0800
7C00
CB00
8980
7000
ENDCHAR
STARTCHAR 3089
ENCODING 12425
SWIDTH 1000 0
DWIDTH 16 0
BBX 8 12 4 -1
BITMAP
30
18
00
40
40
C0
DE
E3
01
01
06
1C
ENDCHAR
STARTCHAR 308A
ENCODING 12426
SWIDTH 1000 0
DWIDTH 16 0
BBX 7 12 4 -2
BITMAP
42
C2
82
82
82
E2
C2
C2
86
04
0C
08
ENDCHAR
STARTCHAR 308B
ENCODING 12427
SWIDTH 1000 0
DWIDTH 16 0
BBX 9 11 4 -1
BITMAP
7C00
0C00
1800
1000
2E00
7180
8080
1880
2580
2300
1E00
ENDCHAR
STARTCHAR 308C
ENCODING 12428
SWIDTH 1000 0
DWIDTH 16 0
BBX 12 12 2 -2
BITMAP
2000
2000
3000
7380
EC80
3080
6080
6080
E080
A090
20B0
20E0
ENDCHAR
STARTCHAR 308D
ENCODING 12429
SWIDTH 1000 0
DWIDTH 16 0
BBX 9 11 4 -1
BITMAP
7C00
0C00
0800
1000
3E00
6100
C080
8080
0080
0100
0E00
ENDCHAR
STARTCHAR 308E
ENCODING 12430
SWIDTH 1000 0
DWIDTH 16 0
BBX 9 9 3 -1
BITMAP
2000
3000
E700
3980
2080
6080
A080
2100
2200
ENDCHAR
STARTCHAR 308F
ENCODING 12431
SWIDTH 1000 0
DWIDTH 16 0
BBX 11 12 3 -1
BITMAP
2000
2000
3000
F380
ACC0
7060
6020
6020
A060
A040
21C0
2100
ENDCHAR
STARTCHAR 3090
ENCODING 12432
SWIDTH 1000 0
DWIDTH 16 0
BBX 11 11 2 0
BITMAP
3E00
0600
0400
0780
1840
6820
5820
9320
94E0
A4C0
E380
ENDCHAR
STARTCHAR 3091
ENCODING 12433
SWIDTH 1000 0
DWIDTH 16 0
BBX 10 13 3 -2
BITMAP
0400
3E00
0C00
1F00
3080
4880
1480
1500
0E00
3300
7480
9840
8840
ENDCHAR
STARTCHAR 3092
ENCODING 12434
SWIDTH 1000 0
DWIDTH 16 0
BBX 9 12 4 -1
BITMAP
1000
3000
F800
2000
5800
6D80
8600
9C00
3400
2000
2000
1E00
ENDCHAR
STARTCHAR 3093
ENCODING 12435
SWIDTH 1000 0
DWIDTH 16 0
BBX 10 12 3 -1
BITMAP
0400
0C00
0800
1800
1000
3000
3C00
2400
6440
C240
82C0
8380
ENDCHAR
STARTCHAR 30A1
ENCODING 12449
SWIDTH 1000 0
DWIDTH 16 0
BBX 8 9 4 -2
BITMAP
FF
01
12
14
18
10
10
20
40
ENDCHAR
STARTCHAR 30A2
ENCODING 12450
SWIDTH 1000 0
DWIDTH 16 0
BBX 10 11 3 -1
BITMAP
FFC0
00C0
0080
0900
0E00
0800
0800
1800
1000
3000
6000
ENDCHAR
STARTCHAR 30A3
ENCODING 12451
SWIDTH 1000 0
DWIDTH 16 0
BBX 7 9 4 -1
BITMAP
02
04
08
38
E8
08
08
08
08
ENDCHAR
STARTCHAR 30A4
ENCODING 12452
SWIDTH 1000 0
DWIDTH 16 0
BBX 8 13 4 -2
BITMAP
01
03
06
0C
18
38
C8
88
08
08
08
08
08
ENDCHAR
STARTCHAR 30A5
ENCODING 12453
SWIDTH 1000 0
DWIDTH 16 0
BBX 7 10 4 -2
BITMAP
10
10
FE
82
82
02
04
04
08
10
ENDCHAR
STARTCHAR 30A6
ENCODING 12454
SWIDTH 1000 0
DWIDTH 16 0
BBX 9 12 3 -1
BITMAP
0800
0800
FF80
8080
8080
8080
0180
0100
0300
0600
0C00
1800
ENDCHAR
STARTCHAR 30A7
ENCODING 12455
SWIDTH 1000 0
DWIDTH 16 0
BBX 9 7 3 0
BITMAP
7F00
0800
0800
0800
0800
0800
FF80
ENDCHAR
STARTCHAR 30A8
ENCODING 12456
SWIDTH 1000 0
DWIDTH 16 0
BBX 11 8 3 0
BITMAP
7FC0
0400
0400
0400
0400
0400
0400
FFE0
ENDCHAR
STARTCHAR 30A9
ENCODING 12457
SWIDTH 1000 0
DWIDTH 16 0
BBX 8 9 4 0
BITMAP
04
04
FF
0C
14
24
C4
04
1C
ENDCHAR
STARTCHAR 30AA
ENCODING 12458
SWIDTH 1000 0
DWIDTH 16 0
BBX 10 12 3 -2
BITMAP
0200
0200
0200
FFC0
0E00
0A00
1A00
3200
E200
8200
0600
0C00
ENDCHAR
STARTCHAR 30AB
ENCODING 12459
SWIDTH 1000 0
DWIDTH 16 0
BBX 9 12 4 -2
BITMAP
1000
1000
1000
FF80
1080
1080
1080
3080
2080
6180
C100
8700
ENDCHAR
STARTCHAR 30AC
ENCODING 12460
SWIDTH 1000 0
DWIDTH 16 0
BBX 12 12 2 -1
BITMAP
0810
0860
0800
FF80
0880
0880
1880
1080
3080
2080
C180
8300
ENDCHAR
STARTCHAR 30AD
ENCODING 12461
SWIDTH 1000 0
DWIDTH 16 0
BBX 10 12 3 -2
BITMAP
1800
0800
0880
3F80
6800
0800
0DC0
7F80
8400
0400
0400
0400
ENDCHAR
STARTCHAR 30AE
ENCODING 12462
SWIDTH 1000 0
DWIDTH 16 0
BBX 12 13 2 -2
BITMAP
0020
0850
0800
0880
3F80
6800
0C00
0DC0
7F80
C400
0400
0400
0400
ENDCHAR
STARTCHAR 30AF
ENCODING 12463
SWIDTH 1000 0
DWIDTH 16 0
BBX 9 12 4 -1
BITMAP
1800
1000
3F00
6180
C100
8300
0600
0400
0800
3800
6000
C000
ENDCHAR
STARTCHAR 30B0
ENCODING 12464
SWIDTH 1000 0
DWIDTH 16 0
BBX 12 12 2 -1
BITMAP
0850
1820
3F80
6080
C180
8100
0300
0600
0C00
1800
7000
4000
ENDCHAR
STARTCHAR 30B1
ENCODING 12465
SWIDTH 1000 0
DWIDTH 16 0
BBX 11 12 3 -2
BITMAP
1000
1000
3000
3FE0
4200
C200
8200
0600
0400
0400
0800
1800
ENDCHAR
STARTCHAR 30B2
ENCODING 12466
SWIDTH 1000 0
DWIDTH 16 0
BBX 12 12 2 -1
BITMAP
1050
1020
3000
7FC0
4200
8200
0200
0600
0400
0C00
0800
3000
ENDCHAR
STARTCHAR 30B3
ENCODING 12467
SWIDTH 1000 0
DWIDTH 16 0
BBX 8 9 4 0
BITMAP
FF
01
01
01
01
01
01
FF
01
ENDCHAR
STARTCHAR 30B4
ENCODING 12468
SWIDTH 1000 0
DWIDTH 16 0
BBX 12 12 2 1
BITMAP
0020
0050
0000
FF80
0080
0080
0080
0080
0080
0080
FF80
0080
ENDCHAR
STARTCHAR 30B5
ENCODING 12469
SWIDTH 1000 0
DWIDTH 16 0
BBX 11 12 2 -2
BITMAP
1080
1080
1080
FFE0
1080
1080
1080
1180
0100
0300
0600
0C00
ENDCHAR
STARTCHAR 30B6
ENCODING 12470
SWIDTH 1000 0
DWIDTH 16 0
BBX 13 12 1 -1
BITMAP
1128
1110
1100
FFE0
1100
1100
1100
1300
0200
0200
0400
0C00
ENDCHAR
STARTCHAR 30B7
ENCODING 12471
SWIDTH 1000 0
DWIDTH 16 0
BBX 10 10 3 0
BITMAP
2000
1000
0000
C040
60C0
0180
0300
0E00
3800
E000
ENDCHAR
STARTCHAR 30B8
ENCODING 12472
SWIDTH 1000 0
DWIDTH 16 0
BBX 10 10 3 0
BITMAP
6140
1080
0000
8040
60C0
0180
0300
0C00
3800
E000
ENDCHAR
STARTCHAR 30B9
ENCODING 12473
SWIDTH 1000 0
DWIDTH 16 0
BBX 10 9 3 0
BITMAP
7E00
0300
0300
0600
0600
0B00
1180
60C0
C000
ENDCHAR
STARTCHAR 30BA
ENCODING 12474
SWIDTH 1000 0
DWIDTH 16 0
BBX 10 11 3 0
BITMAP
0040
0080
FE00
0200
0600
0400
0C00
1A00
3100
E180
8080
ENDCHAR
STARTCHAR 30BB
ENCODING 12475
SWIDTH 1000 0
DWIDTH 16 0
BBX 11 11 2 -1
BITMAP
1000
1000
10C0
1FE0
F860
10C0
1180
1000
1000
1800
0FE0
ENDCHAR
STARTCHAR 30BC
ENCODING 12476
SWIDTH 1000 0
DWIDTH 16 0
BBX 12 12 2 -1
BITMAP
0050
2020
2000
2180
3F40
E0C0
2180
2300
2000
2000
3000
1FC0
ENDCHAR
STARTCHAR 30BD
ENCODING 12477
SWIDTH 1000 0
DWIDTH 16 0
BBX 10 11 3 0
BITMAP
8040
C0C0
6080
2180
0100
0300
0200
0600
0C00
1800
1000
ENDCHAR
STARTCHAR 30BE
ENCODING 12478
SWIDTH 1000 0
DWIDTH 16 0
BBX 12 13 2 -1
BITMAP
0010
0020
0000
8080
C180
4100
0300
0200
0600
0C00
1800
3000
2000
ENDCHAR
STARTCHAR 30BF
ENCODING 12479
SWIDTH 1000 0
DWIDTH 16 0
BBX 9 12 4 -1
BITMAP
1800
1000
3F00
6180
C100
8300
3600
0C00
0E00
3600
6200
C000
ENDCHAR
STARTCHAR 30C0
ENCODING 12480
SWIDTH 1000 0
DWIDTH 16 0
BBX 12 12 2 -1
BITMAP
0850
1820
3F80
6080
C180
8100
1B00
0E00
0E00
1B00
7000
C000
ENDCHAR
STARTCHAR 30C1
ENCODING 12481
SWIDTH 1000 0
DWIDTH 16 0
BBX 11 13 2 -1
BITMAP
0380
3C00
0400
0400
0400
FFE0
0400
0400
0400
0800
1800
3000
2000
ENDCHAR
STARTCHAR 30C2
ENCODING 12482
SWIDTH 1000 0
DWIDTH 16 0
BBX 13 13 1 -2
BITMAP
0080
3F00
0428
0410
0400
FFE0
0400
0400
0400
0800
1800
3000
2000
ENDCHAR
STARTCHAR 30C3
ENCODING 12483
SWIDTH 1000 0
DWIDTH 16 0
BBX 8 9 4 -2
BITMAP
10
91
91
82
02
04
08
10
20
ENDCHAR
STARTCHAR 30C4
ENCODING 12484
SWIDTH 1000 0
DWIDTH 16 0
BBX 10 11 3 0
BITMAP
0840
8840
CCC0
4080
0180
0100
0300
0600
0C00
1800
1000
ENDCHAR
STARTCHAR 30C5
ENCODING 12485
SWIDTH 1000 0
DWIDTH 16 0
BBX 14 13 1 -1
BITMAP
0008
0014
0800
C460
4440
60C0
0080
0180
0100
0300
0600
1C00
1000
ENDCHAR
STARTCHAR 30C6
ENCODING 12486
SWIDTH 1000 0
DWIDTH 16 0
BBX 11 11 3 -1
BITMAP
3F80
0000
0000
FFE0
0400
0400
0400
0C00
0800
1800
3000
ENDCHAR
STARTCHAR 30C7
ENCODING 12487
SWIDTH 1000 0
DWIDTH 16 0
BBX 13 13 1 -2
BITMAP
0010
0028
3F90
0000
0000
FFE0
0400
0400
0400
0C00
0800
1800
3000
ENDCHAR
STARTCHAR 30C8
ENCODING 12488
SWIDTH 1000 0
DWIDTH 16 0
BBX 5 12 5 -1
BITMAP
80
80
80
80
C0
B0
88
80
80
80
80
80
ENDCHAR
STARTCHAR 30C9
ENCODING 12489
SWIDTH 1000 0
DWIDTH 16 0
BBX 6 12 5 0
BITMAP
84
88
80
80
C0
B0
98
80
80
80
80
80
ENDCHAR
STARTCHAR 30CA
ENCODING 12490
SWIDTH 1000 0
DWIDTH 16 0
BBX 11 12 2 -1
BITMAP
0400
0400
0400
FFE0
0400
0400
0400
0400
0800
0800
1000
2000
ENDCHAR
STARTCHAR 30CB
ENCODING 12491
SWIDTH 1000 0
DWIDTH 16 0
BBX 10 8 3 1
BITMAP
7F00
0000
0000
0000
0000
0000
0000
FFC0
ENDCHAR
STARTCHAR 30CC
ENCODING 12492
SWIDTH 1000 0
DWIDTH 16 0
BBX 8 11 4 0
BITMAP
7F
01
03
02
36
1C
0C
1E
73
C1
80
ENDCHAR
STARTCHAR 30CD
ENCODING 12493
SWIDTH 1000 0
DWIDTH 16 0
BBX 11 13 2 -1
BITMAP
0400
0400
7F80
0180
0100
0200
0C80
3C40
E420
0400
0400
0400
0400
ENDCHAR
STARTCHAR 30CE
ENCODING 12494
SWIDTH 1000 0
DWIDTH 16 0
BBX 8 11 4 0
BITMAP
01
03
02
06
04
0C
18
10
60
C0
80
ENDCHAR
STARTCHAR 30CF
ENCODING 12495
SWIDTH 1000 0
DWIDTH 16 0
BBX 11 8 3 1
BITMAP
0100
1100
2080
2080
60C0
C040
8060
8000
ENDCHAR
STARTCHAR 30D0
ENCODING 12496
SWIDTH 1000 0
DWIDTH 16 0
BBX 12 9 2 1
BITMAP
0050
0020
1180
1080
20C0
2040
4060
C020
8000
ENDCHAR
STARTCHAR 30D1
ENCODING 12497
SWIDTH 1000 0
DWIDTH 16 0
BBX 13 10 2 0
BITMAP
0030
0048
0030
1100
3080
20C0
6040
4060
C060
8000
ENDCHAR
STARTCHAR 30D2
ENCODING 12498
SWIDTH 1000 0
DWIDTH 16 0
BBX 8 11 4 -2
BITMAP
80
80
83
9C
F0
80
80
80
80
80
FF
ENDCHAR
STARTCHAR 30D3
ENCODING 12499
SWIDTH 1000 0
DWIDTH 16 0
BBX 10 12 3 -1
BITMAP
0140
8080
8000
8200
8E00
F000
8000
8000
8000
8000
8000
FF00
ENDCHAR
STARTCHAR 30D4
ENCODING 12500
SWIDTH 1000 0
DWIDTH 16 0
BBX 11 13 3 -2
BITMAP
00C0
0120
80C0
8000
8600
9C00
F000
8000
8000
8000
8000
8000
FF00
ENDCHAR
STARTCHAR 30D5
ENCODING 12501
SWIDTH 1000 0
DWIDTH 16 0
BBX 10 10 3 -1
BITMAP
FF80
00C0
0080
0180
0180
0300
0600
0C00
1800
3000
ENDCHAR
STARTCHAR 30D6
ENCODING 12502
SWIDTH 1000 0
DWIDTH 16 0
BBX 12 13 2 -2
BITMAP
0020
0050
0020
FF80
0080
0080
0180
0100
0300
0600
0C00
1800
3000
ENDCHAR
STARTCHAR 30D7
ENCODING 12503
SWIDTH 1000 0
DWIDTH 16 0
BBX 12 14 2 -2
BITMAP
0020
0050
0050
0020
FF80
0080
0180
0180
0300
0300
0600
0C00
1800
6000
ENDCHAR
STARTCHAR 30D8
ENCODING 12504
SWIDTH 1000 0
DWIDTH 16 0
BBX 12 7 2 1
BITMAP
1800
3C00
6200
C180
80C0
0030
0010
ENDCHAR
STARTCHAR 30D9
ENCODING 12505
SWIDTH 1000 0
DWIDTH 16 0
BBX 12 8 2 2
BITMAP
0020
1040
3C00
6600
C180
80C0
0070
0010
ENDCHAR
STARTCHAR 30DA
ENCODING 12506
SWIDTH 1000 0
DWIDTH 16 0
BBX 12 8 2 1
BITMAP
0060
0090
1860
2C00
4300
8180
80E0
0030
ENDCHAR
STARTCHAR 30DB
ENCODING 12507
SWIDTH 1000 0
DWIDTH 16 0
BBX 10 12 3 -2
BITMAP
0400
0400
0400
FFC0
0400
0400
2480
44C0
C440
8440
0400
1C00
ENDCHAR
STARTCHAR 30DC
ENCODING 12508
SWIDTH 1000 0
DWIDTH 16 0
BBX 11 13 3 -2
BITMAP
0040
08A0
0840
0800
FFC0
0800
0800
4980
48C0
8840
8840
0800
1800
ENDCHAR
STARTCHAR 30DD
ENCODING 12509
SWIDTH 1000 0
DWIDTH 16 0
BBX 11 13 3 -2
BITMAP
0060
08A0
0860
0800
FFC0
0800
0800
4980
4880
8840
8840
0800
1800
ENDCHAR
STARTCHAR 30DE
ENCODING 12510
SWIDTH 1000 0
DWIDTH 16 0
BBX 10 8 3 0
BITMAP
FFC0
00C0
0080
0180
2300
1E00
0C00
0600
ENDCHAR
STARTCHAR 30DF
ENCODING 12511
SWIDTH 1000 0
DWIDTH 16 0
BBX 6 11 5 0
BITMAP
70
18
00
C0
38
08
00
C0
78
0C
04
ENDCHAR
STARTCHAR 30E0
ENCODING 12512
SWIDTH 1000 0
DWIDTH 16 0
BBX 12 10 2 0
BITMAP
0400
0400
0C00
0800
0800
1880
1040
2060
61E0
FF30
ENDCHAR
STARTCHAR 30E1
ENCODING 12513
SWIDTH 1000 0
DWIDTH 16 0
BBX 10 10 3 0
BITMAP
00C0
0080
0180
1900
0600
0700
0D80
1800
3000
E000
ENDCHAR
STARTCHAR 30E2
ENCODING 12514
SWIDTH 1000 0
DWIDTH 16 0
BBX 11 11 2 -1
BITMAP
7F80
0800
0800
0800
FFE0
0800
0800
0800
0800
0C00
07C0
ENDCHAR
STARTCHAR 30E3
ENCODING 12515
SWIDTH 1000 0
DWIDTH 16 0
BBX 8 9 4 -1
BITMAP
20
23
7D
A1
32
10
10
10
10
ENDCHAR
STARTCHAR 30E4
ENCODING 12516
SWIDTH 1000 0
DWIDTH 16 0
BBX 11 12 3 -2
BITMAP
2000
3000
3080
1FE0
F840
9080
1980
1800
0800
0800
0C00
0C00
ENDCHAR
STARTCHAR 30E5
ENCODING 12517
SWIDTH 1000 0
DWIDTH 16 0
BBX 9 7 3 0
BITMAP
3E00
0200
0200
0200
0200
0200
FF80
ENDCHAR
STARTCHAR 30E6
ENCODING 12518
SWIDTH 1000 0
DWIDTH 16 0
BBX 12 8 2 1
BITMAP
3F80
0080
0080
0080
0180
0180
0180
FFF0
ENDCHAR
STARTCHAR 30E7
ENCODING 12519
SWIDTH 1000 0
DWIDTH 16 0
BBX 7 8 4 -1
BITMAP
FE
02
02
FE
02
02
FE
02
ENDCHAR
STARTCHAR 30E8
ENCODING 12520
SWIDTH 1000 0
DWIDTH 16 0
BBX 8 10 4 0
BITMAP
FF
01
01
01
FF
01
01
01
FF
01
ENDCHAR
STARTCHAR 30E9
ENCODING 12521
SWIDTH 1000 0
DWIDTH 16 0
BBX 10 12 3 -2
BITMAP
3F00
0000
0000
0000
FF80
00C0
0080
0180
0300
0200
0C00
1800
ENDCHAR
STARTCHAR 30EA
ENCODING 12522
SWIDTH 1000 0
DWIDTH 16 0
BBX 6 12 5 -2
BITMAP
84
84
84
84
84
84
84
0C
08
18
30
20
ENDCHAR
STARTCHAR 30EB
ENCODING 12523
SWIDTH 1000 0
DWIDTH 16 0
BBX 11 11 2 0
BITMAP
2400
2400
2400
2400
2420
2420
2460
64C0
4580
C700
8000
ENDCHAR
STARTCHAR 30EC
ENCODING 12524
SWIDTH 1000 0
DWIDTH 16 0
BBX 9 11 3 0
BITMAP
8000
8000
8000
8000
8080
8180
8300
8600
9C00
F000
4000
ENDCHAR
STARTCHAR 30ED
ENCODING 12525
SWIDTH 1000 0
DWIDTH 16 0
BBX 8 9 4 0
BITMAP
FF
81
81
81
81
81
81
FF
81
ENDCHAR
STARTCHAR 30EE
ENCODING 12526
SWIDTH 1000 0
DWIDTH 16 0
BBX 8 9 4 -2
BITMAP
FF
81
81
81
02
02
06
0C
08
ENDCHAR
STARTCHAR 30EF
ENCODING 12527
SWIDTH 1000 0
DWIDTH 16 0
BBX 9 11 3 -1
BITMAP
FF80
8080
8080
8080
8080
0180
0100
0300
0200
0C00
0800
ENDCHAR
STARTCHAR 30F0
ENCODING 12528
SWIDTH 1000 0
DWIDTH 16 0
BBX 11 13 2 -2
BITMAP
0100
0100
0100
7FE0
2100
2100
2100
2100
FFE0
0100
0100
0100
0100
ENDCHAR
STARTCHAR 30F1
ENCODING 12529
SWIDTH 1000 0
DWIDTH 16 0
BBX 11 10 2 -1
BITMAP
7FC0
0060
0040
0080
0580
0600
0400
0400
0400
FFE0
ENDCHAR
STARTCHAR 30F2
ENCODING 12530
SWIDTH 1000 0
DWIDTH 16 0
BBX 10 11 3 -1
BITMAP
7F80
00C0
0080
0080
FF80
0100
0300
0600
0C00
1800
2000
ENDCHAR
STARTCHAR 30F3
ENCODING 12531
SWIDTH 1000 0
DWIDTH 16 0
BBX 10 10 3 0
BITMAP
8000
6000
2000
0040
0080
0300
0600
1C00
3000
E000
ENDCHAR
STARTCHAR 30F4
ENCODING 12532
SWIDTH 1000 0
DWIDTH 16 0
BBX 12 13 2 -1
BITMAP
0020
0850
0800
FF80
8080
8080
8080
0180
0100
0300
0600
0C00
1800
ENDCHAR
STARTCHAR 30F5
ENCODING 12533
SWIDTH 1000 0
DWIDTH 16 0
BBX 7 9 5 0
BITMAP
20
20
FE
22
22
62
42
86
0C
ENDCHAR
STARTCHAR 30F6
ENCODING 12534
SWIDTH 1000 0
DWIDTH 16 0
BBX 9 10 4 -2
BITMAP
1000
2000
7F80
4400
8400
0400
0800
0800
1000
2000
ENDCHAR
STARTCHAR 30FB
ENCODING 12539
SWIDTH 1000 0
DWIDTH 16 0
BBX 2 2 7 5
BITMAP
C0
C0
ENDCHAR
STARTCHAR 30FC
ENCODING 12540
SWIDTH 1000 0
DWIDTH 16 0
BBX 14 1 1 4
BITMAP
FFFC
ENDCHAR
STARTCHAR 3131
ENCODING 12593
SWIDTH 1000 0
DWIDTH 16 0
BBX 8 7 4 0
BITMAP
FF
01
01
01
01
01
01
ENDCHAR
STARTCHAR 3132
ENCODING 12594
SWIDTH 1000 0
DWIDTH 16 0
BBX 9 7 4 0
BITMAP
F780
1080
1080
1080
1080
1080
1080
ENDCHAR
STARTCHAR 3133
ENCODING 12595
SWIDTH 1000 0
DWIDTH 16 0
BBX 10 7 3 1
BITMAP
F100
1100
1100
1300
1280
14C0
1C40
ENDCHAR
STARTCHAR 3134
ENCODING 12596
SWIDTH 1000 0
DWIDTH 16 0
BBX 8 7 4 1
BITMAP
80
80
80
80
80
80
FF
ENDCHAR
STARTCHAR 3135
ENCODING 12597
SWIDTH 1000 0
DWIDTH 16 0
BBX 11 6 2 2
BITMAP
87C0
8040
8080
8180
8340
FE20
ENDCHAR
STARTCHAR 3136
ENCODING 12598
SWIDTH 1000 0
DWIDTH 16 0
BBX 10 8 3 1
BITMAP
0780
8000
8FC0
8380
8440
8440
FC40
0380
ENDCHAR
STARTCHAR 3137
ENCODING 12599
SWIDTH 1000 0
DWIDTH 16 0
BBX 8 6 4 2
BITMAP
FF
80
80
80
80
FF
ENDCHAR
STARTCHAR 3138
ENCODING 12600
SWIDTH 1000 0
DWIDTH 16 0
BBX 10 6 3 2
BITMAP
F7C0
8400
8400
8400
8400
FFC0
ENDCHAR
STARTCHAR 3139
ENCODING 12601
SWIDTH 1000 0
DWIDTH 16 0
BBX 8 8 4 1
BITMAP
FF
01
01
01
FF
80
80
FF
ENDCHAR
STARTCHAR 313A
ENCODING 12602
SWIDTH 1000 0
DWIDTH 16 0
BBX 9 7 3 1
BITMAP
F780
1080
1080
F080
8080
8080
F880
ENDCHAR
STARTCHAR 313B
ENCODING 12603
SWIDTH 1000 0
DWIDTH 16 0
BBX 9 7 3 1
BITMAP
F780
1480
1480
F480
8480
8480
FF80
ENDCHAR
STARTCHAR 313C
ENCODING 12604
SWIDTH 1000 0
DWIDTH 16 0
BBX 9 7 3 2
BITMAP
F480
1480
1780
F480
8480
8480
FF80
ENDCHAR
STARTCHAR 313D
ENCODING 12605
SWIDTH 1000 0
DWIDTH 16 0
BBX 10 7 3 1
BITMAP
F100
1100
1100
F300
8280
86C0
FC40
ENDCHAR
STARTCHAR 313E
ENCODING 12606
SWIDTH 1000 0
DWIDTH 16 0
BBX 9 7 3 1
BITMAP
F780
1400
1400
F780
8400
8400
FF80
ENDCHAR
STARTCHAR 313F
ENCODING 12607
SWIDTH 1000 0
DWIDTH 16 0
BBX 10 8 3 1
BITMAP
F000
17C0
1280
1280
F280
8280
8280
F7C0
ENDCHAR
STARTCHAR 3140
ENCODING 12608
SWIDTH 1000 0
DWIDTH 16 0
BBX 11 8 3 1
BITMAP
F3C0
1000
17E0
1380
F440
8440
8440
FB80
ENDCHAR
STARTCHAR 3141
ENCODING 12609
SWIDTH 1000 0
DWIDTH 16 0
BBX 8 6 4 2
BITMAP
FF
81
81
81
81
FF
ENDCHAR
STARTCHAR 3142
ENCODING 12610
SWIDTH 1000 0
DWIDTH 16 0
BBX 8 7 4 1
BITMAP
81
81
FF
81
81
81
FF
ENDCHAR
STARTCHAR 3143
ENCODING 12611
SWIDTH 1000 0
DWIDTH 16 0
BBX 9 7 3 2
BITMAP
9480
9480
F780
9480
9480
9480
F780
ENDCHAR
STARTCHAR 3144
ENCODING 12612
SWIDTH 1000 0
DWIDTH 16 0
BBX 10 7 3 2
BITMAP
9100
9100
F100
9280
9280
9440
F000
ENDCHAR
STARTCHAR 3145
ENCODING 12613
SWIDTH 1000 0
DWIDTH 16 0
BBX 9 7 4 2
BITMAP
0800
0800
1800
1C00
2600
4300
8080
ENDCHAR
STARTCHAR 3146
ENCODING 12614
SWIDTH 1000 0
DWIDTH 16 0
BBX 11 8 3 0
BITMAP
1100
1100
1100
3300
2A80
4660
8C00
0800
ENDCHAR
STARTCHAR 3147
ENCODING 12615
SWIDTH 1000 0
DWIDTH 16 0
BBX 8 8 4 1
BITMAP
3C
66
C3
81
81
83
46
3C
ENDCHAR
STARTCHAR 3148
ENCODING 12616
SWIDTH 1000 0
DWIDTH 16 0
BBX 10 8 3 1
BITMAP
7F80
0100
0200
0400
1C00
3300
C0C0
8000
ENDCHAR
STARTCHAR 3149
ENCODING 12617
SWIDTH 1000 0
DWIDTH 16 0
BBX 10 7 3 1
BITMAP
FF80
1080
1180
3100
5B80
84C0
0C00
ENDCHAR
STARTCHAR 314A
ENCODING 12618
SWIDTH 1000 0
DWIDTH 16 0
BBX 10 8 3 0
BITMAP
1E00
0000
7F80
0180
0300
0600
1B00
E0C0
ENDCHAR
STARTCHAR 314B
ENCODING 12619
SWIDTH 1000 0
DWIDTH 16 0
BBX 8 7 4 1
BITMAP
FF
01
01
01
7F
01
01
ENDCHAR
STARTCHAR 314C
ENCODING 12620
SWIDTH 1000 0
DWIDTH 16 0
BBX 8 7 4 1
BITMAP
FF
80
80
FF
80
80
FF
ENDCHAR
STARTCHAR 314D
ENCODING 12621
SWIDTH 1000 0
DWIDTH 16 0
BBX 9 8 3 1
BITMAP
7F80
2200
2200
2200
2200
2200
2200
FF80
ENDCHAR
STARTCHAR 314E
ENCODING 12622
SWIDTH 1000 0
DWIDTH 16 0
BBX 9 9 3 0
BITMAP
3E00
0000
FF80
1C00
6300
4100
4100
6300
1C00
ENDCHAR
STARTCHAR 314F
ENCODING 12623
SWIDTH 1000 0
DWIDTH 16 0
BBX 4 15 6 -2
BITMAP
80
80
80
80
80
80
80
F0
80
80
80
80
80
80
80
ENDCHAR
STARTCHAR 3150
ENCODING 12624
SWIDTH 1000 0
DWIDTH 16 0
BBX 5 15 5 -2
BITMAP
08
88
88
88
88
88
88
F8
88
88
88
88
88
88
88
ENDCHAR
STARTCHAR 3151
ENCODING 12625
SWIDTH 1000 0
DWIDTH 16 0
BBX 4 15 6 -2
BITMAP
80
80
80
80
80
F0
80
80
80
F0
80
80
80
80
80
ENDCHAR
STARTCHAR 3152
ENCODING 12626
SWIDTH 1000 0
DWIDTH 16 0
BBX 5 15 5 -2
BITMAP
08
88
88
88
88
F8
88
88
88
F8
88
88
88
88
88
ENDCHAR
STARTCHAR 3153
ENCODING 12627
SWIDTH 1000 0
DWIDTH 16 0
BBX 4 15 6 -2
BITMAP
10
10
10
10
10
10
10
F0
10
10
10
10
10
10
10
ENDCHAR
STARTCHAR 3154
ENCODING 12628
SWIDTH 1000 0
DWIDTH 16 0
BBX 7 15 4 -2
BITMAP
02
12
12
12
12
12
12
F2
12
12
12
12
12
12
12
ENDCHAR
STARTCHAR 3155
ENCODING 12629
SWIDTH 1000 0
DWIDTH 16 0
BBX 4 15 6 -2
BITMAP
10
10
10
10
10
F0
10
10
10
F0
10
10
10
10
10
ENDCHAR
STARTCHAR 3156
ENCODING 12630
SWIDTH 1000 0
DWIDTH 16 0
BBX 7 15 4 -2
BITMAP
02
12
12
12
12
F2
12
12
12
F2
12
12
12
12
12
ENDCHAR
STARTCHAR 3157
ENCODING 12631
SWIDTH 1000 0
DWIDTH 16 0
BBX 14 6 1 2
BITMAP
0200
0200
0200
0200
0200
FFFC
ENDCHAR
STARTCHAR 3158
ENCODING 12632
SWIDTH 1000 0
DWIDTH 16 0
BBX 14 15 1 -2
BITMAP
0020
0020
0020
0020
0020
0020
0820
083C
0820
0820
0820
FFA0
0020
0020
0020
ENDCHAR
STARTCHAR 3159
ENCODING 12633
SWIDTH 1000 0
DWIDTH 16 0
BBX 13 15 1 -2
BITMAP
0008
0048
0048
0048
0048
0048
0048
0878
0848
0848
0848
FF48
0048
0048
0048
ENDCHAR
STARTCHAR 315A
ENCODING 12634
SWIDTH 1000 0
DWIDTH 16 0
BBX 12 15 2 -2
BITMAP
0010
0010
0010
0010
0010
0010
0410
0410
0410
0410
0410
FFD0
0010
0010
0010
ENDCHAR
STARTCHAR 315B
ENCODING 12635
SWIDTH 1000 0
DWIDTH 16 0
BBX 14 6 1 2
BITMAP
0840
0840
0840
0840
0840
FFFC
ENDCHAR
STARTCHAR 315C
ENCODING 12636
SWIDTH 1000 0
DWIDTH 16 0
BBX 14 8 1 -1
BITMAP
FFFC
0200
0200
0200
0200
0200
0200
0200
ENDCHAR
STARTCHAR 315D
ENCODING 12637
SWIDTH 1000 0
DWIDTH 16 0
BBX 12 15 2 -2
BITMAP
0010
0010
0010
0010
0010
0010
0010
0050
FF90
0810
09F0
0810
0810
0810
0810
ENDCHAR
STARTCHAR 315E
ENCODING 12638
SWIDTH 1000 0
DWIDTH 16 0
BBX 12 15 2 -2
BITMAP
0010
0050
0050
0050
0050
0050
0050
FF50
1050
1050
13D0
1050
1050
1050
0050
ENDCHAR
STARTCHAR 315F
ENCODING 12639
SWIDTH 1000 0
DWIDTH 16 0
BBX 12 15 2 -2
BITMAP
0010
0010
0010
0010
0010
0010
0010
0050
FF90
0810
0810
0810
0810
0810
0810
ENDCHAR
STARTCHAR 3160
ENCODING 12640
SWIDTH 1000 0
DWIDTH 16 0
BBX 14 8 1 -1
BITMAP
FFFC
0840
0840
0840
0840
0840
0840
0840
ENDCHAR
STARTCHAR 3161
ENCODING 12641
SWIDTH 1000 0
DWIDTH 16 0
BBX 14 1 1 4
BITMAP
FFFC
ENDCHAR
STARTCHAR 3162
ENCODING 12642
SWIDTH 1000 0
DWIDTH 16 0
BBX 12 15 2 -2
BITMAP
0010
0010
0010
0010
0010
0010
0010
0010
0010
0010
FFD0
0010
0010
0010
0010
ENDCHAR
STARTCHAR 3163
ENCODING 12643
SWIDTH 1000 0
DWIDTH 16 0
BBX 1 15 7 -2
BITMAP
80
80
80
80
80
80
80
80
80
80
80
80
80
80
80
ENDCHAR
STARTCHAR 3164
ENCODING 12644
SWIDTH 1000 0
DWIDTH 16 0
BBX 0 0 0 0
BITMAP
ENDCHAR
STARTCHAR 3165
ENCODING 12645
SWIDTH 1000 0
DWIDTH 16 0
BBX 10 7 3 1
BITMAP
8400
8400
8400
8400
8400
8400
FFC0
ENDCHAR
STARTCHAR 3166
ENCODING 12646
SWIDTH 1000 0
DWIDTH 16 0
BBX 10 6 3 1
BITMAP
8780
8400
8400
8400
8400
FFC0
ENDCHAR
STARTCHAR 3167
ENCODING 12647
SWIDTH 1000 0
DWIDTH 16 0
BBX 11 7 3 1
BITMAP
8100
8100
8100
8300
8280
86C0
F460
ENDCHAR
STARTCHAR 3168
ENCODING 12648
SWIDTH 1000 0
DWIDTH 16 0
BBX 10 8 3 1
BITMAP
8000
8100
8300
8300
8580
8480
F480
07C0
ENDCHAR
STARTCHAR 3169
ENCODING 12649
SWIDTH 1000 0
DWIDTH 16 0
BBX 13 7 1 1
BITMAP
EF20
2120
2120
E170
8150
8148
F188
ENDCHAR
STARTCHAR 316A
ENCODING 12650
SWIDTH 1000 0
DWIDTH 16 0
BBX 10 7 3 1
BITMAP
F780
1400
1400
F400
8400
87C0
F000
ENDCHAR
STARTCHAR 316B
ENCODING 12651
SWIDTH 1000 0
DWIDTH 16 0
BBX 13 7 1 2
BITMAP
E920
2920
2F20
E960
8950
8958
FF88
ENDCHAR
STARTCHAR 316C
ENCODING 12652
SWIDTH 1000 0
DWIDTH 16 0
BBX 10 7 3 2
BITMAP
F100
1100
1380
F280
8480
84C0
FFC0
ENDCHAR
STARTCHAR 316D
ENCODING 12653
SWIDTH 1000 0
DWIDTH 16 0
BBX 10 7 3 1
BITMAP
F7C0
1000
1380
F440
8440
8440
FB80
ENDCHAR
STARTCHAR 316E
ENCODING 12654
SWIDTH 1000 0
DWIDTH 16 0
BBX 10 7 3 1
BITMAP
F440
9440
97C0
9440
9440
9440
F7C0
ENDCHAR
STARTCHAR 316F
ENCODING 12655
SWIDTH 1000 0
DWIDTH 16 0
BBX 10 7 3 1
BITMAP
F100
9100
9100
9300
9280
9680
FC40
ENDCHAR
STARTCHAR 3170
ENCODING 12656
SWIDTH 1000 0
DWIDTH 16 0
BBX 10 7 3 2
BITMAP
F100
9100
9300
9280
9480
94C0
F7C0
ENDCHAR
STARTCHAR 3171
ENCODING 12657
SWIDTH 1000 0
DWIDTH 16 0
BBX 8 11 4 -1
BITMAP
FF
81
81
81
81
FF
00
18
24
24
18
ENDCHAR
STARTCHAR 3172
ENCODING 12658
SWIDTH 1000 0
DWIDTH 16 0
BBX 9 7 3 2
BITMAP
9780
9080
F080
9080
9080
9080
F080
ENDCHAR
STARTCHAR 3173
ENCODING 12659
SWIDTH 1000 0
DWIDTH 16 0
BBX 10 7 3 2
BITMAP
9780
9400
F400
9400
9400
9400
F7C0
ENDCHAR
STARTCHAR 3174
ENCODING 12660
SWIDTH 1000 0
DWIDTH 16 0
BBX 12 7 2 1
BITMAP
92F0
9210
F210
9510
9510
9C90
F890
ENDCHAR
STARTCHAR 3175
ENCODING 12661
SWIDTH 1000 0
DWIDTH 16 0
BBX 13 7 2 1
BITMAP
9270
9240
F240
9240
9540
95C0
F8F8
ENDCHAR
STARTCHAR 3176
ENCODING 12662
SWIDTH 1000 0
DWIDTH 16 0
BBX 11 7 2 2
BITMAP
97C0
90C0
F080
9180
93C0
9660
F000
ENDCHAR
STARTCHAR 3177
ENCODING 12663
SWIDTH 1000 0
DWIDTH 16 0
BBX 10 8 3 1
BITMAP
03C0
9600
9600
F600
97C0
9600
9600
F3C0
ENDCHAR
STARTCHAR 3178
ENCODING 12664
SWIDTH 1000 0
DWIDTH 16 0
BBX 8 11 4 -1
BITMAP
81
81
FF
81
81
FF
00
18
24
24
18
ENDCHAR
STARTCHAR 3179
ENCODING 12665
SWIDTH 1000 0
DWIDTH 16 0
BBX 9 11 3 -1
BITMAP
9480
9480
F780
9480
9480
F780
0000
1C00
2200
2200
1C00
ENDCHAR
STARTCHAR 317A
ENCODING 12666
SWIDTH 1000 0
DWIDTH 16 0
BBX 10 7 3 1
BITMAP
13C0
1040
1040
2840
2840
6C40
C440
ENDCHAR
STARTCHAR 317B
ENCODING 12667
SWIDTH 1000 0
DWIDTH 16 0
BBX 11 7 2 1
BITMAP
1100
1100
1100
3100
2900
6900
C5E0
ENDCHAR
STARTCHAR 317C
ENCODING 12668
SWIDTH 1000 0
DWIDTH 16 0
BBX 11 7 2 1
BITMAP
11E0
1100
1100
3100
2900
6DE0
C400
ENDCHAR
STARTCHAR 317D
ENCODING 12669
SWIDTH 1000 0
DWIDTH 16 0
BBX 11 7 2 2
BITMAP
1120
1120
11E0
3920
2920
4520
C5E0
ENDCHAR
STARTCHAR 317E
ENCODING 12670
SWIDTH 1000 0
DWIDTH 16 0
BBX 12 7 2 2
BITMAP
13E0
1020
1060
3040
28A0
4D10
8400
ENDCHAR
STARTCHAR 317F
ENCODING 12671
SWIDTH 1000 0
DWIDTH 16 0
BBX 6 7 5 2
BITMAP
20
30
30
48
48
84
FC
ENDCHAR
STARTCHAR 3180
ENCODING 12672
SWIDTH 1000 0
DWIDTH 16 0
BBX 11 7 3 1
BITMAP
71C0
9A60
8A20
8A20
8A20
DB60
71C0
ENDCHAR
STARTCHAR 3181
ENCODING 12673
SWIDTH 1000 0
DWIDTH 16 0
BBX 7 8 4 2
BITMAP
10
7C
46
82
82
82
44
38
ENDCHAR
STARTCHAR 3182
ENCODING 12674
SWIDTH 1000 0
DWIDTH 16 0
BBX 11 8 2 1
BITMAP
2080
7080
C880
8580
8540
8540
CE20
7C20
ENDCHAR
STARTCHAR 3183
ENCODING 12675
SWIDTH 1000 0
DWIDTH 16 0
BBX 10 8 3 1
BITMAP
2000
2100
D980
8980
8A80
8A40
DA40
77C0
ENDCHAR
STARTCHAR 3184
ENCODING 12676
SWIDTH 1000 0
DWIDTH 16 0
BBX 9 11 4 0
BITMAP
FF80
2200
2200
2200
FF80
FF80
0000
1C00
2200
2200
1C00
ENDCHAR
STARTCHAR 3185
ENCODING 12677
SWIDTH 1000 0
DWIDTH 16 0
BBX 12 8 2 1
BITMAP
71C0
0000
FFF0
30C0
4920
4920
4920
30C0
ENDCHAR
STARTCHAR 3186
ENCODING 12678
SWIDTH 1000 0
DWIDTH 16 0
BBX 8 9 4 1
BITMAP
FF
00
3C
42
81
81
81
42
3C
ENDCHAR
STARTCHAR 3187
ENCODING 12679
SWIDTH 1000 0
DWIDTH 16 0
BBX 14 15 1 -3
BITMAP
0030
0030
0030
0030
0030
003C
1130
1130
1130
1130
117C
FFF0
0030
0030
0030
ENDCHAR
STARTCHAR 3188
ENCODING 12680
SWIDTH 1000 0
DWIDTH 16 0
BBX 13 15 2 -3
BITMAP
0018
00D8
00D8
00D8
00D8
00F8
24D8
24D8
24D8
24D8
3FF8
FED8
00D8
00D8
00D8
ENDCHAR
STARTCHAR 3189
ENCODING 12681
SWIDTH 1000 0
DWIDTH 16 0
BBX 12 15 2 -2
BITMAP
0010
0010
0010
0010
0010
0010
1110
1110
1110
1110
1110
FFD0
0010
0010
0010
ENDCHAR
STARTCHAR 318A
ENCODING 12682
SWIDTH 1000 0
DWIDTH 16 0
BBX 12 14 2 -1
BITMAP
0010
0010
0010
0010
0010
0010
FFD0
FA10
12F0
1210
12F0
1210
1210
1210
ENDCHAR
STARTCHAR 318B
ENCODING 12683
SWIDTH 1000 0
DWIDTH 16 0
BBX 12 15 2 -3
BITMAP
0010
00D0
00D0
00D0
00D0
00D0
00D0
FFD0
F4D0
27D0
24D0
24D0
27D0
24D0
24D0
ENDCHAR
STARTCHAR 318C
ENCODING 12684
SWIDTH 1000 0
DWIDTH 16 0
BBX 12 15 2 -2
BITMAP
0010
0010
0010
0010
0010
0010
0010
07D0
FF10
1110
1110
1110
1110
1110
0010
ENDCHAR
STARTCHAR 318D
ENCODING 12685
SWIDTH 1000 0
DWIDTH 16 0
BBX 2 1 7 4
BITMAP
C0
ENDCHAR
STARTCHAR 318E
ENCODING 12686
SWIDTH 1000 0
DWIDTH 16 0
BBX 5 15 5 -2
BITMAP
08
08
08
08
08
08
08
C8
08
08
08
08
08
08
08
ENDCHAR
STARTCHAR 3200
ENCODING 12800
SWIDTH 1000 0
DWIDTH 16 0
BBX 14 15 1 -3
BITMAP
4010
4008
8008
8004
BFC4
8044
8044
8044
8044
8044
8044
8008
8008
4008
4010
ENDCHAR
STARTCHAR 3201
ENCODING 12801
SWIDTH 1000 0
DWIDTH 16 0
BBX 14 15 1 -3
BITMAP
2008
4008
4008
8804
8804
8804
8804
8804
8804
8FF4
8004
8004
4008
4008
2008
ENDCHAR
STARTCHAR 3202
ENCODING 12802
SWIDTH 1000 0
DWIDTH 16 0
BBX 14 14 1 -3
BITMAP
4010
4008
4008
8004
9FE4
9004
9004
9004
9004
9004
9FE4
8004
4008
4008
ENDCHAR
STARTCHAR 3203
ENCODING 12803
SWIDTH 1000 0
DWIDTH 16 0
BBX 14 14 1 -3
BITMAP
4010
4008
4008
8004
9FE4
8024
8024
9FE4
9004
9004
9FE4
8004
4008
4008
ENDCHAR
STARTCHAR 3204
ENCODING 12804
SWIDTH 1000 0
DWIDTH 16 0
BBX 14 14 1 -3
BITMAP
4010
4008
8008
8004
9FE4
9024
9024
9024
9024
9FE4
9024
8004
4008
4008
ENDCHAR
STARTCHAR 3205
ENCODING 12805
SWIDTH 1000 0
DWIDTH 16 0
BBX 14 14 1 -3
BITMAP
4010
4008
4008
8004
9024
9024
9FE4
9024
9024
9FE4
9024
8004
4008
4008
ENDCHAR
STARTCHAR 3206
ENCODING 12806
SWIDTH 1000 0
DWIDTH 16 0
BBX 15 15 1 -3
BITMAP
4008
4004
4004
8104
8104
8102
8302
8282
84C2
8C62
9014
8004
4004
4004
0008
ENDCHAR
STARTCHAR 3207
ENCODING 12807
SWIDTH 1000 0
DWIDTH 16 0
BBX 14 14 1 -3
BITMAP
4010
4008
4008
8784
8844
9024
9024
9024
9024
8844
8784
8004
4008
4008
ENDCHAR
STARTCHAR 3208
ENCODING 12808
SWIDTH 1000 0
DWIDTH 16 0
BBX 14 15 1 -3
BITMAP
4008
4008
4008
8004
9FF4
8304
8304
8304
8684
8C44
9834
8004
4008
4008
2008
ENDCHAR
STARTCHAR 3209
ENCODING 12809
SWIDTH 1000 0
DWIDTH 16 0
BBX 14 15 1 -3
BITMAP
2008
4008
4008
8784
8004
9FF4
8304
8304
8784
8CC4
9834
8004
4008
4008
2008
ENDCHAR
STARTCHAR 320A
ENCODING 12810
SWIDTH 1000 0
DWIDTH 16 0
BBX 14 14 1 -3
BITMAP
4010
4008
4008
8004
9FE4
8024
8024
8064
9FA4
8024
8024
8004
4008
4008
ENDCHAR
STARTCHAR 320B
ENCODING 12811
SWIDTH 1000 0
DWIDTH 16 0
BBX 14 14 1 -3
BITMAP
4010
4008
4008
8004
9FE4
9004
9004
9FE4
9004
9004
9FE4
8004
4008
4008
ENDCHAR
STARTCHAR 320C
ENCODING 12812
SWIDTH 1000 0
DWIDTH 16 0
BBX 14 15 1 -3
BITMAP
2008
4008
4008
9FE4
8004
8004
8444
8444
8444
8444
9FF4
8004
4008
4008
2008
ENDCHAR
STARTCHAR 320D
ENCODING 12813
SWIDTH 1000 0
DWIDTH 16 0
BBX 14 15 1 -2
BITMAP
4008
4008
4008
8784
8004
BFF4
8004
87C4
8864
8824
8C64
87C4
4008
4008
2000
ENDCHAR
STARTCHAR 320E
ENCODING 12814
SWIDTH 1000 0
DWIDTH 16 0
BBX 14 14 1 -2
BITMAP
4008
4028
8028
BF24
8124
8124
823C
8224
8424
8824
B024
8028
4028
4008
ENDCHAR
STARTCHAR 320F
ENCODING 12815
SWIDTH 1000 0
DWIDTH 16 0
BBX 14 14 1 -2
BITMAP
4008
4028
8028
A024
A024
A024
A03C
A024
A024
BFA4
8024
8028
4028
4008
ENDCHAR
STARTCHAR 3210
ENCODING 12816
SWIDTH 1000 0
DWIDTH 16 0
BBX 14 14 1 -2
BITMAP
4008
4028
8028
BF24
A024
A024
A03C
A024
A024
A0A4
BF24
8028
4028
4008
ENDCHAR
STARTCHAR 3211
ENCODING 12817
SWIDTH 1000 0
DWIDTH 16 0
BBX 14 14 1 -3
BITMAP
4000
4028
8028
BF24
8124
8124
BF3C
A024
A024
A024
BFA4
8028
4028
4008
ENDCHAR
STARTCHAR 3212
ENCODING 12818
SWIDTH 1000 0
DWIDTH 16 0
BBX 14 14 1 -2
BITMAP
4008
4028
8028
BF24
A124
A124
A13C
A124
A124
A124
BF24
8028
4028
4008
ENDCHAR
STARTCHAR 3213
ENCODING 12819
SWIDTH 1000 0
DWIDTH 16 0
BBX 14 15 1 -2
BITMAP
4008
4028
8028
8124
A124
A124
BF3C
A124
A124
A124
BF24
8024
8028
4008
4008
ENDCHAR
STARTCHAR 3214
ENCODING 12820
SWIDTH 1000 0
DWIDTH 16 0
BBX 14 15 1 -3
BITMAP
4008
4028
4428
8424
8424
8C24
8C3C
8A24
9224
A124
8024
8024
4028
4008
0008
ENDCHAR
STARTCHAR 3215
ENCODING 12821
SWIDTH 1000 0
DWIDTH 16 0
BBX 14 15 1 -3
BITMAP
4008
4028
4028
9E24
9224
A124
A13C
A124
A124
9224
8C24
8024
4028
4008
0008
ENDCHAR
STARTCHAR 3216
ENCODING 12822
SWIDTH 1000 0
DWIDTH 16 0
BBX 14 14 1 -2
BITMAP
4008
4028
8028
BF24
8424
8424
8C3C
8A24
9224
B1A4
8024
8028
4028
4008
ENDCHAR
STARTCHAR 3217
ENCODING 12823
SWIDTH 1000 0
DWIDTH 16 0
BBX 14 14 1 -2
BITMAP
4008
4028
8E28
8024
BFA4
8424
843C
8C24
8A24
9124
A0A4
8028
4028
4008
ENDCHAR
STARTCHAR 3218
ENCODING 12824
SWIDTH 1000 0
DWIDTH 16 0
BBX 14 14 1 -2
BITMAP
4008
4028
8028
BF24
8124
8124
9E3C
8224
8424
8824
B024
8028
4028
4008
ENDCHAR
STARTCHAR 3219
ENCODING 12825
SWIDTH 1000 0
DWIDTH 16 0
BBX 14 14 1 -2
BITMAP
4008
4028
8028
BF24
A024
A024
BF3C
A024
A024
A0A4
BF24
8028
4028
4008
ENDCHAR
STARTCHAR 321A
ENCODING 12826
SWIDTH 1000 0
DWIDTH 16 0
BBX 14 15 1 -2
BITMAP
4008
4028
4028
9FA4
8024
9124
913C
9124
8924
8A24
BFA4
8024
4028
4008
2000
ENDCHAR
STARTCHAR 321B
ENCODING 12827
SWIDTH 1000 0
DWIDTH 16 0
BBX 14 15 1 -3
BITMAP
2000
4008
4028
8E28
8024
BFA4
8024
8E3C
9124
9124
9124
8E24
4028
4028
4008
ENDCHAR
STARTCHAR 321C
ENCODING 12828
SWIDTH 1000 0
DWIDTH 16 0
BBX 14 15 1 -2
BITMAP
4008
4008
5FE8
8104
8284
86C4
B834
8004
BFFC
8104
8104
8104
4108
4108
2000
ENDCHAR
STARTCHAR 3231
ENCODING 12849
SWIDTH 1000 0
DWIDTH 16 0
BBX 14 15 1 -3
BITMAP
4010
4848
49C8
8948
FDF4
8A44
9844
9FF4
ACC4
A964
8B74
8854
4848
4008
4010
ENDCHAR
STARTCHAR 3239
ENCODING 12857
SWIDTH 1000 0
DWIDTH 16 0
BBX 14 14 1 -3
BITMAP
4010
4008
4508
8964
8904
93F4
B504
9104
9084
9084
9084
9054
5068
4008
ENDCHAR
STARTCHAR 3260
ENCODING 12896
SWIDTH 1000 0
DWIDTH 16 0
BBX 14 14 1 -2
BITMAP
0FC0
1020
2010
4008
9FC4
8044
8044
8044
8044
8044
4048
2010
1020
0FC0
ENDCHAR
STARTCHAR 3261
ENCODING 12897
SWIDTH 1000 0
DWIDTH 16 0
BBX 14 14 1 -2
BITMAP
0FC0
1020
2010
4808
8804
8804
8804
8804
8804
8FE4
4008
2010
1020
0FC0
ENDCHAR
STARTCHAR 3262
ENCODING 12898
SWIDTH 1000 0
DWIDTH 16 0
BBX 14 14 1 -2
BITMAP
0FC0
1020
2010
4008
9FC4
9004
9004
9004
9004
9FE4
4008
2010
1020
0FC0
ENDCHAR
STARTCHAR 3263
ENCODING 12899
SWIDTH 1000 0
DWIDTH 16 0
BBX 14 14 1 -2
BITMAP
0FC0
1020
2010
4008
9FE4
8024
8024
9FE4
9004
9004
5FE8
2010
1020
0FC0
ENDCHAR
STARTCHAR 3264
ENCODING 12900
SWIDTH 1000 0
DWIDTH 16 0
BBX 14 14 1 -2
BITMAP
0FC0
1020
2010
4008
8FE4
8824
8824
8824
8824
8FE4
4828
2010
1020
0FC0
ENDCHAR
STARTCHAR 3265
ENCODING 12901
SWIDTH 1000 0
DWIDTH 16 0
BBX 14 14 1 -2
BITMAP
0FC0
1020
2010
4008
8824
8824
8FE4
8824
8824
8FE4
4828
2010
1020
0FC0
ENDCHAR
STARTCHAR 3266
ENCODING 12902
SWIDTH 1000 0
DWIDTH 16 0
BBX 14 14 1 -2
BITMAP
0FC0
1020
2010
4108
8104
8104
8284
8684
8C44
9824
4008
2010
1020
0FC0
ENDCHAR
STARTCHAR 3267
ENCODING 12903
SWIDTH 1000 0
DWIDTH 16 0
BBX 14 14 1 -2
BITMAP
0FC0
1020
2010
4008
8784
8844
9024
9024
9024
8844
4788
2010
1020
0FC0
ENDCHAR
STARTCHAR 3268
ENCODING 12904
SWIDTH 1000 0
DWIDTH 16 0
BBX 14 14 1 -2
BITMAP
0FC0
1020
2010
4008
9FE4
8104
8104
8284
86C4
8C64
5008
2010
1020
0FC0
ENDCHAR
STARTCHAR 3269
ENCODING 12905
SWIDTH 1000 0
DWIDTH 16 0
BBX 14 14 1 -2
BITMAP
0FC0
1020
2010
4788
8004
9FE4
8304
8304
8684
8C64
5008
2010
1020
0FC0
ENDCHAR
STARTCHAR 326A
ENCODING 12906
SWIDTH 1000 0
DWIDTH 16 0
BBX 14 14 1 -2
BITMAP
0FC0
1020
2010
4008
8FE4
8024
8024
9FE4
8024
8024
4028
2010
1020
0FC0
ENDCHAR
STARTCHAR 326B
ENCODING 12907
SWIDTH 1000 0
DWIDTH 16 0
BBX 14 14 1 -2
BITMAP
0FC0
1020
2010
4008
8FE4
8804
8804
8FE4
8804
8804
4FF8
2010
1020
0FC0
ENDCHAR
STARTCHAR 326C
ENCODING 12908
SWIDTH 1000 0
DWIDTH 16 0
BBX 14 14 1 -2
BITMAP
0FC0
1020
2010
4008
9FE4
8004
8444
8444
8444
8444
5FF8
2010
1020
0FC0
ENDCHAR
STARTCHAR 326D
ENCODING 12909
SWIDTH 1000 0
DWIDTH 16 0
BBX 14 14 1 -2
BITMAP
0FC0
1020
2010
4788
8004
9FF4
8004
87C4
8824
8824
4C68
27D0
1020
0FC0
ENDCHAR
STARTCHAR 326E
ENCODING 12910
SWIDTH 1000 0
DWIDTH 16 0
BBX 14 14 1 -2
BITMAP
0FC0
1020
2050
5F48
8144
8144
8274
8244
8444
8844
5048
2050
1020
0FC0
ENDCHAR
STARTCHAR 326F
ENCODING 12911
SWIDTH 1000 0
DWIDTH 16 0
BBX 14 14 1 -2
BITMAP
0FC0
1020
2030
4028
9024
9024
9034
9024
90A4
9F24
4028
2030
1020
0FC0
ENDCHAR
STARTCHAR 3270
ENCODING 12912
SWIDTH 1000 0
DWIDTH 16 0
BBX 14 14 1 -2
BITMAP
0FC0
1020
2050
5F48
9044
9044
9074
9044
9044
9F44
4048
2050
1020
0FC0
ENDCHAR
STARTCHAR 3271
ENCODING 12913
SWIDTH 1000 0
DWIDTH 16 0
BBX 14 14 1 -2
BITMAP
0FC0
1020
2030
5F28
8124
8124
9F34
9024
9024
9024
5FA8
2030
1020
0FC0
ENDCHAR
STARTCHAR 3272
ENCODING 12914
SWIDTH 1000 0
DWIDTH 16 0
BBX 14 14 1 -2
BITMAP
0FC0
1020
2030
5F28
9124
9124
9134
9124
9124
9F24
4028
2030
1020
0FC0
ENDCHAR
STARTCHAR 3273
ENCODING 12915
SWIDTH 1000 0
DWIDTH 16 0
BBX 14 14 1 -2
BITMAP
0FC0
1020
2030
4028
9124
9124
9F34
9124
9124
9F24
4028
2030
1020
0FC0
ENDCHAR
STARTCHAR 3274
ENCODING 12916
SWIDTH 1000 0
DWIDTH 16 0
BBX 14 14 1 -2
BITMAP
0FC0
1020
2030
4428
8424
8424
8634
8A24
8924
9024
4028
2030
1020
0FC0
ENDCHAR
STARTCHAR 3275
ENCODING 12917
SWIDTH 1000 0
DWIDTH 16 0
BBX 14 14 1 -2
BITMAP
0FC0
1020
2030
4E28
9124
9124
9134
9124
9124
8E24
4028
2030
1020
0FC0
ENDCHAR
STARTCHAR 3276
ENCODING 12918
SWIDTH 1000 0
DWIDTH 16 0
BBX 14 14 1 -2
BITMAP
0FC0
1020
2030
5FA8
8424
8424
8C34
8A24
8924
90A4
4028
2030
1020
0FC0
ENDCHAR
STARTCHAR 3277
ENCODING 12919
SWIDTH 1000 0
DWIDTH 16 0
BBX 14 14 1 -2
BITMAP
0FC0
1020
2030
4E28
9FA4
8424
8434
8624
8A24
91A4
4028
2030
1020
0FC0
ENDCHAR
STARTCHAR 3278
ENCODING 12920
SWIDTH 1000 0
DWIDTH 16 0
BBX 14 14 1 -2
BITMAP
0FC0
1020
2030
5F28
8124
8124
9E34
8224
8424
8824
5028
2030
1020
0FC0
ENDCHAR
STARTCHAR 3279
ENCODING 12921
SWIDTH 1000 0
DWIDTH 16 0
BBX 14 14 1 -2
BITMAP
0FC0
1020
2030
5F28
9024
9024
9F34
9024
9024
9FA4
4028
2030
1020
0FC0
ENDCHAR
STARTCHAR 327A
ENCODING 12922
SWIDTH 1000 0
DWIDTH 16 0
BBX 14 14 1 -2
BITMAP
0FC0
1020
2030
5FA8
8024
8924
8934
8A24
8A24
9FA4
4028
2030
1020
0FC0
ENDCHAR
STARTCHAR 327B
ENCODING 12923
SWIDTH 1000 0
DWIDTH 16 0
BBX 14 14 1 -2
BITMAP
0FC0
1020
2050
4E48
8044
9FC4
8E74
9144
9144
9144
4E48
2050
1020
0FC0
ENDCHAR
STARTCHAR 327F
ENCODING 12927
SWIDTH 1000 0
DWIDTH 16 0
BBX 13 14 1 -1
BITMAP
0F80
38E0
6030
4090
C518
8700
E678
0708
0508
C598
44D0
2030
18E0
0F80
ENDCHAR
STARTCHAR 328A
ENCODING 12938
SWIDTH 1000 0
DWIDTH 16 0
BBX 14 14 1 -2
BITMAP
0780
1860
2FD0
4848
8848
8FC4
8844
8FC4
8844
8848
5048
30D0
1020
0FC0
ENDCHAR
STARTCHAR 328B
ENCODING 12939
SWIDTH 1000 0
DWIDTH 16 0
BBX 14 14 1 -2
BITMAP
0780
1860
2110
4108
8928
9124
9104
8304
8284
8448
4828
3010
1020
0FC0
ENDCHAR
STARTCHAR 328C
ENCODING 12940
SWIDTH 1000 0
DWIDTH 16 0
BBX 14 14 1 -2
BITMAP
0780
1860
2110
4108
9F28
8544
8584
8584
8944
9128
7118
2310
1020
0FC0
ENDCHAR
STARTCHAR 328D
ENCODING 12941
SWIDTH 1000 0
DWIDTH 16 0
BBX 14 14 1 -2
BITMAP
0780
1860
2110
4108
BFF8
8104
8384
8584
8D44
9928
6118
2110
1120
0FC0
ENDCHAR
STARTCHAR 328E
ENCODING 12942
SWIDTH 1000 0
DWIDTH 16 0
BBX 14 14 1 -2
BITMAP
0780
1860
2110
4288
8448
8FE4
B114
8FC4
8144
8948
4508
3FF0
1020
0FC0
ENDCHAR
STARTCHAR 328F
ENCODING 12943
SWIDTH 1000 0
DWIDTH 16 0
BBX 14 14 1 -2
BITMAP
0780
1860
2010
4208
8208
8204
9FE4
8204
8204
8208
7FF8
4010
3020
0FC0
ENDCHAR
STARTCHAR 3290
ENCODING 12944
SWIDTH 1000 0
DWIDTH 16 0
BBX 14 14 1 -2
BITMAP
0780
1860
2FD0
4848
8848
8844
8FC4
8844
8844
8848
4FC8
2850
1020
0FC0
ENDCHAR
STARTCHAR 3294
ENCODING 12948
SWIDTH 1000 0
DWIDTH 16 0
BBX 14 14 1 -2
BITMAP
0780
1860
2610
4FC8
98C8
B984
8F04
9C04
BFE4
8824
4828
2FF0
1020
0FC0
ENDCHAR
STARTCHAR 329E
ENCODING 12958
SWIDTH 1000 0
DWIDTH 16 0
BBX 14 14 1 -2
BITMAP
0780
1860
2010
5FF8
9114
9114
9F14
9114
9114
9F14
5178
3110
1120
0FC0
ENDCHAR
STARTCHAR 32A5
ENCODING 12965
SWIDTH 1000 0
DWIDTH 16 0
BBX 14 14 1 -2
BITMAP
0780
1860
2110
4108
9FE8
9124
9124
9124
9FE4
8104
4108
2110
1020
0FC0
ENDCHAR
STARTCHAR 3380
ENCODING 13184
SWIDTH 1000 0
DWIDTH 16 0
BBX 13 14 1 -3
BITMAP
0040
00C0
00C0
B0A0
C920
8520
8510
85F0
8610
8610
CA08
B008
8000
8000
ENDCHAR
STARTCHAR 3381
ENCODING 13185
SWIDTH 1000 0
DWIDTH 16 0
BBX 14 12 1 -1
BITMAP
0060
0060
0060
38A0
CC90
8490
8490
84F8
8508
8508
8508
8604
ENDCHAR
STARTCHAR 3382
ENCODING 13186
SWIDTH 1000 0
DWIDTH 16 0
BBX 14 13 1 -3
BITMAP
0020
0060
0060
12A0
1290
1490
2490
25F8
2908
4908
4B08
7E04
8000
ENDCHAR
STARTCHAR 3383
ENCODING 13187
SWIDTH 1000 0
DWIDTH 16 0
BBX 14 12 1 -1
BITMAP
0020
0020
0050
2C50
D250
9290
9288
92F8
9288
9304
9304
9304
ENDCHAR
STARTCHAR 3384
ENCODING 13188
SWIDTH 1000 0
DWIDTH 16 0
BBX 13 12 1 -1
BITMAP
8040
8040
80A0
80A0
88A0
9110
A110
D1F0
9110
8A08
8E08
0608
ENDCHAR
STARTCHAR 3388
ENCODING 13192
SWIDTH 1000 0
DWIDTH 16 0
BBX 13 12 2 -1
BITMAP
0008
0008
0008
7188
5248
8A48
8048
83C8
8448
8C48
5448
73A0
ENDCHAR
STARTCHAR 3389
ENCODING 13193
SWIDTH 1000 0
DWIDTH 16 0
BBX 13 12 1 -1
BITMAP
8008
8008
8008
8668
9998
A998
C818
E878
A898
A998
9998
1670
ENDCHAR
STARTCHAR 338A
ENCODING 13194
SWIDTH 1000 0
DWIDTH 16 0
BBX 13 14 1 -3
BITMAP
01F8
0100
0100
B900
C500
83F8
8300
8300
8300
8300
C500
B900
8000
8000
ENDCHAR
STARTCHAR 338B
ENCODING 13195
SWIDTH 1000 0
DWIDTH 16 0
BBX 13 12 1 -1
BITMAP
01F8
0100
0100
3900
CD00
85F8
8500
8500
8500
8500
8500
8500
ENDCHAR
STARTCHAR 338C
ENCODING 13196
SWIDTH 1000 0
DWIDTH 16 0
BBX 13 13 2 -3
BITMAP
01F8
0100
0100
0300
2500
25F8
2500
4900
4900
4900
D500
AD00
8000
ENDCHAR
STARTCHAR 338D
ENCODING 13197
SWIDTH 1000 0
DWIDTH 16 0
BBX 13 11 2 -3
BITMAP
0068
1298
2508
2508
2508
4908
4918
4AE8
BC08
8110
00F0
ENDCHAR
STARTCHAR 338E
ENCODING 13198
SWIDTH 1000 0
DWIDTH 16 0
BBX 13 11 2 -3
BITMAP
6C60
9498
9508
9508
9508
9508
9518
94E8
9408
0110
00F0
ENDCHAR
STARTCHAR 338F
ENCODING 13199
SWIDTH 1000 0
DWIDTH 16 0
BBX 12 14 2 -3
BITMAP
8000
8000
8000
80C0
8930
9210
A210
E210
9210
8930
89D0
0410
0210
01E0
ENDCHAR
STARTCHAR 3390
ENCODING 13200
SWIDTH 1000 0
DWIDTH 16 0
BBX 13 12 2 -1
BITMAP
8400
8400
8400
85F0
8410
FC20
8420
8440
8480
8480
8500
01F8
ENDCHAR
STARTCHAR 3391
ENCODING 13201
SWIDTH 1000 0
DWIDTH 16 0
BBX 14 12 1 -1
BITMAP
8480
8480
8480
84BC
9484
A788
C488
E490
A490
94A0
94A0
083C
ENDCHAR
STARTCHAR 3392
ENCODING 13202
SWIDTH 1000 0
DWIDTH 16 0
BBX 14 12 1 -1
BITMAP
8A40
CA40
DA40
DA78
DA48
DBC8
DA50
EA50
EA50
EA60
AA60
003C
ENDCHAR
STARTCHAR 3393
ENCODING 13203
SWIDTH 1000 0
DWIDTH 16 0
BBX 14 12 1 -1
BITMAP
3240
4A40
8A40
8A78
8248
83C8
9E50
8650
8650
8E60
4E60
303C
ENDCHAR
STARTCHAR 3394
ENCODING 13204
SWIDTH 1000 0
DWIDTH 16 0
BBX 14 12 1 -1
BITMAP
FC40
2440
2440
247C
2448
27C8
2448
2450
2450
2460
2460
003C
ENDCHAR
STARTCHAR 3395
ENCODING 13205
SWIDTH 1000 0
DWIDTH 16 0
BBX 12 13 2 -3
BITMAP
0030
0050
0050
0090
2290
24A0
24A0
44A0
48C0
4880
C9A0
BC40
8000
ENDCHAR
STARTCHAR 3396
ENCODING 13206
SWIDTH 1000 0
DWIDTH 16 0
BBX 13 12 2 -1
BITMAP
0010
0028
0028
6C48
9248
9250
9250
9260
9260
9240
93D0
9220
ENDCHAR
STARTCHAR 3397
ENCODING 13207
SWIDTH 1000 0
DWIDTH 16 0
BBX 12 12 2 -1
BITMAP
0230
0250
0250
3A90
4690
82A0
82A0
82A0
82C0
8280
47A0
3840
ENDCHAR
STARTCHAR 3398
ENCODING 13208
SWIDTH 1000 0
DWIDTH 16 0
BBX 11 12 2 -1
BITMAP
8060
80A0
80A0
8120
8920
9140
A140
E140
9180
8900
8B40
0480
ENDCHAR
STARTCHAR 3399
ENCODING 13209
SWIDTH 1000 0
DWIDTH 16 0
BBX 12 12 2 -1
BITMAP
3000
4000
4000
E260
4D90
4910
4910
4910
4910
4910
4910
4910
ENDCHAR
STARTCHAR 339A
ENCODING 13210
SWIDTH 1000 0
DWIDTH 16 0
BBX 13 9 2 -1
BITMAP
31B0
CA48
8A48
8A48
8A48
8A48
8A48
8A48
8A48
ENDCHAR
STARTCHAR 339B
ENCODING 13211
SWIDTH 1000 0
DWIDTH 16 0
BBX 13 10 2 -3
BITMAP
00D8
2528
2528
2528
4928
4928
4928
5528
AD28
8000
ENDCHAR
STARTCHAR 339C
ENCODING 13212
SWIDTH 1000 0
DWIDTH 16 0
BBX 13 9 1 -1
BITMAP
2CD8
D528
9528
9528
9528
9528
9528
9528
9528
ENDCHAR
STARTCHAR 339D
ENCODING 13213
SWIDTH 1000 0
DWIDTH 16 0
BBX 13 9 2 -1
BITMAP
38B0
4548
8548
8148
8148
8148
8548
4548
3948
ENDCHAR
STARTCHAR 339E
ENCODING 13214
SWIDTH 1000 0
DWIDTH 16 0
BBX 13 12 2 -1
BITMAP
8000
8000
8000
80B0
8B48
9248
A248
E248
9248
9248
8A48
0A48
ENDCHAR
STARTCHAR 339F
ENCODING 13215
SWIDTH 1000 0
DWIDTH 16 0
BBX 13 13 1 -1
BITMAP
0018
0008
0010
0018
2CD8
D528
9528
9528
9528
9528
9528
9528
9528
ENDCHAR
STARTCHAR 33A0
ENCODING 13216
SWIDTH 1000 0
DWIDTH 16 0
BBX 13 13 1 -1
BITMAP
0018
0008
0010
0018
38B0
4548
8548
8148
8148
8148
8548
4548
3948
ENDCHAR
STARTCHAR 33A1
ENCODING 13217
SWIDTH 1000 0
DWIDTH 16 0
BBX 11 13 3 -1
BITMAP
0040
0020
0040
0060
3380
CC40
8840
8840
8840
8840
8840
8840
8840
ENDCHAR
STARTCHAR 33A2
ENCODING 13218
SWIDTH 1000 0
DWIDTH 16 0
BBX 13 13 2 -1
BITMAP
0018
8008
8010
8018
80B0
8B48
9248
A248
E248
9248
9248
8A48
0A48
ENDCHAR
STARTCHAR 33A3
ENCODING 13219
SWIDTH 1000 0
DWIDTH 16 0
BBX 13 13 1 -1
BITMAP
0018
0008
0018
0018
2CD8
D528
9528
9528
9528
9528
9528
9528
9528
ENDCHAR
STARTCHAR 33A4
ENCODING 13220
SWIDTH 1000 0
DWIDTH 16 0
BBX 13 13 1 -1
BITMAP
0018
0008
0018
0018
38B0
4548
8548
8148
8148
8148
8548
4548
3948
ENDCHAR
STARTCHAR 33A5
ENCODING 13221
SWIDTH 1000 0
DWIDTH 16 0
BBX 11 13 3 -1
BITMAP
0040
0040
00A0
0040
3380
CC40
8840
8840
8840
8840
8840
8840
8840
ENDCHAR
STARTCHAR 33A6
ENCODING 13222
SWIDTH 1000 0
DWIDTH 16 0
BBX 13 13 2 -1
BITMAP
0018
8018
8028
8010
80B0
8B48
9248
A248
E248
9248
9248
8A48
0A48
ENDCHAR
STARTCHAR 33A7
ENCODING 13223
SWIDTH 1000 0
DWIDTH 16 0
BBX 14 12 1 -1
BITMAP
EC10
9220
9220
9240
9280
92B0
0148
0140
0238
0204
0444
0838
ENDCHAR
STARTCHAR 33A8
ENCODING 13224
SWIDTH 1000 0
DWIDTH 16 0
BBX 14 12 1 -1
BITMAP
EC20
9440
944C
9484
9488
957C
0190
0288
0470
0408
0888
0870
ENDCHAR
STARTCHAR 33A9
ENCODING 13225
SWIDTH 1000 0
DWIDTH 16 0
BBX 12 12 2 -1
BITMAP
F800
8800
8400
85C0
8620
8A20
F820
81E0
8220
8220
8260
8190
ENDCHAR
STARTCHAR 33AA
ENCODING 13226
SWIDTH 1000 0
DWIDTH 16 0
BBX 14 12 1 -1
BITMAP
8700
8480
8480
84B0
94C8
A4C8
A708
E438
A448
9448
9448
1434
ENDCHAR
STARTCHAR 33AB
ENCODING 13227
SWIDTH 1000 0
DWIDTH 16 0
BBX 14 12 1 -1
BITMAP
8B80
8A80
CA40
DA58
DA64
DA64
DB84
EA3C
EA44
EA44
AA4C
0034
ENDCHAR
STARTCHAR 33AC
ENCODING 13228
SWIDTH 1000 0
DWIDTH 16 0
BBX 14 12 1 -1
BITMAP
3380
4A80
8A40
8A58
8264
8264
9F84
863C
8644
8E44
4E4C
3634
ENDCHAR
STARTCHAR 33AD
ENCODING 13229
SWIDTH 1000 0
DWIDTH 16 0
BBX 14 12 1 -1
BITMAP
0004
0004
0004
0E34
F14C
9184
8184
8F84
9184
9184
934C
8D30
ENDCHAR
STARTCHAR 33AE
ENCODING 13230
SWIDTH 1000 0
DWIDTH 16 0
BBX 14 12 1 -1
BITMAP
0088
1290
ED90
8CA0
BCC0
ACC0
13B8
00A4
0130
010C
0244
0438
ENDCHAR
STARTCHAR 33AF
ENCODING 13231
SWIDTH 1000 0
DWIDTH 16 0
BBX 14 12 1 -1
BITMAP
0110
1310
ED20
8D2C
BD48
AD4C
12B8
0140
0120
0218
0248
0438
ENDCHAR
STARTCHAR 33B0
ENCODING 13232
SWIDTH 1000 0
DWIDTH 16 0
BBX 12 11 2 -3
BITMAP
B0E0
C910
8510
8500
84E0
8410
8510
C910
B0E0
8000
8000
ENDCHAR
STARTCHAR 33B1
ENCODING 13233
SWIDTH 1000 0
DWIDTH 16 0
BBX 12 9 2 -1
BITMAP
39C0
CA20
8610
8700
84E0
8410
8610
8710
85E0
ENDCHAR
STARTCHAR 33B2
ENCODING 13234
SWIDTH 1000 0
DWIDTH 16 0
BBX 13 11 2 -3
BITMAP
00E0
1310
2510
2580
2470
4808
4908
4B08
BCF0
8000
8000
ENDCHAR
STARTCHAR 33B3
ENCODING 13235
SWIDTH 1000 0
DWIDTH 16 0
BBX 13 9 1 -1
BITMAP
2470
DA88
9288
92C0
9230
9208
9288
9288
9270
ENDCHAR
STARTCHAR 33B4
ENCODING 13236
SWIDTH 1000 0
DWIDTH 16 0
BBX 12 14 2 -3
BITMAP
0410
0410
0210
B220
CA20
8620
8520
8540
8540
8540
C8C0
B080
8000
8000
ENDCHAR
STARTCHAR 33B5
ENCODING 13237
SWIDTH 1000 0
DWIDTH 16 0
BBX 12 12 2 -1
BITMAP
0210
0210
0210
3A10
CD20
8520
8520
8520
8540
84C0
84C0
8000
ENDCHAR
STARTCHAR 33B6
ENCODING 13238
SWIDTH 1000 0
DWIDTH 16 0
BBX 12 13 2 -3
BITMAP
0010
0210
0210
0210
2620
2520
2520
4920
48C0
48C0
90C0
ECC0
8000
ENDCHAR
STARTCHAR 33B7
ENCODING 13239
SWIDTH 1000 0
DWIDTH 16 0
BBX 13 12 1 -1
BITMAP
0208
0108
0108
2D10
D310
9290
9290
92A0
92A0
92A0
9260
9240
ENDCHAR
STARTCHAR 33B8
ENCODING 13240
SWIDTH 1000 0
DWIDTH 16 0
BBX 12 12 2 -1
BITMAP
8410
8410
8210
8220
8A20
9220
A120
E140
9140
8940
88C0
0480
ENDCHAR
STARTCHAR 33B9
ENCODING 13241
SWIDTH 1000 0
DWIDTH 16 0
BBX 14 11 1 -1
BITMAP
C704
C688
C688
C688
CA88
AA90
AA50
AA50
AA50
B250
9220
ENDCHAR
STARTCHAR 33BA
ENCODING 13242
SWIDTH 1000 0
DWIDTH 16 0
BBX 13 14 1 -3
BITMAP
0240
0248
0268
B2A8
CAA8
86A8
86A8
85A8
85B0
85B0
C990
B110
8000
8000
ENDCHAR
STARTCHAR 33BB
ENCODING 13243
SWIDTH 1000 0
DWIDTH 16 0
BBX 14 12 1 -1
BITMAP
0244
0264
0264
3A68
CEA8
86A8
86A8
85A8
85A8
8598
8590
8590
ENDCHAR
STARTCHAR 33BC
ENCODING 13244
SWIDTH 1000 0
DWIDTH 16 0
BBX 14 13 1 -3
BITMAP
0264
0264
0264
0268
1368
1568
25A8
2598
2998
4998
4898
7C90
8000
ENDCHAR
STARTCHAR 33BD
ENCODING 13245
SWIDTH 1000 0
DWIDTH 16 0
BBX 14 12 1 -1
BITMAP
0224
0264
0164
2D64
D568
9368
9358
9398
9398
9398
9298
8000
ENDCHAR
STARTCHAR 33BE
ENCODING 13246
SWIDTH 1000 0
DWIDTH 16 0
BBX 13 12 1 -1
BITMAP
8248
8248
82C8
82A8
8AA8
92A8
A2A8
D1B0
91B0
8990
8990
0510
ENDCHAR
STARTCHAR 33BF
ENCODING 13247
SWIDTH 1000 0
DWIDTH 16 0
BBX 13 11 1 -1
BITMAP
C648
CE48
CE48
CEA8
CEA8
CDB0
B5B0
B5B0
B590
B590
9590
ENDCHAR
STARTCHAR 33C0
ENCODING 13248
SWIDTH 1000 0
DWIDTH 16 0
BBX 13 12 1 -1
BITMAP
80E0
8110
8208
8208
8A08
9208
A208
E110
90A0
92A8
8AA8
07B8
ENDCHAR
STARTCHAR 33C1
ENCODING 13249
SWIDTH 1000 0
DWIDTH 16 0
BBX 13 12 1 -1
BITMAP
CCE0
CD10
CE08
CE08
CE08
D608
D608
B510
B4A0
B6A8
B6A8
03B8
ENDCHAR
STARTCHAR 33C2
ENCODING 13250
SWIDTH 1000 0
DWIDTH 16 0
BBX 14 9 1 -1
BITMAP
61B0
9248
9248
1248
7248
9248
9248
9248
7E4C
ENDCHAR
STARTCHAR 33C3
ENCODING 13251
SWIDTH 1000 0
DWIDTH 16 0
BBX 13 14 2 -3
BITMAP
F800
8C00
8400
84E8
8918
F208
8A08
8608
8608
8608
8918
F8E8
0008
0008
ENDCHAR
STARTCHAR 33C4
ENCODING 13252
SWIDTH 1000 0
DWIDTH 16 0
BBX 13 9 2 -1
BITMAP
3870
4498
8508
8100
8100
8100
8508
4498
3870
ENDCHAR
STARTCHAR 33C5
ENCODING 13253
SWIDTH 1000 0
DWIDTH 16 0
BBX 13 12 2 -1
BITMAP
0008
0008
0008
30E8
4918
8608
8208
8208
8208
8608
4918
30E0
ENDCHAR
STARTCHAR 33C6
ENCODING 13254
SWIDTH 1000 0
DWIDTH 16 0
BBX 14 13 1 -1
BITMAP
7200
9200
8400
8400
8400
7A00
0A10
0AAC
0B24
12A4
12A4
125C
0038
ENDCHAR
STARTCHAR 33C7
ENCODING 13255
SWIDTH 1000 0
DWIDTH 16 0
BBX 14 12 1 -1
BITMAP
3800
4400
4400
8260
8090
8110
8108
8308
8308
4508
4494
3864
ENDCHAR
STARTCHAR 33C8
ENCODING 13256
SWIDTH 1000 0
DWIDTH 16 0
BBX 13 12 2 -1
BITMAP
05E0
0510
0510
3510
4D10
85E0
8510
8508
8508
8508
4D10
31E0
ENDCHAR
STARTCHAR 33C9
ENCODING 13257
SWIDTH 1000 0
DWIDTH 16 0
BBX 13 14 1 -3
BITMAP
3800
4400
4200
8308
8108
8090
8E90
8290
8250
4260
4620
3A20
0040
00C0
ENDCHAR
STARTCHAR 33CA
ENCODING 13258
SWIDTH 1000 0
DWIDTH 16 0
BBX 13 12 2 -1
BITMAP
8000
8000
8000
B9E0
CF10
8610
8430
85F0
8710
8610
8630
01D8
ENDCHAR
STARTCHAR 33CB
ENCODING 13259
SWIDTH 1000 0
DWIDTH 16 0
BBX 11 11 3 -1
BITMAP
87C0
8460
8420
8420
8420
FC60
87C0
8400
8400
8400
8400
ENDCHAR
STARTCHAR 33CF
ENCODING 13263
SWIDTH 1000 0
DWIDTH 16 0
BBX 10 12 3 -1
BITMAP
8000
8080
8080
83C0
8880
9080
A080
E080
9080
9080
8880
04C0
ENDCHAR
STARTCHAR 33D0
ENCODING 13264
SWIDTH 1000 0
DWIDTH 16 0
BBX 11 12 2 -1
BITMAP
8000
8000
8000
84C0
9B20
9220
9220
9220
9220
9220
9220
1000
ENDCHAR
STARTCHAR 33D3
ENCODING 13267
SWIDTH 1000 0
DWIDTH 16 0
BBX 9 12 3 -1
BITMAP
8000
8000
8000
8000
9080
8900
8700
8600
8600
8900
8880
1080
ENDCHAR
STARTCHAR 33D6
ENCODING 13270
SWIDTH 1000 0
DWIDTH 16 0
BBX 14 12 1 -1
BITMAP
0004
0004
0004
2CE4
D2A4
9314
9314
9314
9314
9314
92A4
92E0
ENDCHAR
STARTCHAR 33D8
ENCODING 13272
SWIDTH 1000 0
DWIDTH 16 0
BBX 14 11 1 -3
BITMAP
A1B0
D248
9248
8A48
8A48
8A48
8A48
D248
BA4C
8000
8000
ENDCHAR
STARTCHAR 33DB
ENCODING 13275
SWIDTH 1000 0
DWIDTH 16 0
BBX 9 9 3 -1
BITMAP
7000
8B80
8B00
C200
3A00
0600
8600
8600
7A00
ENDCHAR
STARTCHAR 33DC
ENCODING 13276
SWIDTH 1000 0
DWIDTH 16 0
BBX 13 12 2 -1
BITMAP
3800
4400
8200
8308
C108
7090
0C90
0290
82A0
8260
4660
3860
ENDCHAR
STARTCHAR 33DD
ENCODING 13277
SWIDTH 1000 0
DWIDTH 16 0
BBX 14 12 1 -1
BITMAP
9980
9980
5A80
5AB0
5AC8
5A84
6A84
6A84
6684
2684
24C8
0030
ENDCHAR
STARTCHAR AC00
ENCODING 44032
SWIDTH 1000 0
DWIDTH 16 0
BBX 13 15 2 -2
BITMAP
0020
0020
FE20
0620
0420
0420
0438
0820
1820
1020
6020
C020
0020
0020
0020
ENDCHAR
STARTCHAR AC01
ENCODING 44033
SWIDTH 1000 0
DWIDTH 16 0
BBX 13 15 2 -3
BITMAP
0020
FE20
0220
0620
0420
0838
1820
6020
C020
0000
3FE0
0020
0020
0020
0020
ENDCHAR
STARTCHAR AC02
ENCODING 44034
SWIDTH 1000 0
DWIDTH 16 0
BBX 13 14 2 -2
BITMAP
FE20
0220
0620
0420
0838
1820
6020
C020
0000
7DE0
0420
0420
0420
0420
ENDCHAR
STARTCHAR AC03
ENCODING 44035
SWIDTH 1000 0
DWIDTH 16 0
BBX 13 14 2 -2
BITMAP
FE20
0220
0620
0420
0838
1820
6020
C020
0000
7C40
0440
04C0
04A0
0518
ENDCHAR
STARTCHAR AC04
ENCODING 44036
SWIDTH 1000 0
DWIDTH 16 0
BBX 13 15 2 -2
BITMAP
0020
FE20
0220
0620
0420
0C38
1820
3020
C020
0020
2020
2000
2000
2000
3FF0
ENDCHAR
STARTCHAR AC05
ENCODING 44037
SWIDTH 1000 0
DWIDTH 16 0
BBX 13 14 2 -2
BITMAP
FE20
0220
0620
0420
0838
1820
6020
C020
01F0
4020
4060
4060
41B0
7F18
ENDCHAR
STARTCHAR AC06
ENCODING 44038
SWIDTH 1000 0
DWIDTH 16 0
BBX 13 16 2 -3
BITMAP
0020
FE20
0220
0620
0438
0820
3020
6020
8000
01E0
43F0
4000
41C0
4220
7E20
01C0
ENDCHAR
STARTCHAR AC07
ENCODING 44039
SWIDTH 1000 0
DWIDTH 16 0
BBX 13 15 2 -2
BITMAP
0020
FE20
0220
0620
0420
0838
1820
6020
C020
0000
3FE0
2000
2000
2000
3FE0
ENDCHAR
STARTCHAR AC08
ENCODING 44040
SWIDTH 1000 0
DWIDTH 16 0
BBX 13 15 2 -2
BITMAP
0020
FE20
0220
0620
0438
0820
3020
6020
8000
3FE0
0020
0020
3FE0
2000
3FE0
ENDCHAR
STARTCHAR AC09
ENCODING 44041
SWIDTH 1000 0
DWIDTH 16 0
BBX 13 15 2 -3
BITMAP
0020
FE20
0220
0620
0438
0820
3020
E020
0000
7FE0
0420
0420
7C20
4020
7C20
ENDCHAR
STARTCHAR AC0A
ENCODING 44042
SWIDTH 1000 0
DWIDTH 16 0
BBX 13 15 2 -2
BITMAP
0020
FE20
0220
0620
0438
0820
3020
E020
0000
7DE0
0520
0520
7D20
4120
7DE0
ENDCHAR
STARTCHAR AC0B
ENCODING 44043
SWIDTH 1000 0
DWIDTH 16 0
BBX 13 15 2 -2
BITMAP
0020
FE20
0220
0620
0438
0820
3020
6020
8000
7E20
0620
07E0
7E20
4220
7FE0
ENDCHAR
STARTCHAR AC0C
ENCODING 44044
SWIDTH 1000 0
DWIDTH 16 0
BBX 13 15 2 -3
BITMAP
0020
FE20
0220
0620
0438
0820
3020
6020
8000
7C40
0440
0440
7CE0
40A0
7D18
ENDCHAR
STARTCHAR AC0D
ENCODING 44045
SWIDTH 1000 0
DWIDTH 16 0
BBX 13 15 2 -3
BITMAP
0020
FE20
0220
0620
0438
0820
3020
6020
8000
7DE0
0500
0500
7DE0
4100
7DF0
ENDCHAR
STARTCHAR AC0E
ENCODING 44046
SWIDTH 1000 0
DWIDTH 16 0
BBX 13 15 2 -3
BITMAP
0020
FE20
0220
0620
0438
0820
3020
6020
8000
7DF0
0520
0520
7D20
4120
7FF0
ENDCHAR
STARTCHAR AC0F
ENCODING 44047
SWIDTH 1000 0
DWIDTH 16 0
BBX 13 16 2 -3
BITMAP
0020
FE20
0220
0620
0438
0820
3020
6020
8000
7DE0
07F0
0400
7CE0
4110
7D10
00E0
ENDCHAR
STARTCHAR AC10
ENCODING 44048
SWIDTH 1000 0
DWIDTH 16 0
BBX 13 14 2 -1
BITMAP
FE20
0220
0620
0420
0C38
1820
6020
C020
0000
3FE0
2020
2020
2020
3FE0
ENDCHAR
STARTCHAR AC11
ENCODING 44049
SWIDTH 1000 0
DWIDTH 16 0
BBX 13 15 2 -2
BITMAP
0020
FE20
0220
0620
0438
0820
1020
6020
8000
2020
2020
3FE0
2020
2020
3FE0
ENDCHAR
STARTCHAR AC12
ENCODING 44050
SWIDTH 1000 0
DWIDTH 16 0
BBX 14 15 1 -3
BITMAP
0020
FE20
0220
0620
043C
0820
1820
6020
8000
2220
2220
3E20
2270
22D8
3F88
ENDCHAR
STARTCHAR AC13
ENCODING 44051
SWIDTH 1000 0
DWIDTH 16 0
BBX 13 14 2 -2
BITMAP
FE20
0220
0620
0420
0C38
0820
3020
6020
8020
0200
0300
0500
18C0
7030
ENDCHAR
STARTCHAR AC14
ENCODING 44052
SWIDTH 1000 0
DWIDTH 16 0
BBX 14 14 1 -2
BITMAP
FE20
0220
0620
043C
0C20
1820
6020
C020
0000
0840
0840
18C0
14A0
6318
ENDCHAR
STARTCHAR AC15
ENCODING 44053
SWIDTH 1000 0
DWIDTH 16 0
BBX 13 15 2 -2
BITMAP
0020
FE20
0220
0620
0420
0838
1820
6020
C020
0F80
3060
2020
2020
3060
0F80
ENDCHAR
STARTCHAR AC16
ENCODING 44054
SWIDTH 1000 0
DWIDTH 16 0
BBX 13 15 2 -3
BITMAP
0020
FE20
0220
0620
0438
0820
1020
6020
8020
0000
1FE0
0060
0180
07C0
3830
ENDCHAR
STARTCHAR AC17
ENCODING 44055
SWIDTH 1000 0
DWIDTH 16 0
BBX 13 16 2 -3
BITMAP
0020
FE20
0220
0620
0438
0820
3020
6020
8000
0F80
0000
3FE0
0060
0380
3DF0
4000
ENDCHAR
STARTCHAR AC18
ENCODING 44056
SWIDTH 1000 0
DWIDTH 16 0
BBX 13 15 2 -2
BITMAP
FE20
0220
0620
0420
0838
1820
6020
C020
0000
3FE0
0020
3FE0
0020
0020
0020
ENDCHAR
STARTCHAR AC19
ENCODING 44057
SWIDTH 1000 0
DWIDTH 16 0
BBX 13 15 2 -2
BITMAP
0020
FE20
0220
0620
0438
0820
3020
6020
8000
3FE0
2000
2000
3FE0
2000
3FE0
ENDCHAR
STARTCHAR AC1A
ENCODING 44058
SWIDTH 1000 0
DWIDTH 16 0
BBX 13 14 2 -1
BITMAP
FE20
0220
0620
0438
0820
1820
6020
C020
0000
7FE0
1080
1080
1080
7FF0
ENDCHAR
STARTCHAR AC1B
ENCODING 44059
SWIDTH 1000 0
DWIDTH 16 0
BBX 14 16 2 -3
BITMAP
0020
FE20
0220
0620
043C
0820
3020
E020
8000
0F80
3FF0
0000
0F80
1040
1040
0F80
ENDCHAR
STARTCHAR AC1C
ENCODING 44060
SWIDTH 1000 0
DWIDTH 16 0
BBX 12 15 2 -2
BITMAP
0010
0090
FC90
0490
0490
0C90
08F0
1890
1090
2090
4090
8090
0090
0090
0090
ENDCHAR
STARTCHAR AC1D
ENCODING 44061
SWIDTH 1000 0
DWIDTH 16 0
BBX 12 15 2 -3
BITMAP
0010
FC90
0490
0490
08F0
1890
3090
E090
8090
0000
3FF0
0010
0010
0010
0010
ENDCHAR
STARTCHAR AC1E
ENCODING 44062
SWIDTH 1000 0
DWIDTH 16 0
BBX 12 14 2 -2
BITMAP
FC90
0490
0490
08F0
1890
3090
E090
8090
0000
3FF0
0210
0210
0210
0210
ENDCHAR
STARTCHAR AC1F
ENCODING 44063
SWIDTH 1000 0
DWIDTH 16 0
BBX 14 14 1 -2
BITMAP
7C88
0488
0488
08F8
1888
3088
E088
8088
0000
3E20
0220
0260
0250
028C
ENDCHAR
STARTCHAR AC20
ENCODING 44064
SWIDTH 1000 0
DWIDTH 16 0
BBX 13 15 1 -2
BITMAP
0010
7C90
0690
0490
0490
08F0
1890
2090
C090
0090
1090
1000
1000
1000
1FF8
ENDCHAR
STARTCHAR AC21
ENCODING 44065
SWIDTH 1000 0
DWIDTH 16 0
BBX 13 14 2 -2
BITMAP
FC90
0490
0490
08F0
1890
3090
E090
8090
01F0
2010
2020
2060
20D0
3F08
ENDCHAR
STARTCHAR AC22
ENCODING 44066
SWIDTH 1000 0
DWIDTH 16 0
BBX 13 16 2 -3
BITMAP
0010
7C90
0490
0490
08F0
1890
3090
C090
0000
00E0
21F8
2000
20E0
2110
3F10
00E0
ENDCHAR
STARTCHAR AC23
ENCODING 44067
SWIDTH 1000 0
DWIDTH 16 0
BBX 12 14 2 -1
BITMAP
FC90
0490
0490
08F0
1890
3090
E090
8090
0000
3FF0
2000
2000
2000
3FF0
ENDCHAR
STARTCHAR AC24
ENCODING 44068
SWIDTH 1000 0
DWIDTH 16 0
BBX 12 14 2 -1
BITMAP
FC90
0490
0490
08F0
1890
2090
C090
0090
3FF0
0010
0010
3FF0
2000
3FF0
ENDCHAR
STARTCHAR AC25
ENCODING 44069
SWIDTH 1000 0
DWIDTH 16 0
BBX 12 15 2 -3
BITMAP
0010
FC90
0490
0490
08F0
1890
2090
C090
0000
3FF0
0210
0210
3E10
2010
3E10
ENDCHAR
STARTCHAR AC26
ENCODING 44070
SWIDTH 1000 0
DWIDTH 16 0
BBX 12 15 2 -2
BITMAP
0010
7C90
0490
0490
08F0
1890
3090
C090
0000
3EF0
0290
0290
3E90
2090
3EF0
ENDCHAR
STARTCHAR AC27
ENCODING 44071
SWIDTH 1000 0
DWIDTH 16 0
BBX 12 15 2 -2
BITMAP
0010
FC90
0490
0490
08F0
1890
2090
C090
0000
3F10
0310
03F0
3F10
2110
3FF0
ENDCHAR
STARTCHAR AC28
ENCODING 44072
SWIDTH 1000 0
DWIDTH 16 0
BBX 13 15 2 -3
BITMAP
0010
FC90
0490
0490
08F0
1890
2090
C090
0000
7C40
0440
0440
7CC0
40A0
7D18
ENDCHAR
STARTCHAR AC29
ENCODING 44073
SWIDTH 1000 0
DWIDTH 16 0
BBX 13 15 2 -3
BITMAP
0010
FC90
0490
0490
08F0
1890
2090
C090
0000
3EF0
0280
0280
3EF0
2080
3EF8
ENDCHAR
STARTCHAR AC2A
ENCODING 44074
SWIDTH 1000 0
DWIDTH 16 0
BBX 12 15 2 -3
BITMAP
0010
FC90
0490
0490
08F0
1890
2090
C090
0000
7DF0
04A0
04A0
7CA0
40A0
7FF0
ENDCHAR
STARTCHAR AC2B
ENCODING 44075
SWIDTH 1000 0
DWIDTH 16 0
BBX 12 16 2 -3
BITMAP
0010
FC90
0490
0490
08F0
1890
2090
C090
0000
7CE0
07F0
0400
7CE0
4110
7D10
00E0
ENDCHAR
STARTCHAR AC2C
ENCODING 44076
SWIDTH 1000 0
DWIDTH 16 0
BBX 12 15 2 -2
BITMAP
0010
FC90
0490
0490
08F0
1890
3090
E090
8090
0000
3FF0
2010
2010
2010
3FF0
ENDCHAR
STARTCHAR AC2D
ENCODING 44077
SWIDTH 1000 0
DWIDTH 16 0
BBX 12 15 1 -2
BITMAP
0010
7C90
0490
0490
08F0
1890
3090
E090
8080
1010
1010
1FF0
1010
1010
1FF0
ENDCHAR
STARTCHAR AC2E
ENCODING 44078
SWIDTH 1000 0
DWIDTH 16 0
BBX 13 14 2 -2
BITMAP
7C90
0490
0490
08F0
1890
3090
E090
8090
2220
2220
3E20
2250
22D8
3F80
ENDCHAR
STARTCHAR AC2F
ENCODING 44079
SWIDTH 1000 0
DWIDTH 16 0
BBX 13 15 2 -3
BITMAP
0010
FC90
0490
0490
0890
08F0
1090
6090
C090
0210
0300
0300
0C80
1860
6018
ENDCHAR
STARTCHAR AC30
ENCODING 44080
SWIDTH 1000 0
DWIDTH 16 0
BBX 13 14 2 -2
BITMAP
FC90
0490
0490
08F0
1890
3090
E090
8090
0000
0840
0840
18A0
34A0
6318
ENDCHAR
STARTCHAR AC31
ENCODING 44081
SWIDTH 1000 0
DWIDTH 16 0
BBX 12 15 2 -2
BITMAP
0010
FC90
0490
0490
08F0
1890
3090
E090
8090
0FC0
1020
2010
2010
1030
0FC0
ENDCHAR
STARTCHAR AC32
ENCODING 44082
SWIDTH 1000 0
DWIDTH 16 0
BBX 13 14 2 -2
BITMAP
FC90
0490
0490
08F0
1890
3090
E090
8090
0000
1FF0
0020
00C0
07E0
3818
ENDCHAR
STARTCHAR AC33
ENCODING 44083
SWIDTH 1000 0
DWIDTH 16 0
BBX 13 15 2 -3
BITMAP
0010
FC90
0490
0490
08F0
1890
2090
C090
0000
0F80
3FF0
0060
0180
0EE0
7018
ENDCHAR
STARTCHAR AC34
ENCODING 44084
SWIDTH 1000 0
DWIDTH 16 0
BBX 12 15 2 -2
BITMAP
FC90
0490
0490
08F0
1890
3090
E090
8090
0000
1FF0
0010
1FF0
0010
0010
0010
ENDCHAR
STARTCHAR AC35
ENCODING 44085
SWIDTH 1000 0
DWIDTH 16 0
BBX 12 15 2 -2
BITMAP
0010
FC90
0490
0490
08F0
1890
2090
C090
0000
3FF0
2000
2000
3FF0
2000
3FF0
ENDCHAR
STARTCHAR AC36
ENCODING 44086
SWIDTH 1000 0
DWIDTH 16 0
BBX 13 14 2 -1
BITMAP
FC90
0490
0490
08F0
1890
3090
E090
8090
0000
3FF0
0840
0840
0840
3FF8
ENDCHAR
STARTCHAR AC37
ENCODING 44087
SWIDTH 1000 0
DWIDTH 16 0
BBX 12 16 2 -3
BITMAP
0010
FC90
0490
0490
08F0
1890
2090
C090
0000
0F80
3FF0
0000
0F80
1040
1040
0F80
ENDCHAR
STARTCHAR AC38
ENCODING 44088
SWIDTH 1000 0
DWIDTH 16 0
BBX 13 15 2 -2
BITMAP
0020
0020
FE20
0620
0438
0420
0420
0820
1820
1038
6020
C020
0020
0020
0020
ENDCHAR
STARTCHAR AC39
ENCODING 44089
SWIDTH 1000 0
DWIDTH 16 0
BBX 13 15 2 -3
BITMAP
0020
FE20
0220
0638
0420
0820
1838
6020
C020
0000
3FE0
0020
0020
0020
0020
ENDCHAR
STARTCHAR AC3A
ENCODING 44090
SWIDTH 1000 0
DWIDTH 16 0
BBX 13 15 2 -3
BITMAP
0020
FE20
0220
0638
0420
0820
1838
6020
C020
0000
7DE0
0420
0420
0420
0420
ENDCHAR
STARTCHAR AC3B
ENCODING 44091
SWIDTH 1000 0
DWIDTH 16 0
BBX 13 15 2 -3
BITMAP
0020
FE20
0220
0638
0420
0820
1838
6020
C020
0000
7C40
0440
04C0
04A0
0518
ENDCHAR
STARTCHAR AC3C
ENCODING 44092
SWIDTH 1000 0
DWIDTH 16 0
BBX 13 15 2 -2
BITMAP
0020
FE20
0220
0620
0438
0C20
1820
3038
C020
0020
2020
2000
2000
2000
3FF0
ENDCHAR
STARTCHAR AC3D
ENCODING 44093
SWIDTH 1000 0
DWIDTH 16 0
BBX 13 15 2 -3
BITMAP
0020
FE20
0220
0638
0420
0820
1838
6020
C020
01F0
4020
4060
4060
41B0
7F10
ENDCHAR
STARTCHAR AC3E
ENCODING 44094
SWIDTH 1000 0
DWIDTH 16 0
BBX 13 16 2 -3
BITMAP
0020
FE20
0220
0638
0420
0820
3038
6020
8000
01E0
43F0
4000
41C0
4220
7E20
01C0
ENDCHAR
STARTCHAR AC3F
ENCODING 44095
SWIDTH 1000 0
DWIDTH 16 0
BBX 13 15 2 -2
BITMAP
0020
FE20
0220
0638
0420
0820
1838
6020
C020
0000
3FE0
2000
2000
2000
3FE0
ENDCHAR
STARTCHAR AC40
ENCODING 44096
SWIDTH 1000 0
DWIDTH 16 0
BBX 13 15 2 -2
BITMAP
0020
FE20
0220
0638
0420
0820
3038
6020
8000
3FE0
0020
0020
3FE0
2000
3FE0
ENDCHAR
STARTCHAR AC41
ENCODING 44097
SWIDTH 1000 0
DWIDTH 16 0
BBX 13 15 2 -3
BITMAP
0020
FE20
0220
0638
0420
0820
3038
6020
8000
7FE0
0420
0420
7C20
4020
7C20
ENDCHAR
STARTCHAR AC42
ENCODING 44098
SWIDTH 1000 0
DWIDTH 16 0
BBX 13 15 2 -2
BITMAP
0020
FE20
0220
0638
0420
0820
3038
6020
8000
7DE0
0520
0520
7D20
4120
7DE0
ENDCHAR
STARTCHAR AC43
ENCODING 44099
SWIDTH 1000 0
DWIDTH 16 0
BBX 13 15 2 -2
BITMAP
0020
FE20
0220
0638
0420
0820
3038
6020
8000
7E20
0620
07E0
7E20
4220
7FE0
ENDCHAR
STARTCHAR AC44
ENCODING 44100
SWIDTH 1000 0
DWIDTH 16 0
BBX 13 15 2 -3
BITMAP
0020
FE20
0220
0638
0420
0820
3038
6020
8000
7C40
0440
0440
7CE0
40A0
7D18
ENDCHAR
STARTCHAR AC45
ENCODING 44101
SWIDTH 1000 0
DWIDTH 16 0
BBX 13 15 2 -3
BITMAP
0020
FE20
0220
0638
0420
0820
3038
6020
8000
7DE0
0500
0500
7DE0
4100
7DF0
ENDCHAR
STARTCHAR AC46
ENCODING 44102
SWIDTH 1000 0
DWIDTH 16 0
BBX 13 15 2 -3
BITMAP
0020
FE20
0220
0638
0420
0820
3038
6020
8000
7DF0
0520
0520
7D20
4120
7FF0
ENDCHAR
STARTCHAR AC47
ENCODING 44103
SWIDTH 1000 0
DWIDTH 16 0
BBX 13 16 2 -3
BITMAP
0020
FE20
0220
0638
0420
0820
3038
6020
8000
7DE0
07F0
0400
7CE0
4110
7D10
00E0
ENDCHAR
STARTCHAR AC48
ENCODING 44104
SWIDTH 1000 0
DWIDTH 16 0
BBX 13 15 2 -2
BITMAP
0020
FE20
0220
0638
0420
0820
1838
6020
C020
0000
3FE0
2020
2020
2020
3FE0
ENDCHAR
STARTCHAR AC49
ENCODING 44105
SWIDTH 1000 0
DWIDTH 16 0
BBX 13 15 2 -2
BITMAP
0020
FE20
0220
0638
0420
0820
1838
6020
C020
2020
2020
3FE0
2020
2020
3FE0
ENDCHAR
STARTCHAR AC4A
ENCODING 44106
SWIDTH 1000 0
DWIDTH 16 0
BBX 14 15 1 -3
BITMAP
0020
FE20
0220
063C
0420
0C20
183C
6020
C020
2220
2220
3E20
2270
22D8
3F88
ENDCHAR
STARTCHAR AC4B
ENCODING 44107
SWIDTH 1000 0
DWIDTH 16 0
BBX 13 14 2 -2
BITMAP
FE20
0220
0638
0420
0C20
1820
3038
C020
0220
0200
0700
0580
18C0
7030
ENDCHAR
STARTCHAR AC4C
ENCODING 44108
SWIDTH 1000 0
DWIDTH 16 0
BBX 13 15 2 -3
BITMAP
0020
FE20
0220
0638
0420
0820
1838
6020
C020
0000
1080
1080
3180
6940
C630
ENDCHAR
STARTCHAR AC4D
ENCODING 44109
SWIDTH 1000 0
DWIDTH 16 0
BBX 13 15 2 -2
BITMAP
0020
FE20
0220
0638
0420
0820
1838
6020
C020
0F80
3060
2020
2020
3060
0F80
ENDCHAR
STARTCHAR AC4E
ENCODING 44110
SWIDTH 1000 0
DWIDTH 16 0
BBX 13 15 2 -3
BITMAP
0020
FE20
0220
0638
0420
0820
1838
6020
C020
0000
1FE0
0060
0180
07C0
3830
ENDCHAR
STARTCHAR AC4F
ENCODING 44111
SWIDTH 1000 0
DWIDTH 16 0
BBX 13 16 2 -3
BITMAP
0020
FE20
0220
0638
0420
0820
3038
6020
8000
0F80
0000
3FE0
0060
0380
1FE0
6010
ENDCHAR
STARTCHAR AC50
ENCODING 44112
SWIDTH 1000 0
DWIDTH 16 0
BBX 13 16 2 -3
BITMAP
0020
FE20
0220
0638
0420
0820
1838
6020
C020
0000
3FE0
0020
3FE0
0020
0020
0020
ENDCHAR
STARTCHAR AC51
ENCODING 44113
SWIDTH 1000 0
DWIDTH 16 0
BBX 13 15 2 -2
BITMAP
0020
FE20
0220
0638
0420
0820
3038
6020
8000
3FE0
2000
2000
3FE0
2000
3FE0
ENDCHAR
STARTCHAR AC52
ENCODING 44114
SWIDTH 1000 0
DWIDTH 16 0
BBX 13 15 2 -2
BITMAP
0020
FE20
0220
0638
0420
0820
1838
6020
C020
0000
7FE0
0880
0880
0880
7FF0
ENDCHAR
STARTCHAR AC53
ENCODING 44115
SWIDTH 1000 0
DWIDTH 16 0
BBX 14 16 2 -3
BITMAP
0020
FE20
0220
063C
0420
0820
103C
6020
8000
0F80
3FF0
0000
0F80
1040
1040
0F80
ENDCHAR
STARTCHAR AC54
ENCODING 44116
SWIDTH 1000 0
DWIDTH 16 0
BBX 12 15 2 -2
BITMAP
0010
0090
FC90
0490
0490
0CF0
0890
1890
1090
20F0
4090
8090
0090
0090
0090
ENDCHAR
STARTCHAR AC55
ENCODING 44117
SWIDTH 1000 0
DWIDTH 16 0
BBX 12 15 2 -3
BITMAP
0010
FC90
0490
04F0
0890
1890
30F0
E090
8090
0000
3FF0
0010
0010
0010
0010
ENDCHAR
STARTCHAR AC56
ENCODING 44118
SWIDTH 1000 0
DWIDTH 16 0
BBX 12 15 2 -3
BITMAP
0010
FC90
0490
04F0
0890
1890
30F0
E090
8090
0000
3FF0
0210
0210
0210
0210
ENDCHAR
STARTCHAR AC57
ENCODING 44119
SWIDTH 1000 0
DWIDTH 16 0
BBX 14 15 1 -3
BITMAP
0008
7C88
0488
04F8
0888
1888
30F8
E088
8088
0000
3E20
0220
0260
0250
028C
ENDCHAR
STARTCHAR AC58
ENCODING 44120
SWIDTH 1000 0
DWIDTH 16 0
BBX 13 15 1 -2
BITMAP
0010
7C90
0490
0490
08F0
0890
1090
60F0
C090
0090
1090
1000
1000
1000
1FF8
ENDCHAR
STARTCHAR AC59
ENCODING 44121
SWIDTH 1000 0
DWIDTH 16 0
BBX 13 15 2 -3
BITMAP
0010
FC90
0490
04F0
0890
1890
30F0
E090
8090
01F0
2010
2020
2060
20D0
3F08
ENDCHAR
STARTCHAR AC5A
ENCODING 44122
SWIDTH 1000 0
DWIDTH 16 0
BBX 13 16 2 -3
BITMAP
0010
7C90
0490
04F0
0890
18F0
3090
C090
0000
00F0
21F8
2000
20E0
2110
3F10
00E0
ENDCHAR
STARTCHAR AC5B
ENCODING 44123
SWIDTH 1000 0
DWIDTH 16 0
BBX 12 15 2 -2
BITMAP
0010
FC90
0490
04F0
0890
1890
30F0
E090
8090
0000
3FF0
2000
2000
2000
3FF0
ENDCHAR
STARTCHAR AC5C
ENCODING 44124
SWIDTH 1000 0
DWIDTH 16 0
BBX 12 15 2 -2
BITMAP
0010
FC90
0490
04F0
0890
18F0
2090
C090
0000
3FF0
0010
0010
3FF0
2000
3FF0
ENDCHAR
STARTCHAR AC5D
ENCODING 44125
SWIDTH 1000 0
DWIDTH 16 0
BBX 12 15 2 -3
BITMAP
0010
FC90
0490
04F0
0890
18F0
2090
C090
0000
3FF0
0210
0210
3E10
2010
3E10
ENDCHAR
STARTCHAR AC5E
ENCODING 44126
SWIDTH 1000 0
DWIDTH 16 0
BBX 12 15 2 -2
BITMAP
0010
7C90
0490
04F0
0890
18F0
3090
C090
0000
3EF0
0290
0290
3E90
2090
3EF0
ENDCHAR
STARTCHAR AC5F
ENCODING 44127
SWIDTH 1000 0
DWIDTH 16 0
BBX 12 15 2 -2
BITMAP
0010
FC90
0490
04F0
0890
18F0
2090
C090
0000
3F10
0310
03F0
3F10
2110
3FF0
ENDCHAR
STARTCHAR AC60
ENCODING 44128
SWIDTH 1000 0
DWIDTH 16 0
BBX 13 15 2 -3
BITMAP
0010
FC90
0490
04F0
0890
18F0
2090
C090
0000
7C40
0440
0440
7CC0
40A0
7D18
ENDCHAR
STARTCHAR AC61
ENCODING 44129
SWIDTH 1000 0
DWIDTH 16 0
BBX 13 15 2 -3
BITMAP
0010
FC90
0490
04F0
0890
18F0
2090
C090
0000
3EF0
0280
0280
3EF0
2080
3EF8
ENDCHAR
STARTCHAR AC62
ENCODING 44130
SWIDTH 1000 0
DWIDTH 16 0
BBX 12 15 2 -3
BITMAP
0010
FC90
0490
04F0
0890
18F0
2090
C090
0000
7DF0
04A0
04A0
7CA0
40A0
7FF0
ENDCHAR
STARTCHAR AC63
ENCODING 44131
SWIDTH 1000 0
DWIDTH 16 0
BBX 13 16 1 -3
BITMAP
0008
7E48
0648
0478
0C48
0878
3048
E048
0000
3EF0
03F8
0200
3E70
2088
3E88
0070
ENDCHAR
STARTCHAR AC64
ENCODING 44132
SWIDTH 1000 0
DWIDTH 16 0
BBX 12 15 2 -2
BITMAP
0010
FC90
0490
04F0
0890
1890
30F0
E090
8090
0000
3FF0
2010
2010
2010
3FF0
ENDCHAR
STARTCHAR AC65
ENCODING 44133
SWIDTH 1000 0
DWIDTH 16 0
BBX 12 15 1 -2
BITMAP
0010
7C90
0490
04F0
0890
1890
30F0
E090
8090
1010
1010
1FF0
1010
1010
1FF0
ENDCHAR
STARTCHAR AC66
ENCODING 44134
SWIDTH 1000 0
DWIDTH 16 0
BBX 13 15 2 -3
BITMAP
0010
7C90
0490
04F0
0890
1890
30F0
E090
8090
2220
2220
3E20
2250
22D8
3F80
ENDCHAR
STARTCHAR AC67
ENCODING 44135
SWIDTH 1000 0
DWIDTH 16 0
BBX 13 15 2 -3
BITMAP
0010
FC90
0490
04F0
0890
1890
30F0
E090
8090
0200
0200
0300
0480
1860
6018
ENDCHAR
STARTCHAR AC68
ENCODING 44136
SWIDTH 1000 0
DWIDTH 16 0
BBX 13 15 2 -3
BITMAP
0010
FC90
0490
04F0
0890
1890
30F0
E090
8090
0840
0840
0840
18A0
34B0
6318
ENDCHAR
STARTCHAR AC69
ENCODING 44137
SWIDTH 1000 0
DWIDTH 16 0
BBX 12 15 2 -2
BITMAP
0010
FC90
0490
04F0
0890
1890
30F0
E090
8090
0FC0
1020
2010
2010
3020
0FC0
ENDCHAR
STARTCHAR AC6A
ENCODING 44138
SWIDTH 1000 0
DWIDTH 16 0
BBX 13 15 2 -3
BITMAP
0010
FC90
0490
04F0
0890
1890
30F0
E090
8090
0000
1FF0
0020
00C0
07E0
3818
ENDCHAR
STARTCHAR AC6B
ENCODING 44139
SWIDTH 1000 0
DWIDTH 16 0
BBX 13 15 2 -3
BITMAP
0010
FC90
0490
04F0
0890
18F0
2090
C090
0000
0F80
3FF0
0060
0180
0EE0
7018
ENDCHAR
STARTCHAR AC6C
ENCODING 44140
SWIDTH 1000 0
DWIDTH 16 0
BBX 12 16 2 -3
BITMAP
0010
FC90
0490
04F0
0890
1890
30F0
E090
8090
0000
1FF0
0010
1FF0
0010
0010
0010
ENDCHAR
STARTCHAR AC6D
ENCODING 44141
SWIDTH 1000 0
DWIDTH 16 0
BBX 12 15 2 -2
BITMAP
0010
FC90
0490
04F0
0890
18F0
2090
C090
0000
3FF0
2000
2000
3FF0
2000
3FF0
ENDCHAR
STARTCHAR AC6E
ENCODING 44142
SWIDTH 1000 0
DWIDTH 16 0
BBX 13 15 2 -2
BITMAP
0010
FC90
0490
04F0
0890
1890
30F0
E090
8090
0000
3FF0
0840
0840
0840
3FF8
ENDCHAR
STARTCHAR AC6F
ENCODING 44143
SWIDTH 1000 0
DWIDTH 16 0
BBX 12 16 2 -3
BITMAP
0010
FC90
0490
04F0
0890
18F0
2090
C090
0000
0F80
3FF0
0000
0F80
1040
1040
0F80
ENDCHAR
STARTCHAR AC70
ENCODING 44144
SWIDTH 1000 0
DWIDTH 16 0
BBX 11 15 2 -2
BITMAP
0020
0020
FE20
0220
0220
0620
05E0
0C20
0820
1020
2020
C020
0020
0020
0020
ENDCHAR
STARTCHAR AC71
ENCODING 44145
SWIDTH 1000 0
DWIDTH 16 0
BBX 11 15 2 -3
BITMAP
0020
FE20
0220
0620
0420
09E0
1820
6020
C020
0000
3FE0
0020
0020
0020
0020
ENDCHAR
STARTCHAR AC72
ENCODING 44146
SWIDTH 1000 0
DWIDTH 16 0
BBX 11 14 3 -2
BITMAP
FE20
0220
0420
0420
0BE0
1020
6020
8020
0000
7DE0
0420
0420
0420
0420
ENDCHAR
STARTCHAR AC73
ENCODING 44147
SWIDTH 1000 0
DWIDTH 16 0
BBX 13 14 2 -2
BITMAP
FE20
0220
0620
0420
09E0
1820
6020
C020
0000
7C40
0440
04C0
04A0
0518
ENDCHAR
STARTCHAR AC74
ENCODING 44148
SWIDTH 1000 0
DWIDTH 16 0
BBX 12 15 2 -2
BITMAP
0020
FE20
0220
0420
0420
0BE0
1820
3020
C020
0020
2020
2000
2000
2000
3FF0
ENDCHAR
STARTCHAR AC75
ENCODING 44149
SWIDTH 1000 0
DWIDTH 16 0
BBX 12 14 2 -2
BITMAP
FE20
0220
0420
0420
0BE0
1020
6020
8020
01E0
4020
4040
40E0
41B0
7F10
ENDCHAR
STARTCHAR AC76
ENCODING 44150
SWIDTH 1000 0
DWIDTH 16 0
BBX 12 16 2 -3
BITMAP
0020
FE20
0220
0420
0420
0BE0
3020
E020
8000
01E0
43F0
4000
41C0
4220
7E20
01C0
ENDCHAR
STARTCHAR AC77
ENCODING 44151
SWIDTH 1000 0
DWIDTH 16 0
BBX 11 15 2 -2
BITMAP
0020
FE20
0220
0420
0420
0BE0
1020
6020
C020
0000
3FE0
2000
2000
2000
3FE0
ENDCHAR
STARTCHAR AC78
ENCODING 44152
SWIDTH 1000 0
DWIDTH 16 0
BBX 11 15 2 -2
BITMAP
0020
FE20
0220
0620
05E0
0820
3020
6020
8000
3FE0
0020
0020
3FE0
2000
3FE0
ENDCHAR
STARTCHAR AC79
ENCODING 44153
SWIDTH 1000 0
DWIDTH 16 0
BBX 11 15 2 -3
BITMAP
0020
FE20
0220
0420
0420
0BE0
3020
E020
8000
7FE0
0420
0420
7C20
4020
7C20
ENDCHAR
STARTCHAR AC7A
ENCODING 44154
SWIDTH 1000 0
DWIDTH 16 0
BBX 11 15 2 -2
BITMAP
0020
FE20
0220
0620
05E0
0820
3020
E020
8000
7DE0
0520
0520
7D20
4120
7DE0
ENDCHAR
STARTCHAR AC7B
ENCODING 44155
SWIDTH 1000 0
DWIDTH 16 0
BBX 11 15 2 -3
BITMAP
0020
FE20
0220
0420
0420
0BE0
3020
E020
8000
7E20
0620
07E0
7E20
4220
7FE0
ENDCHAR
STARTCHAR AC7C
ENCODING 44156
SWIDTH 1000 0
DWIDTH 16 0
BBX 13 15 2 -3
BITMAP
0020
FE20
0220
0620
0420
09E0
3020
6020
8000
7C40
0440
0440
7CC0
40A0
7D18
ENDCHAR
STARTCHAR AC7D
ENCODING 44157
SWIDTH 1000 0
DWIDTH 16 0
BBX 12 15 2 -3
BITMAP
0020
FE20
0220
0420
0420
0BE0
3020
E020
8000
7DE0
0500
0500
7DE0
4100
7DF0
ENDCHAR
STARTCHAR AC7E
ENCODING 44158
SWIDTH 1000 0
DWIDTH 16 0
BBX 12 15 2 -3
BITMAP
0020
FE20
0220
0620
0420
09E0
3020
6020
8000
7DF0
04A0
04A0
7CA0
40A0
7FF0
ENDCHAR
STARTCHAR AC7F
ENCODING 44159
SWIDTH 1000 0
DWIDTH 16 0
BBX 12 16 2 -3
BITMAP
0020
FE20
0220
0420
0420
0BE0
3020
E020
8000
7DE0
07F0
0400
7CE0
4110
7D10
00E0
ENDCHAR
STARTCHAR AC80
ENCODING 44160
SWIDTH 1000 0
DWIDTH 16 0
BBX 11 14 2 -1
BITMAP
FE20
0220
0620
0420
09E0
1820
6020
C020
0000
3FE0
2020
2020
2020
3FE0
ENDCHAR
STARTCHAR AC81
ENCODING 44161
SWIDTH 1000 0
DWIDTH 16 0
BBX 11 15 2 -2
BITMAP
0020
FE20
0220
0620
0420
09E0
1020
6020
8000
2020
2020
3FE0
2020
2020
3FE0
ENDCHAR
STARTCHAR AC82
ENCODING 44162
SWIDTH 1000 0
DWIDTH 16 0
BBX 12 14 2 -2
BITMAP
FE20
0220
0420
0420
0BE0
1020
6020
8020
4440
4440
7C40
44A0
45B0
7F00
ENDCHAR
STARTCHAR AC83
ENCODING 44163
SWIDTH 1000 0
DWIDTH 16 0
BBX 12 14 2 -2
BITMAP
FE20
0220
0620
0420
0DE0
1820
3020
C020
0020
0200
0700
0D00
18C0
6030
ENDCHAR
STARTCHAR AC84
ENCODING 44164
SWIDTH 1000 0
DWIDTH 16 0
BBX 13 14 2 -2
BITMAP
FE20
0220
0620
0420
09E0
1820
6020
C020
0000
0840
0840
18E0
14A0
6318
ENDCHAR
STARTCHAR AC85
ENCODING 44165
SWIDTH 1000 0
DWIDTH 16 0
BBX 11 15 2 -2
BITMAP
0020
FE20
0220
0620
0420
09E0
1820
6020
C020
0F80
3060
2020
2020
3060
0F80
ENDCHAR
STARTCHAR AC86
ENCODING 44166
SWIDTH 1000 0
DWIDTH 16 0
BBX 12 15 2 -3
BITMAP
0020
FE20
0220
0620
0420
09E0
1020
6020
8020
0000
3FE0
0040
0180
07C0
3830
ENDCHAR
STARTCHAR AC87
ENCODING 44167
SWIDTH 1000 0
DWIDTH 16 0
BBX 12 16 2 -3
BITMAP
0020
FE20
0220
0620
0420
09E0
3020
6020
8000
0F80
0000
3FE0
0060
0380
3DF0
4000
ENDCHAR
STARTCHAR AC88
ENCODING 44168
SWIDTH 1000 0
DWIDTH 16 0
BBX 11 15 2 -2
BITMAP
FE20
0220
0620
0420
09E0
1820
6020
C020
0000
3FE0
0020
3FE0
0020
0020
0020
ENDCHAR
STARTCHAR AC89
ENCODING 44169
SWIDTH 1000 0
DWIDTH 16 0
BBX 11 15 2 -2
BITMAP
0020
FE20
0220
0420
07E0
0820
3020
E020
8000
3FE0
2000
2000
3FE0
2000
3FE0
ENDCHAR
STARTCHAR AC8A
ENCODING 44170
SWIDTH 1000 0
DWIDTH 16 0
BBX 12 14 2 -1
BITMAP
FE20
0220
0620
0420
09E0
1820
6020
C020
0000
3FF0
0840
0840
0840
7FF0
ENDCHAR
STARTCHAR AC8B
ENCODING 44171
SWIDTH 1000 0
DWIDTH 16 0
BBX 12 16 2 -3
BITMAP
0020
FE20
0220
0620
05E0
0820
3020
C020
0000
0F80
3FF0
0000
0F80
1040
1040
0F80
ENDCHAR
STARTCHAR AC8C
ENCODING 44172
SWIDTH 1000 0
DWIDTH 16 0
BBX 12 15 2 -2
BITMAP
0010
0090
FC90
0490
0490
0890
0F90
1890
1090
2090
C090
8090
0090
0090
0090
ENDCHAR
STARTCHAR AC8D
ENCODING 44173
SWIDTH 1000 0
DWIDTH 16 0
BBX 12 15 2 -3
BITMAP
0010
FC90
0490
0C90
0F90
1890
3090
C090
0090
0000
3FF0
0010
0010
0010
0010
ENDCHAR
STARTCHAR AC8E
ENCODING 44174
SWIDTH 1000 0
DWIDTH 16 0
BBX 12 15 2 -3
BITMAP
0010
FC90
0490
0890
0F90
1090
3090
C090
0090
0000
3EF0
0210
0210
0210
0210
ENDCHAR
STARTCHAR AC8F
ENCODING 44175
SWIDTH 1000 0
DWIDTH 16 0
BBX 13 15 2 -3
BITMAP
0010
FC90
0490
0890
0F90
1090
3090
C090
0090
0000
7C40
0440
04C0
04A0
0518
ENDCHAR
STARTCHAR AC90
ENCODING 44176
SWIDTH 1000 0
DWIDTH 16 0
BBX 12 15 2 -2
BITMAP
0020
FCA0
0CA0
08A0
08A0
1FA0
30A0
60A0
C0A0
00A0
20A0
2000
2000
2000
3FF0
ENDCHAR
STARTCHAR AC91
ENCODING 44177
SWIDTH 1000 0
DWIDTH 16 0
BBX 13 15 2 -3
BITMAP
0010
FC90
0490
0C90
0F90
1890
3090
C090
0090
01F0
2010
2020
2060
20D0
3F08
ENDCHAR
STARTCHAR AC92
ENCODING 44178
SWIDTH 1000 0
DWIDTH 16 0
BBX 13 15 2 -2
BITMAP
FC90
0490
0C90
0F90
1090
6090
C090
0090
01E0
21F8
2000
20E0
2110
3F10
00E0
ENDCHAR
STARTCHAR AC93
ENCODING 44179
SWIDTH 1000 0
DWIDTH 16 0
BBX 12 15 2 -2
BITMAP
0010
FC90
0490
0890
0F90
1090
3090
C090
0090
0000
3FF0
2000
2000
2000
3FF0
ENDCHAR
STARTCHAR AC94
ENCODING 44180
SWIDTH 1000 0
DWIDTH 16 0
BBX 12 14 2 -1
BITMAP
FC90
0C90
0890
1F90
1090
6090
C090
0090
3FF0
0010
0010
3FF0
2000
3FF0
ENDCHAR
STARTCHAR AC95
ENCODING 44181
SWIDTH 1000 0
DWIDTH 16 0
BBX 12 14 2 -2
BITMAP
FC90
0490
0C90
0F90
1090
6090
C090
0090
3FF0
0210
0210
3E10
2010
3E10
ENDCHAR
STARTCHAR AC96
ENCODING 44182
SWIDTH 1000 0
DWIDTH 16 0
BBX 12 14 2 -1
BITMAP
FC90
0490
0C90
0F90
1090
6090
C090
0090
3EF0
0290
0290
3E90
2090
3EF0
ENDCHAR
STARTCHAR AC97
ENCODING 44183
SWIDTH 1000 0
DWIDTH 16 0
BBX 12 14 2 -1
BITMAP
FC90
0490
0C90
0F90
1090
6090
C090
0090
3F10
0310
03F0
3F10
2110
3FF0
ENDCHAR
STARTCHAR AC98
ENCODING 44184
SWIDTH 1000 0
DWIDTH 16 0
BBX 13 14 2 -2
BITMAP
FC90
0490
0890
0F90
1090
6090
C090
0090
7C40
0440
0440
7CC0
40A0
7D18
ENDCHAR
STARTCHAR AC99
ENCODING 44185
SWIDTH 1000 0
DWIDTH 16 0
BBX 13 14 2 -2
BITMAP
FC90
0490
0C90
0F90
1090
6090
C090
0090
3EF0
0280
0280
3EF0
2080
3EF8
ENDCHAR
STARTCHAR AC9A
ENCODING 44186
SWIDTH 1000 0
DWIDTH 16 0
BBX 12 14 2 -2
BITMAP
FC90
0490
0890
0F90
1090
6090
C090
0090
7DF0
04A0
04A0
7CA0
40A0
7FF0
ENDCHAR
STARTCHAR AC9B
ENCODING 44187
SWIDTH 1000 0
DWIDTH 16 0
BBX 12 15 2 -2
BITMAP
FC90
0490
0890
0F90
1090
6090
C090
0090
7DE0
07F0
0400
7CE0
4110
7D10
00E0
ENDCHAR
STARTCHAR AC9C
ENCODING 44188
SWIDTH 1000 0
DWIDTH 16 0
BBX 12 15 2 -2
BITMAP
0010
FC90
0490
0C90
0890
1F90
1090
6090
C090
0000
3FF0
2010
2010
2010
3FF0
ENDCHAR
STARTCHAR AC9D
ENCODING 44189
SWIDTH 1000 0
DWIDTH 16 0
BBX 11 15 2 -2
BITMAP
0020
FCA0
0CA0
08A0
0FA0
10A0
60A0
C0A0
0080
2020
2020
3FE0
2020
2020
3FE0
ENDCHAR
STARTCHAR AC9E
ENCODING 44190
SWIDTH 1000 0
DWIDTH 16 0
BBX 13 15 2 -3
BITMAP
0010
FC90
0490
0C90
0F90
1890
3090
C090
0090
2220
2220
3E20
2250
22D8
3F80
ENDCHAR
STARTCHAR AC9F
ENCODING 44191
SWIDTH 1000 0
DWIDTH 16 0
BBX 12 15 2 -2
BITMAP
0010
FC90
0490
0C90
0890
0F90
1090
2090
C090
0090
0200
0700
0C80
3860
6010
ENDCHAR
STARTCHAR ACA0
ENCODING 44192
SWIDTH 1000 0
DWIDTH 16 0
BBX 13 14 2 -2
BITMAP
FC90
0490
0490
0890
0F90
1090
6090
C090
0000
0840
0840
18A0
34A0
6318
ENDCHAR
STARTCHAR ACA1
ENCODING 44193
SWIDTH 1000 0
DWIDTH 16 0
BBX 12 15 2 -2
BITMAP
0010
FC90
0490
0C90
0890
1F90
1090
6090
C090
0FC0
1020
2010
2010
1030
0FC0
ENDCHAR
STARTCHAR ACA2
ENCODING 44194
SWIDTH 1000 0
DWIDTH 16 0
BBX 13 15 2 -3
BITMAP
0010
FC90
0490
0C90
0F90
1890
3090
C090
0090
0000
1FF0
0020
00C0
07C0
3838
ENDCHAR
STARTCHAR ACA3
ENCODING 44195
SWIDTH 1000 0
DWIDTH 16 0
BBX 13 14 2 -2
BITMAP
FC90
0490
0890
0F90
1090
6090
C090
0090
0F80
3FE0
0060
0180
0FE0
7018
ENDCHAR
STARTCHAR ACA4
ENCODING 44196
SWIDTH 1000 0
DWIDTH 16 0
BBX 12 16 2 -3
BITMAP
0010
FC90
0490
0C90
0F90
1890
3090
C090
0090
0000
3FF0
0010
1FF0
0010
0010
0010
ENDCHAR
STARTCHAR ACA5
ENCODING 44197
SWIDTH 1000 0
DWIDTH 16 0
BBX 12 14 2 -1
BITMAP
FC90
0490
0890
0F90
1090
6090
C090
0090
3FF0
2000
2000
3FF0
2000
3FF0
ENDCHAR
STARTCHAR ACA6
ENCODING 44198
SWIDTH 1000 0
DWIDTH 16 0
BBX 13 15 2 -2
BITMAP
0010
FC90
0490
0C90
0F90
1890
3090
C090
0090
0000
3FF0
0840
0840
0840
3FF8
ENDCHAR
STARTCHAR ACA7
ENCODING 44199
SWIDTH 1000 0
DWIDTH 16 0
BBX 12 15 2 -2
BITMAP
FC90
0490
0C90
0F90
1090
6090
C090
0090
0F80
3FF0
0000
0F80
1040
1040
0F80
ENDCHAR
STARTCHAR ACA8
ENCODING 44200
SWIDTH 1000 0
DWIDTH 16 0
BBX 11 15 2 -2
BITMAP
0020
0020
FE20
0220
07E0
0420
0C20
0820
13E0
3020
4020
8020
0020
0020
0020
ENDCHAR
STARTCHAR ACA9
ENCODING 44201
SWIDTH 1000 0
DWIDTH 16 0
BBX 11 15 2 -3
BITMAP
0020
FE20
0220
07E0
0420
0820
1BE0
6020
C020
0000
3FE0
0020
0020
0020
0020
ENDCHAR
STARTCHAR ACAA
ENCODING 44202
SWIDTH 1000 0
DWIDTH 16 0
BBX 11 15 3 -3
BITMAP
0020
FC20
0420
07E0
0C20
0820
13E0
6020
8020
0000
7FE0
0420
0420
0420
0420
ENDCHAR
STARTCHAR ACAB
ENCODING 44203
SWIDTH 1000 0
DWIDTH 16 0
BBX 13 14 2 -2
BITMAP
FE20
0220
07E0
0420
0820
1BE0
6020
C020
0000
7C40
0440
04C0
04A0
0518
ENDCHAR
STARTCHAR ACAC
ENCODING 44204
SWIDTH 1000 0
DWIDTH 16 0
BBX 12 15 2 -2
BITMAP
0020
FE20
0620
0420
07E0
0C20
0820
33E0
6020
8020
2020
2000
2000
2000
3FF0
ENDCHAR
STARTCHAR ACAD
ENCODING 44205
SWIDTH 1000 0
DWIDTH 16 0
BBX 12 14 2 -2
BITMAP
FE20
0220
07E0
0420
0820
13E0
6020
8020
01E0
4020
4060
40E0
41B0
7F10
ENDCHAR
STARTCHAR ACAE
ENCODING 44206
SWIDTH 1000 0
DWIDTH 16 0
BBX 12 16 2 -3
BITMAP
0020
FE20
0220
07E0
0420
0820
33E0
E020
8000
01E0
43F0
4000
41C0
4220
7E20
01C0
ENDCHAR
STARTCHAR ACAF
ENCODING 44207
SWIDTH 1000 0
DWIDTH 16 0
BBX 11 14 2 -1
BITMAP
FE20
0220
07E0
0420
0820
13E0
6020
8020
0000
3FE0
2000
2000
2000
3FE0
ENDCHAR
STARTCHAR ACB0
ENCODING 44208
SWIDTH 1000 0
DWIDTH 16 0
BBX 11 15 2 -2
BITMAP
0020
FE20
0220
07E0
0420
0820
13E0
6020
8000
3FE0
0020
0020
3FE0
2000
3FE0
ENDCHAR
STARTCHAR ACB1
ENCODING 44209
SWIDTH 1000 0
DWIDTH 16 0
BBX 11 15 2 -3
BITMAP
0020
FE20
0220
07E0
0420
0820
33E0
E020
8000
7FE0
0420
0420
7C20
4020
7C20
ENDCHAR
STARTCHAR ACB2
ENCODING 44210
SWIDTH 1000 0
DWIDTH 16 0
BBX 11 15 2 -2
BITMAP
0020
FE20
0220
07E0
0420
0820
33E0
6020
8000
7DE0
0520
0520
7D20
4120
7DE0
ENDCHAR
STARTCHAR ACB3
ENCODING 44211
SWIDTH 1000 0
DWIDTH 16 0
BBX 11 15 2 -3
BITMAP
0020
FE20
0220
07E0
0420
0820
33E0
E020
8000
7E20
0620
07E0
7E20
4220
7FE0
ENDCHAR
STARTCHAR ACB4
ENCODING 44212
SWIDTH 1000 0
DWIDTH 16 0
BBX 13 15 2 -3
BITMAP
0020
FE20
0220
07E0
0420
0820
33E0
6020
8000
7C40
0440
0440
7CC0
40A0
7D18
ENDCHAR
STARTCHAR ACB5
ENCODING 44213
SWIDTH 1000 0
DWIDTH 16 0
BBX 12 15 2 -3
BITMAP
0020
FE20
0220
07E0
0420
0820
33E0
E020
8000
7DE0
0500
0500
7DE0
4100
7DF0
ENDCHAR
STARTCHAR ACB6
ENCODING 44214
SWIDTH 1000 0
DWIDTH 16 0
BBX 12 15 2 -3
BITMAP
0020
FE20
0220
07E0
0420
0820
33E0
6020
8000
7DF0
04A0
04A0
7CA0
40A0
7FF0
ENDCHAR
STARTCHAR ACB7
ENCODING 44215
SWIDTH 1000 0
DWIDTH 16 0
BBX 12 16 2 -3
BITMAP
0020
FE20
0220
07E0
0420
0820
33E0
E020
8000
7DE0
07F0
0400
7CE0
4110
7D10
00E0
ENDCHAR
STARTCHAR ACB8
ENCODING 44216
SWIDTH 1000 0
DWIDTH 16 0
BBX 11 15 2 -2
BITMAP
0020
FE20
0220
07E0
0420
0820
13E0
6020
8020
0000
3FE0
2020
2020
2020
3FE0
ENDCHAR
STARTCHAR ACB9
ENCODING 44217
SWIDTH 1000 0
DWIDTH 16 0
BBX 11 15 2 -2
BITMAP
0020
FE20
0220
07E0
0420
0820
33E0
6020
8000
2020
2020
3FE0
2020
2020
3FE0
ENDCHAR
STARTCHAR ACBA
ENCODING 44218
SWIDTH 1000 0
DWIDTH 16 0
BBX 12 14 2 -2
BITMAP
FE20
0220
07E0
0420
0820
13E0
6020
8020
4440
4440
7C40
44A0
45B0
7F00
ENDCHAR
STARTCHAR ACBB
ENCODING 44219
SWIDTH 1000 0
DWIDTH 16 0
BBX 12 14 2 -2
BITMAP
FE20
0220
0620
07E0
0420
0820
13E0
6020
C020
0200
0700
0D00
18C0
6030
ENDCHAR
STARTCHAR ACBC
ENCODING 44220
SWIDTH 1000 0
DWIDTH 16 0
BBX 13 14 2 -2
BITMAP
FE20
0220
07E0
0420
0820
13E0
6020
8020
0000
0840
0840
18C0
14A0
6318
ENDCHAR
STARTCHAR ACBD
ENCODING 44221
SWIDTH 1000 0
DWIDTH 16 0
BBX 11 15 2 -2
BITMAP
0020
FE20
0220
07E0
0420
0820
13E0
6020
8020
0F80
3060
2020
2020
3060
0F80
ENDCHAR
STARTCHAR ACBE
ENCODING 44222
SWIDTH 1000 0
DWIDTH 16 0
BBX 12 14 2 -2
BITMAP
FE20
0220
07E0
0420
0820
1BE0
6020
C020
0000
1FE0
0040
0180
07C0
3830
ENDCHAR
STARTCHAR ACBF
ENCODING 44223
SWIDTH 1000 0
DWIDTH 16 0
BBX 12 16 2 -3
BITMAP
0020
FE20
0220
07E0
0420
0820
33E0
6020
8000
0F80
0000
3FE0
0060
0380
3DF0
4000
ENDCHAR
STARTCHAR ACC0
ENCODING 44224
SWIDTH 1000 0
DWIDTH 16 0
BBX 11 15 2 -2
BITMAP
FE20
0220
07E0
0420
0820
1BE0
6020
C020
0000
3FE0
0020
3FE0
0020
0020
0020
ENDCHAR
STARTCHAR ACC1
ENCODING 44225
SWIDTH 1000 0
DWIDTH 16 0
BBX 11 15 2 -2
BITMAP
0020
FE20
0620
07E0
0420
0820
13E0
6020
8000
3FE0
2000
2000
3FE0
2000
3FE0
ENDCHAR
STARTCHAR ACC2
ENCODING 44226
SWIDTH 1000 0
DWIDTH 16 0
BBX 12 14 2 -1
BITMAP
FE20
0220
07E0
0420
0820
1BE0
6020
C020
0000
3FF0
0840
0840
0840
7FF0
ENDCHAR
STARTCHAR ACC3
ENCODING 44227
SWIDTH 1000 0
DWIDTH 16 0
BBX 12 16 2 -3
BITMAP
0020
FE20
0220
07E0
0420
0820
33E0
6020
8000
0F80
3FF0
0000
0F80
1040
1040
0F80
ENDCHAR
STARTCHAR ACC4
ENCODING 44228
SWIDTH 1000 0
DWIDTH 16 0
BBX 12 15 2 -2
BITMAP
0010
0090
FC90
0490
0F90
0890
1890
1090
2790
4090
8090
0090
0090
0090
0090
ENDCHAR
STARTCHAR ACC5
ENCODING 44229
SWIDTH 1000 0
DWIDTH 16 0
BBX 12 15 2 -3
BITMAP
0010
FC90
0490
0F90
0890
1890
3790
C090
0090
0000
3FF0
0010
0010
0010
0010
ENDCHAR
STARTCHAR ACC6
ENCODING 44230
SWIDTH 1000 0
DWIDTH 16 0
BBX 12 15 2 -3
BITMAP
0010
FC90
0490
0F90
0890
1090
3790
C090
0090
0000
3EF0
0210
0210
0210
0210
ENDCHAR
STARTCHAR ACC7
ENCODING 44231
SWIDTH 1000 0
DWIDTH 16 0
BBX 13 15 2 -3
BITMAP
0010
FC90
0490
0F90
0890
1090
3790
C090
0090
0040
7C40
0440
04C0
04A0
0518
ENDCHAR
STARTCHAR ACC8
ENCODING 44232
SWIDTH 1000 0
DWIDTH 16 0
BBX 12 15 2 -2
BITMAP
0020
FCA0
04A0
0CA0
0FA0
08A0
10A0
27A0
C0A0
00A0
20A0
2000
2000
2000
3FF0
ENDCHAR
STARTCHAR ACC9
ENCODING 44233
SWIDTH 1000 0
DWIDTH 16 0
BBX 13 15 2 -3
BITMAP
0010
FC90
0490
0F90
0890
1890
3790
C090
0090
01F0
2010
2020
2060
20D0
3F08
ENDCHAR
STARTCHAR ACCA
ENCODING 44234
SWIDTH 1000 0
DWIDTH 16 0
BBX 13 16 2 -3
BITMAP
0010
7C90
0490
0790
0890
1890
3790
C090
0000
00F0
21F8
2000
20E0
2110
3F10
00E0
ENDCHAR
STARTCHAR ACCB
ENCODING 44235
SWIDTH 1000 0
DWIDTH 16 0
BBX 12 15 2 -2
BITMAP
0010
FC90
0490
0F90
0890
1090
3790
C090
0090
0000
3FF0
2000
2000
2000
3FF0
ENDCHAR
STARTCHAR ACCC
ENCODING 44236
SWIDTH 1000 0
DWIDTH 16 0
BBX 12 15 2 -2
BITMAP
0010
FC90
0490
0F90
0890
1090
2790
C090
0080
3FF0
0010
0010
3FF0
2000
3FF0
ENDCHAR
STARTCHAR ACCD
ENCODING 44237
SWIDTH 1000 0
DWIDTH 16 0
BBX 12 15 2 -3
BITMAP
0010
FC90
0490
0F90
0890
1090
6790
C090
0000
3FF0
0210
0210
3E10
2010
3E10
ENDCHAR
STARTCHAR ACCE
ENCODING 44238
SWIDTH 1000 0
DWIDTH 16 0
BBX 12 15 2 -2
BITMAP
0010
FC90
0490
0F90
0890
1090
6790
C090
0000
3EF0
0290
0290
3E90
2090
3EF0
ENDCHAR
STARTCHAR ACCF
ENCODING 44239
SWIDTH 1000 0
DWIDTH 16 0
BBX 12 15 2 -2
BITMAP
0010
FC90
0490
0F90
0890
1090
6790
C090
0000
3F10
0310
03F0
3F10
2110
3FF0
ENDCHAR
STARTCHAR ACD0
ENCODING 44240
SWIDTH 1000 0
DWIDTH 16 0
BBX 13 15 2 -3
BITMAP
0010
FC90
0490
0F90
0890
1090
6790
C090
0000
7C40
0440
0440
7CC0
40A0
7D18
ENDCHAR
STARTCHAR ACD1
ENCODING 44241
SWIDTH 1000 0
DWIDTH 16 0
BBX 13 15 2 -3
BITMAP
0010
FC90
0490
0F90
0890
1090
6790
C090
0000
3EF0
0280
0280
3EF0
2080
3EF8
ENDCHAR
STARTCHAR ACD2
ENCODING 44242
SWIDTH 1000 0
DWIDTH 16 0
BBX 12 15 2 -3
BITMAP
0010
FC90
0490
0F90
0890
1090
6790
C090
0000
7DF0
04A0
04A0
7CA0
40A0
7FF0
ENDCHAR
STARTCHAR ACD3
ENCODING 44243
SWIDTH 1000 0
DWIDTH 16 0
BBX 13 16 1 -3
BITMAP
0008
7E48
0648
07C8
0C48
0848
33C8
E048
0000
3EF0
03F8
0200
3E70
2088
3E88
0070
ENDCHAR
STARTCHAR ACD4
ENCODING 44244
SWIDTH 1000 0
DWIDTH 16 0
BBX 12 15 2 -2
BITMAP
0010
FC90
0490
0F90
0890
1090
3790
C090
0090
0000
3FF0
2010
2010
2010
3FF0
ENDCHAR
STARTCHAR ACD5
ENCODING 44245
SWIDTH 1000 0
DWIDTH 16 0
BBX 11 15 2 -2
BITMAP
0020
FCA0
04A0
0FA0
08A0
10A0
37A0
C0A0
0080
2020
2020
3FE0
2020
2020
3FE0
ENDCHAR
STARTCHAR ACD6
ENCODING 44246
SWIDTH 1000 0
DWIDTH 16 0
BBX 13 15 2 -3
BITMAP
0010
FC90
0490
0F90
0890
1890
3790
C090
0090
2220
2220
3E20
2250
22D8
3F80
ENDCHAR
STARTCHAR ACD7
ENCODING 44247
SWIDTH 1000 0
DWIDTH 16 0
BBX 12 15 2 -2
BITMAP
0010
FC90
0490
0490
0F90
0890
1890
3790
E090
8090
0200
0700
0C80
3860
6010
ENDCHAR
STARTCHAR ACD8
ENCODING 44248
SWIDTH 1000 0
DWIDTH 16 0
BBX 13 15 2 -3
BITMAP
0010
FC90
0490
0F90
0890
1890
3790
C090
0090
0840
0840
0840
1CA0
34B0
6318
ENDCHAR
STARTCHAR ACD9
ENCODING 44249
SWIDTH 1000 0
DWIDTH 16 0
BBX 12 15 2 -2
BITMAP
0010
FC90
0490
0F90
0890
1090
3790
C090
0090
0FC0
1020
2010
2010
3030
0FC0
ENDCHAR
STARTCHAR ACDA
ENCODING 44250
SWIDTH 1000 0
DWIDTH 16 0
BBX 13 15 2 -3
BITMAP
0010
FC90
0490
0F90
0890
1890
3790
C090
0090
0000
1FF0
0020
00C0
07C0
3838
ENDCHAR
STARTCHAR ACDB
ENCODING 44251
SWIDTH 1000 0
DWIDTH 16 0
BBX 13 15 2 -3
BITMAP
0010
FC90
0490
0F90
0890
1090
6790
C090
0000
0F80
3FE0
0060
0180
0FE0
7018
ENDCHAR
STARTCHAR ACDC
ENCODING 44252
SWIDTH 1000 0
DWIDTH 16 0
BBX 12 16 2 -3
BITMAP
0010
FC90
0490
0F90
0890
1890
3790
C090
0090
0000
3FF0
0010
1FF0
0010
0010
0010
ENDCHAR
STARTCHAR ACDD
ENCODING 44253
SWIDTH 1000 0
DWIDTH 16 0
BBX 12 15 2 -2
BITMAP
0010
FC90
0490
0F90
0890
1090
6790
C090
0000
3FF0
2000
2000
3FF0
2000
3FF0
ENDCHAR
STARTCHAR ACDE
ENCODING 44254
SWIDTH 1000 0
DWIDTH 16 0
BBX 13 15 2 -2
BITMAP
0010
FC90
0490
0F90
0890
1890
3790
C090
0090
0000
3FF0
0840
0840
0840
3FF8
ENDCHAR
STARTCHAR ACDF
ENCODING 44255
SWIDTH 1000 0
DWIDTH 16 0
BBX 12 16 2 -3
BITMAP
0010
FC90
0490
0F90
0890
1090
6790
C090
0000
0F80
3FF0
0000
0F80
1040
1040
0F80
ENDCHAR
STARTCHAR ACE0
ENCODING 44256
SWIDTH 1000 0
DWIDTH 16 0
BBX 14 11 1 0
BITMAP
3FF0
0010
0010
0010
0010
0210
0210
0230
0200
0200
FFFC
ENDCHAR
STARTCHAR ACE1
ENCODING 44257
SWIDTH 1000 0
DWIDTH 16 0
BBX 14 14 1 -3
BITMAP
3FF0
0010
0010
0210
0210
0200
FFFC
0000
0000
3FF0
0010
0010
0010
0010
ENDCHAR
STARTCHAR ACE2
ENCODING 44258
SWIDTH 1000 0
DWIDTH 16 0
BBX 14 14 1 -3
BITMAP
3FF0
0010
0010
0210
0210
0200
FFFC
0000
0000
3FF0
0210
0210
0210
0210
ENDCHAR
STARTCHAR ACE3
ENCODING 44259
SWIDTH 1000 0
DWIDTH 16 0
BBX 14 14 1 -3
BITMAP
3FF0
0010
0010
0210
0230
0200
FFFC
0000
0000
7C40
0440
04C0
04A0
0518
ENDCHAR
STARTCHAR ACE4
ENCODING 44260
SWIDTH 1000 0
DWIDTH 16 0
BBX 14 14 1 -2
BITMAP
3FF0
0010
0010
0010
0210
0230
0200
FFFC
0000
2000
2000
2000
2000
3FF0
ENDCHAR
STARTCHAR ACE5
ENCODING 44261
SWIDTH 1000 0
DWIDTH 16 0
BBX 14 14 1 -3
BITMAP
3FF0
0010
0010
0210
0210
0200
FFFC
0000
01F0
2010
2020
2060
20D8
3F08
ENDCHAR
STARTCHAR ACE6
ENCODING 44262
SWIDTH 1000 0
DWIDTH 16 0
BBX 14 15 1 -3
BITMAP
3FF0
0010
0010
0210
0230
0200
FFFC
0000
20F0
21F8
2000
20E0
2110
3F10
00E0
ENDCHAR
STARTCHAR ACE7
ENCODING 44263
SWIDTH 1000 0
DWIDTH 16 0
BBX 14 14 1 -2
BITMAP
3FF0
0010
0010
0210
0210
0200
FFFC
0000
0000
3FF0
2000
2000
2000
3FF0
ENDCHAR
STARTCHAR ACE8
ENCODING 44264
SWIDTH 1000 0
DWIDTH 16 0
BBX 14 14 1 -2
BITMAP
3FF0
0010
0010
0210
0210
0200
FFFC
0000
3FF0
0010
0010
3FF0
2000
3FF0
ENDCHAR
STARTCHAR ACE9
ENCODING 44265
SWIDTH 1000 0
DWIDTH 16 0
BBX 14 14 1 -3
BITMAP
3FF0
0010
0010
0210
0210
0200
FFFC
0000
3FF0
0210
3E10
2010
2010
3E10
ENDCHAR
STARTCHAR ACEA
ENCODING 44266
SWIDTH 1000 0
DWIDTH 16 0
BBX 14 14 1 -2
BITMAP
3FF0
0010
0010
0210
0230
0200
FFFC
0000
3FF0
0310
0310
3F10
2110
3FF0
ENDCHAR
STARTCHAR ACEB
ENCODING 44267
SWIDTH 1000 0
DWIDTH 16 0
BBX 14 14 1 -2
BITMAP
3FF0
0010
0010
0210
0230
0200
FFFC
0000
3D10
0510
05F0
3D10
2110
3FF0
ENDCHAR
ENDFONT
